  0
SECTION
  2
HEADER
  9
$LIMMIN
 10
-200.000000
 20
-200.000000
  9
$LIMMAX
 10
200.000000
 20
200.000000
  9
$EXTMIN
 10
-200.000000
 20
-200.000000
  9
$EXTMAX
 10
200.000000
 20
200.000000
  0
ENDSEC
  0
SECTION
  2
TABLES
  0
TABLE
  2
LTYPE
 70
     1
  0
LTYPE
  2
CONTINUOUS
 70
    64
  3
Ausgez
 72
    65
 73
  0
 40
0.000000
  0
ENDTAB
  0
TABLE
  2
LAYER
 70
    36
  0
LAYER
  2
0
 70
    64
 62
     7
  6
CONTINUOUS
  0
ENDTAB
  0
ENDSEC
  0
SECTION
  2
BLOCKS
  0
ENDSEC
  0
SECTION
  2
ENTITIES
  0
CIRCLE
  8
0
 62
     7
  6
CONTINUOUS
 10
0.000000
 20
0.000000
 40
200.000000
  0
CIRCLE
  8
0
 62
     7
  6
CONTINUOUS
 10
0.000000
 20
0.000000
 40
120.000000
  0
POLYLINE
  8
7
  6
CONTINUOUS
 66
  1
  0
VERTEX
  8
0
 10
-29.914327
 20
162.265625
 42
0.084286
  0
VERTEX
  8
0
 10
-28.985849
 20
152.265625
 42
-0.016268
  0
VERTEX
  8
0
 10
-19.023879
 20
153.828125
 42
0.726883
  0
VERTEX
  8
0
 10
19.023879
 20
153.828125
 42
-0.016268
  0
VERTEX
  8
0
 10
28.985849
 20
152.265625
 42
0.084286
  0
VERTEX
  8
0
 10
29.914327
 20
162.265625
 42
0.015765
  0
VERTEX
  8
0
 10
19.630218
 20
163.828125
 42
0.823826
  0
VERTEX
  8
0
 10
-19.630218
 20
163.828125
 42
0.015765
  0
VERTEX
  8
0
 10
-29.914327
 20
162.265625
  0
POLYLINE
  8
7
  6
CONTINUOUS
 66
  1
  0
VERTEX
  8
0
 10
-107.039379
 20
125.568990
 42
0.084286
  0
VERTEX
  8
0
 10
-101.235294
 20
117.372975
 42
-0.016268
  0
VERTEX
  8
0
 10
-93.389225
 20
123.707125
 42
0.726883
  0
VERTEX
  8
0
 10
-60.438900
 20
142.731003
 42
-0.016268
  0
VERTEX
  8
0
 10
-51.030331
 20
146.358824
 42
0.084286
  0
VERTEX
  8
0
 10
-55.226246
 20
155.483317
 42
0.015765
  0
VERTEX
  8
0
 10
-64.913795
 20
151.694427
 42
0.823826
  0
VERTEX
  8
0
 10
-98.914330
 20
132.064209
 42
0.015765
  0
VERTEX
  8
0
 10
-107.039379
 20
125.568990
  0
POLYLINE
  8
7
  6
CONTINUOUS
 66
  1
  0
VERTEX
  8
0
 10
-155.483317
 20
55.226246
 42
0.084286
  0
VERTEX
  8
0
 10
-146.358824
 20
51.030331
 42
-0.016268
  0
VERTEX
  8
0
 10
-142.731003
 20
60.438900
 42
0.726883
  0
VERTEX
  8
0
 10
-123.707125
 20
93.389225
 42
-0.016268
  0
VERTEX
  8
0
 10
-117.372975
 20
101.235294
 42
0.084286
  0
VERTEX
  8
0
 10
-125.568990
 20
107.039379
 42
0.015765
  0
VERTEX
  8
0
 10
-132.064209
 20
98.914330
 42
0.823826
  0
VERTEX
  8
0
 10
-151.694427
 20
64.913795
 42
0.015765
  0
VERTEX
  8
0
 10
-155.483317
 20
55.226246
  0
POLYLINE
  8
7
  6
CONTINUOUS
 66
  1
  0
VERTEX
  8
0
 10
-162.265625
 20
-29.914327
 42
0.084286
  0
VERTEX
  8
0
 10
-152.265625
 20
-28.985849
 42
-0.016268
  0
VERTEX
  8
0
 10
-153.828125
 20
-19.023879
 42
0.726883
  0
VERTEX
  8
0
 10
-153.828125
 20
19.023879
 42
-0.016268
  0
VERTEX
  8
0
 10
-152.265625
 20
28.985849
 42
0.084286
  0
VERTEX
  8
0
 10
-162.265625
 20
29.914327
 42
0.015765
  0
VERTEX
  8
0
 10
-163.828125
 20
19.630218
 42
0.823826
  0
VERTEX
  8
0
 10
-163.828125
 20
-19.630218
 42
0.015765
  0
VERTEX
  8
0
 10
-162.265625
 20
-29.914327
  0
POLYLINE
  8
7
  6
CONTINUOUS
 66
  1
  0
VERTEX
  8
0
 10
-125.568990
 20
-107.039379
 42
0.084286
  0
VERTEX
  8
0
 10
-117.372975
 20
-101.235294
 42
-0.016268
  0
VERTEX
  8
0
 10
-123.707125
 20
-93.389225
 42
0.726883
  0
VERTEX
  8
0
 10
-142.731003
 20
-60.438900
 42
-0.016268
  0
VERTEX
  8
0
 10
-146.358824
 20
-51.030331
 42
0.084286
  0
VERTEX
  8
0
 10
-155.483317
 20
-55.226246
 42
0.015765
  0
VERTEX
  8
0
 10
-151.694427
 20
-64.913795
 42
0.823826
  0
VERTEX
  8
0
 10
-132.064209
 20
-98.914330
 42
0.015765
  0
VERTEX
  8
0
 10
-125.568990
 20
-107.039379
  0
POLYLINE
  8
7
  6
CONTINUOUS
 66
  1
  0
VERTEX
  8
0
 10
-55.226246
 20
-155.483317
 42
0.084286
  0
VERTEX
  8
0
 10
-51.030331
 20
-146.358824
 42
-0.016268
  0
VERTEX
  8
0
 10
-60.438900
 20
-142.731003
 42
0.726883
  0
VERTEX
  8
0
 10
-93.389225
 20
-123.707125
 42
-0.016268
  0
VERTEX
  8
0
 10
-101.235294
 20
-117.372975
 42
0.084286
  0
VERTEX
  8
0
 10
-107.039379
 20
-125.568990
 42
0.015765
  0
VERTEX
  8
0
 10
-98.914330
 20
-132.064209
 42
0.823826
  0
VERTEX
  8
0
 10
-64.913795
 20
-151.694427
 42
0.015765
  0
VERTEX
  8
0
 10
-55.226246
 20
-155.483317
  0
POLYLINE
  8
7
  6
CONTINUOUS
 66
  1
  0
VERTEX
  8
0
 10
29.914327
 20
-162.265625
 42
0.084286
  0
VERTEX
  8
0
 10
28.985849
 20
-152.265625
 42
-0.016268
  0
VERTEX
  8
0
 10
19.023879
 20
-153.828125
 42
0.726883
  0
VERTEX
  8
0
 10
-19.023879
 20
-153.828125
 42
-0.016268
  0
VERTEX
  8
0
 10
-28.985849
 20
-152.265625
 42
0.084286
  0
VERTEX
  8
0
 10
-29.914327
 20
-162.265625
 42
0.015765
  0
VERTEX
  8
0
 10
-19.630218
 20
-163.828125
 42
0.823826
  0
VERTEX
  8
0
 10
19.630218
 20
-163.828125
 42
0.015765
  0
VERTEX
  8
0
 10
29.914327
 20
-162.265625
  0
POLYLINE
  8
7
  6
CONTINUOUS
 66
  1
  0
VERTEX
  8
0
 10
107.039379
 20
-125.568990
 42
0.084286
  0
VERTEX
  8
0
 10
101.235294
 20
-117.372975
 42
-0.016268
  0
VERTEX
  8
0
 10
93.389225
 20
-123.707125
 42
0.726883
  0
VERTEX
  8
0
 10
60.438900
 20
-142.731003
 42
-0.016268
  0
VERTEX
  8
0
 10
51.030331
 20
-146.358824
 42
0.084286
  0
VERTEX
  8
0
 10
55.226246
 20
-155.483317
 42
0.015765
  0
VERTEX
  8
0
 10
64.913795
 20
-151.694427
 42
0.823826
  0
VERTEX
  8
0
 10
98.914330
 20
-132.064209
 42
0.015765
  0
VERTEX
  8
0
 10
107.039379
 20
-125.568990
  0
POLYLINE
  8
7
  6
CONTINUOUS
 66
  1
  0
VERTEX
  8
0
 10
155.483317
 20
-55.226246
 42
0.084286
  0
VERTEX
  8
0
 10
146.358824
 20
-51.030331
 42
-0.016268
  0
VERTEX
  8
0
 10
142.731003
 20
-60.438900
 42
0.726883
  0
VERTEX
  8
0
 10
123.707125
 20
-93.389225
 42
-0.016268
  0
VERTEX
  8
0
 10
117.372975
 20
-101.235294
 42
0.084286
  0
VERTEX
  8
0
 10
125.568990
 20
-107.039379
 42
0.015765
  0
VERTEX
  8
0
 10
132.064209
 20
-98.914330
 42
0.823826
  0
VERTEX
  8
0
 10
151.694427
 20
-64.913795
 42
0.015765
  0
VERTEX
  8
0
 10
155.483317
 20
-55.226246
  0
POLYLINE
  8
7
  6
CONTINUOUS
 66
  1
  0
VERTEX
  8
0
 10
162.265625
 20
29.914327
 42
0.084286
  0
VERTEX
  8
0
 10
152.265625
 20
28.985849
 42
-0.016268
  0
VERTEX
  8
0
 10
153.828125
 20
19.023879
 42
0.726883
  0
VERTEX
  8
0
 10
153.828125
 20
-19.023879
 42
-0.016268
  0
VERTEX
  8
0
 10
152.265625
 20
-28.985849
 42
0.084286
  0
VERTEX
  8
0
 10
162.265625
 20
-29.914327
 42
0.015765
  0
VERTEX
  8
0
 10
163.828125
 20
-19.630218
 42
0.823826
  0
VERTEX
  8
0
 10
163.828125
 20
19.630218
 42
0.015765
  0
VERTEX
  8
0
 10
162.265625
 20
29.914327
  0
POLYLINE
  8
7
  6
CONTINUOUS
 66
  1
  0
VERTEX
  8
0
 10
125.568990
 20
107.039379
 42
0.084286
  0
VERTEX
  8
0
 10
117.372975
 20
101.235294
 42
-0.016268
  0
VERTEX
  8
0
 10
123.707125
 20
93.389225
 42
0.726883
  0
VERTEX
  8
0
 10
142.731003
 20
60.438900
 42
-0.016268
  0
VERTEX
  8
0
 10
146.358824
 20
51.030331
 42
0.084286
  0
VERTEX
  8
0
 10
155.483317
 20
55.226246
 42
0.015765
  0
VERTEX
  8
0
 10
151.694427
 20
64.913795
 42
0.823826
  0
VERTEX
  8
0
 10
132.064209
 20
98.914330
 42
0.015765
  0
VERTEX
  8
0
 10
125.568990
 20
107.039379
  0
POLYLINE
  8
7
  6
CONTINUOUS
 66
  1
  0
VERTEX
  8
0
 10
55.226246
 20
155.483317
 42
0.084286
  0
VERTEX
  8
0
 10
51.030331
 20
146.358824
 42
-0.016268
  0
VERTEX
  8
0
 10
60.438900
 20
142.731003
 42
0.726883
  0
VERTEX
  8
0
 10
93.389225
 20
123.707125
 42
-0.016268
  0
VERTEX
  8
0
 10
101.235294
 20
117.372975
 42
0.084286
  0
VERTEX
  8
0
 10
107.039379
 20
125.568990
 42
0.015765
  0
VERTEX
  8
0
 10
98.914330
 20
132.064209
 42
0.823826
  0
VERTEX
  8
0
 10
64.913795
 20
151.694427
 42
0.015765
  0
VERTEX
  8
0
 10
55.226246
 20
155.483317
  0
ENDSEC
  0
EOF
