  0
SECTION
  2
HEADER
  9
$LIMMIN
 10
0.000000
 20
0.000000
  9
$LIMMAX
 10
287.000031
 20
200.000000
  9
$EXTMIN
 10
0.000000
 20
0.000000
  9
$EXTMAX
 10
287.000031
 20
200.000000
  9
$ANGBASE
 50
0.000000
  9
$ANGDIR
 70
0
  9
$INSUNITS
 70
4
  9
$DIMALT
 70
4
  9
$DIMLUNIT
 70
2
  9
$DIMASZ
 40
3.000000
  9
$DIMTXT
 40
5.000000
  9
$DIMRND
 40
0.010000
  9
$DIMEXE
 40
2.000000
  9
$DIMEXO
 40
2.000000
  9
$DIMAUNIT
 70
0
  9
$DIMADEC
 70
2
  9
$GRIDUNIT
 10
0.001000
 20
0.001000
  9
$PLIMMIN
 10
0.000000
 20
0.000000
  9
$PLIMMAX
 10
297.000000
 20
210.000000
  9
$PSVPSCALE
 40
1.000000
  0
ENDSEC
  0
SECTION
  2
TABLES
  0
TABLE
  2
LTYPE
 70
     1
  0
LTYPE
  2
CONTINUOUS
 70
    64
  3
Ausgez
 72
    65
 73
  0
 40
0.000000
  0
ENDTAB
  0
TABLE
  2
LAYER
 70
     1
  0
LAYER
  2
default
 70
    64
 39
0
 62
0
  6
CONTINUOUS
  0
LAYER
  2
border
 70
    64
 39
0
 62
0
  6
CONTINUOUS
  0
LAYER
  2
contour
 70
    64
 39
0
 62
0
  6
CONTINUOUS
  0
LAYER
  2
auxiliary
 70
    64
 39
0
 62
0
  6
CONTINUOUS
  0
LAYER
  2
dimension
 70
    64
 39
0
 62
0
  6
CONTINUOUS
  0
ENDTAB
  0
ENDSEC
  0
SECTION
  2
BLOCKS
  0
ENDSEC
  0
SECTION
  2
ENTITIES
  0
LINE
  8
border
  6
CONTINUOUS
 10
241.000031
 20
10.000061
 11
241.000031
 21
23.000046
 39
2
 62
0
  0
LINE
  8
border
  6
CONTINUOUS
 10
107.000031
 20
23.000031
 11
287.000031
 21
23.000061
 39
2
 62
0
  0
LINE
  8
border
  6
CONTINUOUS
 10
147.000031
 20
10.000061
 11
147.000031
 21
35.000031
 39
2
 62
0
  0
LINE
  8
border
  6
CONTINUOUS
 10
272.000031
 20
39.000061
 11
287.000031
 21
39.000061
 39
2
 62
0
  0
LINE
  8
border
  6
CONTINUOUS
 10
107.000031
 20
35.000023
 11
272.000031
 21
35.000061
 39
2
 62
0
  0
LINE
  8
border
  6
CONTINUOUS
 10
274.000000
 20
36.000000
 11
274.000000
 21
34.000000
 39
2
 62
0
  0
LINE
  8
border
  6
CONTINUOUS
 10
278.000000
 20
37.000000
 11
278.000000
 21
33.000000
 39
2
 62
0
  0
LINE
  8
border
  6
CONTINUOUS
 10
278.000000
 20
33.000000
 11
274.000000
 21
34.000000
 39
2
 62
0
  0
LINE
  8
border
  6
CONTINUOUS
 10
274.000000
 20
36.000000
 11
278.000000
 21
37.000000
 39
2
 62
0
  0
CIRCLE
  8
border
  6
CONTINUOUS
 10
283.000000
 20
35.000000
 40
2.000000
 39
2
 62
0
  0
CIRCLE
  8
border
  6
CONTINUOUS
 10
283.000000
 20
35.000000
 40
1.000000
 39
2
 62
0
  0
LINE
  8
border
  6
CONTINUOUS
 10
107.000031
 20
51.000015
 11
287.000031
 21
51.000061
 39
2
 62
0
  0
LINE
  8
border
  6
CONTINUOUS
 10
257.000031
 20
23.000061
 11
257.000031
 21
31.000053
 39
2
 62
0
  0
LINE
  8
border
  6
CONTINUOUS
 10
165.000031
 20
23.000031
 11
165.000031
 21
27.000031
 39
0
 62
0
  0
LINE
  8
border
  6
CONTINUOUS
 10
197.000031
 20
31.000046
 11
287.000031
 21
31.000061
 39
2
 62
0
  0
LINE
  8
border
  6
CONTINUOUS
 10
147.000031
 20
27.000031
 11
197.000031
 21
27.000046
 39
2
 62
0
  0
LINE
  8
border
  6
CONTINUOUS
 10
107.000031
 20
27.000031
 11
147.000031
 21
27.000031
 39
1
 62
0
  0
LINE
  8
border
  6
CONTINUOUS
 10
107.000031
 20
31.000023
 11
147.000031
 21
31.000031
 39
1
 62
0
  0
LINE
  8
border
  6
DASHDOT
 10
273.000000
 20
35.000000
 11
286.000000
 21
35.000000
 39
1
 62
0
  0
LINE
  8
border
  6
DASHDOT
 10
283.000000
 20
38.000000
 11
283.000000
 21
32.000000
 39
1
 62
0
  0
LINE
  8
border
  6
CONTINUOUS
 10
215.000031
 20
51.000046
 11
215.000031
 21
23.000046
 39
1
 62
0
  0
LINE
  8
border
  6
CONTINUOUS
 10
197.000031
 20
27.000046
 11
257.000031
 21
27.000061
 39
1
 62
0
  0
LINE
  8
border
  6
CONTINUOUS
 10
197.000031
 20
51.000038
 11
197.000031
 21
23.000046
 39
2
 62
0
  0
LINE
  8
border
  6
CONTINUOUS
 10
107.000031
 20
10.000061
 11
107.000031
 21
65.000023
 39
2
 62
0
  0
LINE
  8
border
  6
CONTINUOUS
 10
272.000031
 20
23.000061
 11
272.000031
 21
65.000061
 39
2
 62
0
  0
LINE
  8
border
  6
CONTINUOUS
 10
152.000031
 20
35.000031
 11
152.000031
 21
51.000031
 39
2
 62
0
  0
LINE
  8
border
  6
CONTINUOUS
 10
121.000031
 20
35.000023
 11
121.000031
 21
51.000015
 39
1
 62
0
  0
LINE
  8
border
  6
CONTINUOUS
 10
125.000031
 20
35.000031
 11
125.000031
 21
51.000015
 39
1
 62
0
  0
LINE
  8
border
  6
CONTINUOUS
 10
121.000031
 20
47.000023
 11
152.000031
 21
47.000031
 39
1
 62
0
  0
LINE
  8
border
  6
CONTINUOUS
 10
121.000031
 20
43.000023
 11
152.000031
 21
43.000031
 39
1
 62
0
  0
LINE
  8
border
  6
CONTINUOUS
 10
121.000031
 20
39.000023
 11
152.000031
 21
39.000031
 39
1
 62
0
  0
LINE
  8
border
  6
CONTINUOUS
 10
166.000031
 20
35.000031
 11
166.000031
 21
51.000031
 39
1
 62
0
  0
LINE
  8
border
  6
CONTINUOUS
 10
170.000031
 20
35.000031
 11
170.000031
 21
51.000031
 39
1
 62
0
  0
LINE
  8
border
  6
CONTINUOUS
 10
166.000031
 20
47.000031
 11
272.000031
 21
47.000061
 39
1
 62
0
  0
LINE
  8
border
  6
CONTINUOUS
 10
166.000031
 20
43.000031
 11
272.000031
 21
43.000061
 39
1
 62
0
  0
LINE
  8
border
  6
CONTINUOUS
 10
166.000031
 20
39.000031
 11
272.000031
 21
39.000061
 39
1
 62
0
  0
LINE
  8
border
  6
CONTINUOUS
 10
242.000031
 20
51.000046
 11
242.000015
 21
35.000053
 39
1
 62
0
  0
LINE
  8
border
  6
CONTINUOUS
 10
107.000031
 20
57.000015
 11
287.000031
 21
57.000061
 39
2
 62
0
  0
LINE
  8
border
  6
CONTINUOUS
 10
107.000031
 20
63.000015
 11
287.000031
 21
63.000061
 39
1
 62
0
  0
LINE
  8
border
  6
CONTINUOUS
 10
117.000031
 20
51.000015
 11
117.000031
 21
65.000023
 39
2
 62
0
  0
LINE
  8
border
  6
CONTINUOUS
 10
127.000031
 20
51.000015
 11
127.000031
 21
65.000023
 39
2
 62
0
  0
LINE
  8
border
  6
CONTINUOUS
 10
137.000031
 20
51.000015
 11
137.000031
 21
65.000023
 39
2
 62
0
  0
LINE
  8
border
  6
CONTINUOUS
 10
177.000031
 20
51.000015
 11
177.000031
 21
65.000023
 39
2
 62
0
  0
LINE
  8
border
  6
CONTINUOUS
 10
10.000000
 20
10.000000
 11
287.000031
 21
10.000061
 39
2
 62
0
  0
LINE
  8
border
  6
CONTINUOUS
 10
287.000031
 20
10.000061
 11
287.000000
 21
200.000000
 39
2
 62
0
  0
LINE
  8
border
  6
CONTINUOUS
 10
10.000000
 20
200.000000
 11
10.000000
 21
10.000000
 39
2
 62
0
  0
LINE
  8
border
  6
CONTINUOUS
 10
287.000000
 20
200.000000
 11
10.000000
 21
200.000000
 39
2
 62
0
  0
LINE
  8
contour
  6
CONTINUOUS
 10
48.000000
 20
150.000000
 11
48.000000
 21
126.000000
 39
2
 62
0
  0
LINE
  8
contour
  6
CONTINUOUS
 10
22.000000
 20
126.000000
 11
22.000000
 21
150.000000
 39
2
 62
0
  0
LINE
  8
contour
  6
CONTINUOUS
 10
22.000000
 20
150.000000
 11
20.000000
 21
148.000000
 39
2
 62
0
  0
LINE
  8
contour
  6
CONTINUOUS
 10
20.000000
 20
128.000000
 11
22.000000
 21
126.000000
 39
2
 62
0
  0
LINE
  8
contour
  6
CONTINUOUS
 10
20.000000
 20
128.000000
 11
20.000000
 21
148.000000
 39
2
 62
0
  0
LINE
  8
contour
  6
CONTINUOUS
 10
50.000000
 20
138.000000
 11
76.000000
 21
138.000000
 39
2
 62
0
  0
LINE
  8
contour
  6
CONTINUOUS
 10
50.000000
 20
125.000000
 11
76.000000
 21
125.000000
 39
2
 62
0
  0
LINE
  8
contour
  6
CONTINUOUS
 10
76.000000
 20
156.000000
 11
88.000000
 21
168.000000
 39
2
 62
0
  0
LINE
  8
contour
  6
CONTINUOUS
 10
50.000000
 20
168.000000
 11
72.000000
 21
190.000000
 39
2
 62
0
  0
LINE
  8
contour
  6
CONTINUOUS
 10
76.000000
 20
156.000000
 11
76.000000
 21
93.000000
 39
2
 62
0
  0
LINE
  8
contour
  6
CONTINUOUS
 10
50.000000
 20
168.000000
 11
50.000000
 21
120.000000
 39
2
 62
0
  0
LINE
  8
contour
  6
CONTINUOUS
 10
50.000000
 20
120.000000
 11
63.000000
 21
107.000000
 39
2
 62
0
  0
LINE
  8
contour
  6
CONTINUOUS
 10
63.000000
 20
68.000000
 11
88.000000
 21
68.000000
 39
2
 62
0
  0
LINE
  8
contour
  6
CONTINUOUS
 10
63.000000
 20
68.000000
 11
63.000000
 21
107.000000
 39
2
 62
0
  0
LINE
  8
contour
  6
CONTINUOUS
 10
88.000000
 20
93.000000
 11
88.000000
 21
68.000000
 39
2
 62
0
  0
LINE
  8
auxiliary
  6
DASHDOT
 10
91.000000
 20
81.000000
 11
60.000000
 21
81.000000
 39
1
 62
12
  0
LINE
  8
contour
  6
CONTINUOUS
 10
76.000000
 20
93.000000
 11
276.000000
 21
93.000000
 39
2
 62
0
  0
LINE
  8
contour
  6
CONTINUOUS
 10
88.000000
 20
168.000000
 11
88.000000
 21
172.000000
 39
2
 62
0
  0
LINE
  8
auxiliary
  6
DASHDOT
 10
93.000000
 20
182.000000
 11
66.000000
 21
182.000000
 39
1
 62
12
  0
LINE
  8
contour
  6
DASH
 10
88.000000
 20
85.500000
 11
63.000000
 21
85.500000
 39
2
 62
0
  0
LINE
  8
contour
  6
DASH
 10
88.000000
 20
76.500000
 11
63.000000
 21
76.500000
 39
2
 62
0
  0
LINE
  8
contour
  6
CONTINUOUS
 10
63.000000
 20
69.000000
 11
88.000000
 21
69.000000
 39
2
 62
0
  0
LINE
  8
contour
  6
CONTINUOUS
 10
90.000000
 20
172.000000
 11
90.000000
 21
192.000000
 39
2
 62
0
  0
LINE
  8
contour
  6
CONTINUOUS
 10
79.500000
 20
192.000000
 11
78.000000
 21
190.500000
 39
2
 62
0
  0
LINE
  8
contour
  6
CONTINUOUS
 10
79.500000
 20
192.000000
 11
90.000000
 21
192.000000
 39
2
 62
0
  0
LINE
  8
contour
  6
CONTINUOUS
 10
78.000000
 20
173.500000
 11
79.500000
 21
172.000000
 39
2
 62
0
  0
LINE
  8
contour
  6
CONTINUOUS
 10
78.000000
 20
172.000000
 11
78.000000
 21
190.500000
 39
2
 62
0
  0
LINE
  8
contour
  6
CONTINUOUS
 10
78.000000
 20
172.000000
 11
90.000000
 21
172.000000
 39
2
 62
0
  0
LINE
  8
contour
  6
DASH
 10
90.000000
 20
187.000000
 11
85.000000
 21
187.000000
 39
1
 62
0
  0
LINE
  8
contour
  6
DASH
 10
90.000000
 20
177.000000
 11
85.000000
 21
177.000000
 39
1
 62
0
  0
LINE
  8
contour
  6
DASH
 10
85.000000
 20
177.000000
 11
85.000000
 21
187.000000
 39
1
 62
0
  0
LINE
  8
contour
  6
DASH
 10
71.000000
 20
179.500000
 11
71.000000
 21
184.500000
 39
1
 62
0
  0
LINE
  8
contour
  6
DASH
 10
85.000000
 20
179.500000
 11
71.000000
 21
179.500000
 39
1
 62
0
  0
LINE
  8
contour
  6
DASH
 10
85.000000
 20
184.500000
 11
71.000000
 21
184.500000
 39
1
 62
0
  0
LINE
  8
contour
  6
DASH
 10
69.000000
 20
180.000000
 11
69.000000
 21
184.000000
 39
1
 62
0
  0
LINE
  8
contour
  6
DASH
 10
69.000000
 20
184.000000
 11
68.000000
 21
182.000000
 39
1
 62
0
  0
LINE
  8
contour
  6
DASH
 10
68.000000
 20
182.000000
 11
69.000000
 21
180.000000
 39
1
 62
0
  0
LINE
  8
contour
  6
CONTINUOUS
 10
276.000000
 20
121.000000
 11
276.000000
 21
93.000000
 39
2
 62
0
  0
LINE
  8
contour
  6
CONTINUOUS
 10
50.000000
 20
168.000000
 11
88.000000
 21
168.000000
 39
2
 62
0
  0
LINE
  8
contour
  6
CONTINUOUS
 10
50.000000
 20
156.000000
 11
75.999999
 21
156.000000
 39
2
 62
0
  0
LINE
  8
contour
  6
CONTINUOUS
 10
168.000000
 20
156.000000
 11
203.000000
 21
156.000000
 39
2
 62
0
  0
LINE
  8
contour
  6
CONTINUOUS
 10
72.000000
 20
190.000000
 11
78.000000
 21
190.000000
 39
2
 62
0
  0
LINE
  8
contour
  6
CONTINUOUS
 10
154.000000
 20
172.000000
 11
154.000000
 21
192.000000
 39
2
 62
0
  0
LINE
  8
contour
  6
CONTINUOUS
 10
164.500000
 20
192.000000
 11
165.999992
 21
190.500000
 39
2
 62
0
  0
LINE
  8
contour
  6
CONTINUOUS
 10
164.500000
 20
192.000000
 11
154.000000
 21
192.000000
 39
2
 62
0
  0
LINE
  8
contour
  6
CONTINUOUS
 10
165.999992
 20
173.500000
 11
164.500000
 21
172.000000
 39
2
 62
0
  0
LINE
  8
contour
  6
CONTINUOUS
 10
166.000000
 20
172.000000
 11
165.999992
 21
190.500000
 39
2
 62
0
  0
LINE
  8
contour
  6
CONTINUOUS
 10
166.000000
 20
172.000000
 11
154.000000
 21
172.000000
 39
2
 62
0
  0
LINE
  8
contour
  6
DASH
 10
154.000000
 20
187.000000
 11
159.000000
 21
187.000000
 39
1
 62
0
  0
LINE
  8
contour
  6
DASH
 10
154.000000
 20
177.000000
 11
159.000000
 21
177.000000
 39
1
 62
0
  0
LINE
  8
contour
  6
DASH
 10
159.000000
 20
177.000000
 11
159.000000
 21
187.000000
 39
1
 62
0
  0
LINE
  8
contour
  6
CONTINUOUS
 10
165.999992
 20
190.000000
 11
169.000000
 21
190.000000
 39
2
 62
0
  0
LINE
  8
contour
  6
CONTINUOUS
 10
156.000000
 20
168.000000
 11
191.000000
 21
168.000000
 39
2
 62
0
  0
LINE
  8
contour
  6
DASH
 10
76.000000
 20
120.000000
 11
168.000000
 21
120.000002
 39
2
 62
0
  0
LINE
  8
contour
  6
DASH
 10
226.000000
 20
120.000000
 11
276.000000
 21
120.000000
 39
2
 62
0
  0
LINE
  8
contour
  6
CONTINUOUS
 10
226.000000
 20
121.000000
 11
276.000000
 21
121.000000
 39
2
 62
0
  0
LINE
  8
contour
  6
CONTINUOUS
 10
76.000000
 20
121.000000
 11
168.000000
 21
121.000000
 39
2
 62
0
  0
LINE
  8
contour
  6
DASH
 10
171.999992
 20
179.500000
 11
172.000000
 21
184.500000
 39
1
 62
0
  0
LINE
  8
contour
  6
DASH
 10
159.000000
 20
179.500000
 11
171.999992
 21
179.500000
 39
1
 62
0
  0
LINE
  8
contour
  6
DASH
 10
159.000000
 20
184.500000
 11
172.000000
 21
184.500000
 39
1
 62
0
  0
LINE
  8
contour
  6
DASH
 10
174.000000
 20
180.000000
 11
174.000000
 21
184.000000
 39
1
 62
0
  0
LINE
  8
contour
  6
DASH
 10
174.000000
 20
184.000000
 11
175.000000
 21
182.000000
 39
1
 62
0
  0
LINE
  8
contour
  6
DASH
 10
175.000000
 20
182.000000
 11
174.000000
 21
180.000000
 39
1
 62
0
  0
LINE
  8
contour
  6
DASH
 10
159.000000
 20
184.000000
 11
174.000000
 21
184.000000
 39
1
 62
0
  0
LINE
  8
contour
  6
DASH
 10
159.000000
 20
180.000000
 11
174.000000
 21
180.000000
 39
1
 62
0
  0
LINE
  8
contour
  6
DASH
 10
85.000000
 20
184.000000
 11
69.000000
 21
184.000000
 39
1
 62
0
  0
LINE
  8
contour
  6
DASH
 10
85.000000
 20
180.000000
 11
69.000000
 21
180.000000
 39
1
 62
0
  0
LINE
  8
contour
  6
DASH
 10
173.000000
 20
94.000000
 11
173.000000
 21
99.000000
 39
1
 62
0
  0
LINE
  8
contour
  6
DASH
 10
183.000000
 20
94.000000
 11
183.000000
 21
99.000000
 39
1
 62
0
  0
LINE
  8
contour
  6
DASH
 10
183.000000
 20
99.000000
 11
173.000000
 21
99.000000
 39
1
 62
0
  0
LINE
  8
contour
  6
DASH
 10
180.500000
 20
111.999992
 11
175.500000
 21
112.000000
 39
1
 62
0
  0
LINE
  8
contour
  6
DASH
 10
180.500000
 20
99.000000
 11
180.500000
 21
111.999992
 39
1
 62
0
  0
LINE
  8
contour
  6
DASH
 10
175.500000
 20
99.000000
 11
175.500000
 21
112.000000
 39
1
 62
0
  0
LINE
  8
contour
  6
DASH
 10
180.000000
 20
114.000000
 11
176.000000
 21
114.000000
 39
1
 62
0
  0
LINE
  8
contour
  6
DASH
 10
176.000000
 20
114.000000
 11
178.000000
 21
115.000000
 39
1
 62
0
  0
LINE
  8
contour
  6
DASH
 10
178.000000
 20
115.000000
 11
180.000000
 21
114.000000
 39
1
 62
0
  0
LINE
  8
contour
  6
DASH
 10
176.000000
 20
99.000000
 11
176.000000
 21
114.000000
 39
1
 62
0
  0
LINE
  8
contour
  6
DASH
 10
180.000000
 20
99.000000
 11
180.000000
 21
114.000000
 39
1
 62
0
  0
LINE
  8
contour
  6
DASH
 10
211.000000
 20
94.000000
 11
211.000000
 21
99.000000
 39
1
 62
0
  0
LINE
  8
contour
  6
DASH
 10
221.000000
 20
94.000000
 11
221.000000
 21
99.000000
 39
1
 62
0
  0
LINE
  8
contour
  6
DASH
 10
221.000000
 20
99.000000
 11
211.000000
 21
99.000000
 39
1
 62
0
  0
LINE
  8
contour
  6
DASH
 10
218.500000
 20
111.999992
 11
213.500000
 21
112.000000
 39
1
 62
0
  0
LINE
  8
contour
  6
DASH
 10
218.500000
 20
99.000000
 11
218.500000
 21
111.999992
 39
1
 62
0
  0
LINE
  8
contour
  6
DASH
 10
213.500000
 20
99.000000
 11
213.500000
 21
112.000000
 39
1
 62
0
  0
LINE
  8
contour
  6
DASH
 10
218.000000
 20
114.000000
 11
214.000000
 21
114.000000
 39
1
 62
0
  0
LINE
  8
contour
  6
DASH
 10
214.000000
 20
114.000000
 11
216.000000
 21
115.000000
 39
1
 62
0
  0
LINE
  8
contour
  6
DASH
 10
216.000000
 20
115.000000
 11
218.000000
 21
114.000000
 39
1
 62
0
  0
LINE
  8
contour
  6
DASH
 10
214.000000
 20
99.000000
 11
214.000000
 21
114.000000
 39
1
 62
0
  0
LINE
  8
contour
  6
DASH
 10
218.000000
 20
99.000000
 11
218.000000
 21
114.000000
 39
1
 62
0
  0
LINE
  8
contour
  6
CONTINUOUS
 10
168.000000
 20
156.000000
 11
168.000000
 21
94.000000
 39
2
 62
0
  0
LINE
  8
contour
  6
CONTINUOUS
 10
168.000000
 20
94.000000
 11
226.000000
 21
94.000000
 39
2
 62
0
  0
LINE
  8
contour
  6
CONTINUOUS
 10
168.000000
 20
122.999998
 11
226.000000
 21
122.999998
 39
2
 62
0
  0
LINE
  8
contour
  6
CONTINUOUS
 10
168.000000
 20
156.000000
 11
156.000000
 21
168.000000
 39
2
 62
0
  0
ARC
  8
contour
  6
CONTINUOUS
 10
203.000000
 20
164.000000
 40
8.000000
 50
180.000000
 51
262.875000
 39
2
 62
0
  0
LINE
  8
contour
  6
CONTINUOUS
 10
195.000000
 20
164.000000
 11
169.000000
 21
190.000000
 39
2
 62
0
  0
LINE
  8
contour
  6
CONTINUOUS
 10
156.000000
 20
168.000000
 11
156.000000
 21
172.000000
 39
2
 62
0
  0
LINE
  8
contour
  6
CONTINUOUS
 10
203.000000
 20
157.000000
 11
203.000000
 21
163.000000
 39
0
 62
0
  0
LINE
  8
contour
  6
CONTINUOUS
 10
76.000000
 20
111.000000
 11
168.000000
 21
110.999998
 39
2
 62
0
  0
LINE
  8
contour
  6
CONTINUOUS
 10
226.000000
 20
111.000000
 11
276.000000
 21
111.000000
 39
2
 62
0
  0
LINE
  8
contour
  6
CONTINUOUS
 10
226.000000
 20
103.000000
 11
276.000000
 21
103.000000
 39
2
 62
0
  0
LINE
  8
contour
  6
CONTINUOUS
 10
76.000000
 20
103.000000
 11
226.000000
 21
103.000000
 39
2
 62
0
  0
LINE
  8
contour
  6
DASH
 10
50.000000
 20
128.000000
 11
58.000000
 21
128.000001
 39
2
 62
0
  0
LINE
  8
contour
  6
DASH
 10
58.000000
 20
148.000000
 11
58.000000
 21
128.000001
 39
2
 62
0
  0
LINE
  8
contour
  6
DASH
 10
50.000000
 20
148.000000
 11
58.000000
 21
148.000000
 39
2
 62
0
  0
LINE
  8
contour
  6
DASH
 10
58.000000
 20
144.000000
 11
76.000000
 21
144.000000
 39
2
 62
0
  0
LINE
  8
contour
  6
DASH
 10
58.000000
 20
132.000000
 11
76.000000
 21
132.000000
 39
2
 62
0
  0
LINE
  8
contour
  6
DASH
 10
50.000000
 20
147.500000
 11
58.000000
 21
147.500000
 39
2
 62
0
  0
LINE
  8
contour
  6
DASH
 10
50.000000
 20
128.499999
 11
58.000000
 21
128.500000
 39
2
 62
0
  0
LINE
  8
contour
  6
CONTINUOUS
 10
48.000000
 20
144.000000
 11
50.000000
 21
144.000000
 39
2
 62
0
  0
LINE
  8
contour
  6
CONTINUOUS
 10
48.000000
 20
132.000000
 11
50.000000
 21
132.000000
 39
2
 62
0
  0
LINE
  8
contour
  6
CONTINUOUS
 10
112.000000
 20
144.000000
 11
112.000000
 21
132.000000
 39
2
 62
0
  0
LINE
  8
contour
  6
CONTINUOUS
 10
102.000000
 20
144.000000
 11
102.000000
 21
132.000000
 39
2
 62
0
  0
ARC
  8
contour
  6
CONTINUOUS
 10
104.000002
 20
144.000000
 40
2.000000
 50
180.000000
 51
270.000000
 39
2
 62
0
  0
ARC
  8
contour
  6
CONTINUOUS
 10
104.000000
 20
132.000000
 40
2.000000
 50
90.000000
 51
180.000000
 39
2
 62
0
  0
ARC
  8
contour
  6
CONTINUOUS
 10
110.000000
 20
132.000000
 40
2.000000
 50
0.000000
 51
90.000000
 39
2
 62
0
  0
ARC
  8
contour
  6
CONTINUOUS
 10
110.000004
 20
144.000000
 40
2.000000
 50
270.000000
 51
0.000000
 39
2
 62
0
  0
LINE
  8
contour
  6
CONTINUOUS
 10
104.000000
 20
141.000000
 11
104.000000
 21
135.000000
 39
0
 62
0
  0
LINE
  8
contour
  6
CONTINUOUS
 10
110.000000
 20
141.000000
 11
110.000000
 21
135.000000
 39
0
 62
0
  0
LINE
  8
contour
  6
CONTINUOUS
 10
104.000002
 20
142.000000
 11
110.000004
 21
142.000000
 39
2
 62
0
  0
LINE
  8
contour
  6
CONTINUOUS
 10
104.000000
 20
134.000000
 11
110.000000
 21
134.000000
 39
2
 62
0
  0
LINE
  8
contour
  6
CONTINUOUS
 10
110.000004
 20
142.000000
 11
168.000000
 21
142.000000
 39
1
 62
0
  0
LINE
  8
contour
  6
CONTINUOUS
 10
110.000000
 20
134.000000
 11
168.000000
 21
134.000000
 39
1
 62
0
  0
LINE
  8
contour
  6
CONTINUOUS
 10
226.000000
 20
142.000000
 11
276.000000
 21
142.000000
 39
1
 62
0
  0
LINE
  8
contour
  6
CONTINUOUS
 10
226.000000
 20
134.000000
 11
276.000000
 21
134.000000
 39
1
 62
0
  0
LINE
  8
contour
  6
DASH
 10
168.000000
 20
144.000000
 11
226.000000
 21
144.000000
 39
2
 62
0
  0
LINE
  8
contour
  6
DASH
 10
168.000000
 20
142.000000
 11
226.000000
 21
142.000000
 39
1
 62
0
  0
LINE
  8
contour
  6
DASH
 10
168.000000
 20
134.000000
 11
226.000000
 21
134.000000
 39
1
 62
0
  0
LINE
  8
contour
  6
DASH
 10
168.000000
 20
132.000000
 11
226.000000
 21
132.000000
 39
2
 62
0
  0
LINE
  8
contour
  6
CONTINUOUS
 10
168.000000
 20
138.000000
 11
226.000000
 21
138.000000
 39
2
 62
0
  0
LINE
  8
contour
  6
CONTINUOUS
 10
112.000000
 20
144.000000
 11
168.000000
 21
144.000000
 39
2
 62
0
  0
LINE
  8
contour
  6
CONTINUOUS
 10
76.000000
 20
144.000000
 11
102.000000
 21
144.000000
 39
2
 62
0
  0
LINE
  8
contour
  6
CONTINUOUS
 10
76.000000
 20
132.000000
 11
102.000000
 21
132.000000
 39
2
 62
0
  0
LINE
  8
contour
  6
CONTINUOUS
 10
112.000000
 20
132.000000
 11
168.000000
 21
132.000000
 39
2
 62
0
  0
LINE
  8
contour
  6
CONTINUOUS
 10
276.000000
 20
142.000000
 11
276.000000
 21
134.000000
 39
2
 62
0
  0
LINE
  8
contour
  6
CONTINUOUS
 10
274.000000
 20
132.000000
 11
276.000000
 21
134.000000
 39
2
 62
0
  0
LINE
  8
contour
  6
CONTINUOUS
 10
276.000000
 20
142.000000
 11
274.000000
 21
144.000000
 39
2
 62
0
  0
LINE
  8
contour
  6
CONTINUOUS
 10
274.000000
 20
144.000000
 11
274.000000
 21
132.000000
 39
2
 62
0
  0
LINE
  8
contour
  6
CONTINUOUS
 10
226.000000
 20
144.000000
 11
274.000000
 21
144.000000
 39
2
 62
0
  0
LINE
  8
contour
  6
CONTINUOUS
 10
226.000000
 20
132.000000
 11
274.000000
 21
132.000000
 39
2
 62
0
  0
LINE
  8
contour
  6
DASH
 10
154.000000
 20
186.500000
 11
159.000000
 21
186.500000
 39
1
 62
0
  0
LINE
  8
contour
  6
DASH
 10
154.000000
 20
177.500000
 11
159.000000
 21
177.500000
 39
1
 62
0
  0
LINE
  8
contour
  6
DASH
 10
159.000000
 20
185.000000
 11
165.999992
 21
185.000000
 39
1
 62
0
  0
LINE
  8
contour
  6
DASH
 10
159.000000
 20
179.000000
 11
166.000000
 21
179.000000
 39
1
 62
0
  0
LINE
  8
contour
  6
DASH
 10
90.000000
 20
186.500000
 11
85.000000
 21
186.500000
 39
1
 62
0
  0
LINE
  8
contour
  6
DASH
 10
90.000000
 20
177.500000
 11
85.000000
 21
177.500000
 39
1
 62
0
  0
LINE
  8
contour
  6
DASH
 10
85.000000
 20
179.000000
 11
78.000000
 21
179.000000
 39
1
 62
0
  0
LINE
  8
contour
  6
DASH
 10
85.000000
 20
185.000000
 11
78.000000
 21
185.000000
 39
1
 62
0
  0
LINE
  8
contour
  6
DASH
 10
173.500000
 20
94.000000
 11
173.500000
 21
99.000000
 39
1
 62
0
  0
LINE
  8
contour
  6
DASH
 10
182.500000
 20
94.000000
 11
182.500000
 21
99.000000
 39
1
 62
0
  0
LINE
  8
contour
  6
DASH
 10
211.500000
 20
94.000000
 11
211.500000
 21
99.000000
 39
1
 62
0
  0
LINE
  8
contour
  6
DASH
 10
220.500000
 20
94.000000
 11
220.500000
 21
99.000000
 39
1
 62
0
  0
LINE
  8
contour
  6
CONTINUOUS
 10
214.000000
 20
164.000000
 11
226.000000
 21
152.000000
 39
2
 62
0
  0
LINE
  8
contour
  6
CONTINUOUS
 10
195.000000
 20
164.000000
 11
214.000000
 21
164.000000
 39
2
 62
0
  0
LINE
  8
contour
  6
CONTINUOUS
 10
226.000000
 20
152.000000
 11
226.000000
 21
94.000000
 39
2
 62
0
  0
LINE
  8
contour
  6
DASH
 10
58.000000
 20
112.000000
 11
68.000000
 21
111.999998
 39
2
 62
0
  0
LINE
  8
contour
  6
DASH
 10
68.000000
 20
110.000000
 11
76.000000
 21
110.000000
 39
2
 62
0
  0
LINE
  8
contour
  6
DASH
 10
68.000000
 20
104.000000
 11
76.000000
 21
104.000000
 39
2
 62
0
  0
LINE
  8
contour
  6
DASH
 10
68.000000
 20
111.999998
 11
68.000000
 21
102.000000
 39
2
 62
0
  0
LINE
  8
contour
  6
DASH
 10
63.000000
 20
102.000000
 11
68.000000
 21
102.000000
 39
2
 62
0
  0
LINE
  8
contour
  6
DASH
 10
63.000000
 20
102.750000
 11
68.000000
 21
102.750000
 39
2
 62
0
  0
LINE
  8
contour
  6
CONTINUOUS
 10
62.000000
 20
103.250000
 11
62.500000
 21
102.750000
 39
2
 62
0
  0
LINE
  8
contour
  6
CONTINUOUS
 10
62.000000
 20
108.000000
 11
62.000000
 21
103.250000
 39
2
 62
0
  0
LINE
  8
contour
  6
CONTINUOUS
 10
62.500000
 20
102.750000
 11
63.000000
 21
102.750000
 39
2
 62
0
  0
LINE
  8
contour
  6
DASH
 10
62.000000
 20
110.750000
 11
62.000000
 21
108.000000
 39
2
 62
0
  0
LINE
  8
contour
  6
DASH
 10
62.500000
 20
111.250000
 11
68.000000
 21
111.249998
 39
2
 62
0
  0
LINE
  8
contour
  6
DASH
 10
62.000000
 20
110.750000
 11
62.500000
 21
111.250000
 39
2
 62
0
  0
LINE
  8
contour
  6
DASH
 10
86.000000
 20
107.000000
 11
84.599999
 21
109.500000
 39
1
 62
0
  0
LINE
  8
contour
  6
DASH
 10
84.599999
 20
109.500000
 11
84.599999
 21
104.500000
 39
1
 62
0
  0
LINE
  8
contour
  6
DASH
 10
84.599999
 20
104.500000
 11
86.000000
 21
107.000000
 39
1
 62
0
  0
LINE
  8
contour
  6
DASH
 10
68.000000
 20
109.000000
 11
84.599999
 21
109.000000
 39
1
 62
0
  0
LINE
  8
contour
  6
DASH
 10
68.000000
 20
109.500000
 11
84.599999
 21
109.500000
 39
1
 62
0
  0
LINE
  8
contour
  6
DASH
 10
68.000000
 20
105.000000
 11
84.599999
 21
105.000000
 39
1
 62
0
  0
LINE
  8
contour
  6
DASH
 10
68.000000
 20
104.500000
 11
84.599999
 21
104.500000
 39
1
 62
0
  0
LINE
  8
auxiliary
  6
DASHDOT
 10
151.000000
 20
182.000000
 11
178.000000
 21
182.000000
 39
1
 62
12
  0
LINE
  8
auxiliary
  6
DASHDOT
 10
178.000000
 20
91.000000
 11
178.000000
 21
118.000000
 39
1
 62
12
  0
LINE
  8
auxiliary
  6
DASHDOT
 10
216.000000
 20
91.000000
 11
216.000000
 21
118.000000
 39
1
 62
12
  0
LINE
  8
auxiliary
  6
DASHDOT
 10
60.000000
 20
107.000000
 11
88.000000
 21
107.000000
 39
1
 62
12
  0
LINE
  8
contour
  6
CONTINUOUS
 10
22.000000
 20
150.000000
 11
30.000000
 21
150.000000
 39
2
 62
0
  0
LINE
  8
contour
  6
CONTINUOUS
 10
30.000000
 20
126.000000
 11
22.000000
 21
126.000000
 39
2
 62
0
  0
LINE
  8
contour
  6
CONTINUOUS
 10
48.000000
 20
126.000000
 11
40.000000
 21
126.000000
 39
2
 62
0
  0
LINE
  8
contour
  6
CONTINUOUS
 10
40.000000
 20
150.000000
 11
48.000000
 21
150.000000
 39
2
 62
0
  0
LINE
  8
contour
  6
CONTINUOUS
 10
30.500000
 20
24.000000
 11
39.500000
 21
24.000000
 39
2
 62
0
  0
LINE
  8
contour
  6
CONTINUOUS
 10
30.500000
 20
150.000000
 11
39.500000
 21
150.000000
 39
2
 62
0
  0
LINE
  8
contour
  6
DASH
 10
32.000000
 20
24.000000
 11
32.500000
 21
24.500000
 39
2
 62
0
  0
LINE
  8
contour
  6
DASH
 10
37.500000
 20
24.500000
 11
38.000000
 21
24.000000
 39
2
 62
0
  0
LINE
  8
contour
  6
DASH
 10
266.000000
 20
115.000000
 11
256.000000
 21
115.000000
 39
2
 62
0
  0
LINE
  8
contour
  6
CONTINUOUS
 10
262.000000
 20
121.000000
 11
257.250000
 21
121.000000
 39
2
 62
0
  0
LINE
  8
contour
  6
DASH
 10
264.750000
 20
121.000000
 11
262.000000
 21
121.000000
 39
2
 62
0
  0
LINE
  8
contour
  6
DASH
 10
266.000000
 20
121.000000
 11
266.000000
 21
115.000000
 39
2
 62
0
  0
LINE
  8
contour
  6
DASH
 10
256.000000
 20
121.000000
 11
256.000000
 21
115.000000
 39
2
 62
0
  0
LINE
  8
contour
  6
DASH
 10
258.000000
 20
115.000000
 11
258.000000
 21
93.000000
 39
2
 62
0
  0
LINE
  8
contour
  6
DASH
 10
264.000000
 20
115.000000
 11
264.000000
 21
93.000000
 39
2
 62
0
  0
LINE
  8
auxiliary
  6
DASHDOT
 10
261.000000
 20
124.000000
 11
261.000000
 21
90.000000
 39
1
 62
12
  0
LINE
  8
contour
  6
DASH
 10
175.000000
 20
99.000000
 11
174.999992
 21
103.000000
 39
1
 62
0
  0
LINE
  8
contour
  6
DASH
 10
181.000000
 20
99.000000
 11
181.000000
 21
103.000000
 39
1
 62
0
  0
LINE
  8
contour
  6
DASH
 10
213.000000
 20
99.000000
 11
213.000000
 21
103.000000
 39
1
 62
0
  0
LINE
  8
contour
  6
DASH
 10
219.000000
 20
99.000000
 11
219.000000
 21
103.000000
 39
1
 62
0
  0
LINE
  8
contour
  6
DASH
 10
30.000000
 20
150.000000
 11
30.000000
 21
126.000000
 39
2
 62
0
  0
LINE
  8
contour
  6
DASH
 10
40.000000
 20
150.000000
 11
40.000000
 21
126.000000
 39
2
 62
0
  0
ARC
  8
contour
  6
CONTINUOUS
 10
35.000000
 20
114.000004
 40
12.999996
 50
67.380127
 51
112.619873
 39
2
 62
0
  0
ARC
  8
contour
  6
CONTINUOUS
 10
35.000000
 20
161.999996
 40
12.999996
 50
247.380127
 51
292.619873
 39
2
 62
0
  0
ARC
  8
contour
  6
CONTINUOUS
 10
30.500000
 20
27.000000
 40
3.000000
 50
90.000000
 51
270.000000
 39
2
 62
0
  0
ARC
  8
contour
  6
CONTINUOUS
 10
39.500000
 20
27.000000
 40
3.000000
 50
270.000000
 51
90.000000
 39
2
 62
0
  0
LINE
  8
contour
  6
CONTINUOUS
 10
30.500000
 20
30.000000
 11
39.500000
 21
30.000000
 39
2
 62
0
  0
LINE
  8
contour
  6
CONTINUOUS
 10
30.500000
 20
150.000000
 11
30.500000
 21
30.000000
 39
2
 62
0
  0
LINE
  8
contour
  6
CONTINUOUS
 10
39.500000
 20
150.000000
 11
39.500000
 21
30.000000
 39
2
 62
0
  0
ARC
  8
contour
  6
CONTINUOUS
 10
30.500000
 20
153.000000
 40
3.000000
 50
90.000000
 51
270.000000
 39
2
 62
0
  0
ARC
  8
contour
  6
CONTINUOUS
 10
39.500000
 20
153.000000
 40
3.000000
 50
270.000000
 51
90.000000
 39
2
 62
0
  0
LINE
  8
contour
  6
CONTINUOUS
 10
30.500000
 20
156.000000
 11
39.500000
 21
156.000000
 39
2
 62
0
  0
LINE
  8
contour
  6
DASH
 10
38.000000
 20
30.000000
 11
38.000000
 21
24.000000
 39
2
 62
0
  0
LINE
  8
contour
  6
DASH
 10
32.000000
 20
30.000000
 11
32.000000
 21
24.000000
 39
2
 62
0
  0
LINE
  8
contour
  6
DASH
 10
32.500000
 20
24.500000
 11
37.500000
 21
24.500000
 39
2
 62
0
  0
LINE
  8
contour
  6
DASH
 10
32.500000
 20
30.000000
 11
32.500000
 21
24.500000
 39
2
 62
0
  0
LINE
  8
contour
  6
DASH
 10
37.500000
 20
30.000000
 11
37.500000
 21
24.500000
 39
2
 62
0
  0
LINE
  8
auxiliary
  6
DASHDOT
 10
16.000000
 20
138.000000
 11
280.000000
 21
138.000000
 39
1
 62
12
  0
LINE
  8
auxiliary
  6
DASHDOT
 10
35.000000
 20
159.000000
 11
35.000000
 21
21.000000
 39
1
 62
12
  0
ARC
  8
border
  6
CONTINUOUS
 10
246.491059
 20
17.131872
 40
0.697756
 50
351.164215
 51
90.000000
 39
2
 62
0
  0
LINE
  8
border
  6
CONTINUOUS
 10
247.180519
 20
17.024694
 11
247.041731
 21
16.506667
 39
2
 62
0
  0
ARC
  8
border
  6
CONTINUOUS
 10
245.959883
 20
16.796550
 40
1.120006
 50
276.215851
 51
345.000000
 39
2
 62
0
  0
LINE
  8
border
  6
CONTINUOUS
 10
246.081174
 20
15.683128
 11
245.616526
 21
15.683128
 39
2
 62
0
  0
ARC
  8
border
  6
CONTINUOUS
 10
245.616526
 20
14.572017
 40
1.111111
 50
90.000000
 51
165.000000
 39
2
 62
0
  0
LINE
  8
border
  6
CONTINUOUS
 10
244.543258
 20
14.859583
 11
244.279246
 21
13.874178
 39
2
 62
0
  0
ARC
  8
border
  6
CONTINUOUS
 10
244.950023
 20
13.694450
 40
0.694450
 50
165.000000
 51
270.000000
 39
2
 62
0
  0
LINE
  8
border
  6
CONTINUOUS
 10
244.950023
 20
13.000000
 11
245.414636
 21
13.000000
 39
2
 62
0
  0
ARC
  8
border
  6
CONTINUOUS
 10
245.414636
 20
14.111111
 40
1.111111
 50
270.000000
 51
345.000000
 39
2
 62
0
  0
LINE
  8
border
  6
CONTINUOUS
 10
246.487905
 20
13.823544
 11
246.751950
 21
14.808950
 39
2
 62
0
  0
ARC
  8
border
  6
CONTINUOUS
 10
246.081140
 20
14.988678
 40
0.694450
 50
345.000000
 51
90.000000
 39
2
 62
0
  0
LINE
  8
border
  6
CONTINUOUS
 10
246.081174
 20
15.683128
 11
245.781627
 21
15.683128
 39
2
 62
0
  0
ARC
  8
border
  6
CONTINUOUS
 10
245.781627
 20
16.377567
 40
0.694439
 50
165.000000
 51
270.000000
 39
2
 62
0
  0
LINE
  8
border
  6
CONTINUOUS
 10
245.110850
 20
16.557306
 11
245.230920
 21
17.006083
 39
2
 62
0
  0
ARC
  8
border
  6
CONTINUOUS
 10
246.303816
 20
16.719000
 40
1.110628
 50
90.000000
 51
165.000000
 39
2
 62
0
  0
LINE
  8
border
  6
CONTINUOUS
 10
246.304189
 20
17.829628
 11
246.491059
 21
17.829633
 39
2
 62
0
  0
LINE
  8
border
  6
CONTINUOUS
 10
251.195352
 20
16.756378
 11
252.594040
 21
17.829633
 39
2
 62
0
  0
LINE
  8
border
  6
CONTINUOUS
 10
252.594040
 20
17.829633
 11
251.299925
 21
13.000000
 39
2
 62
0
  0
ARC
  8
border
  6
CONTINUOUS
 10
257.668558
 20
13.993878
 40
4.161389
 50
112.816887
 51
165.000000
 39
2
 62
0
  0
LINE
  8
border
  6
CONTINUOUS
 10
253.648951
 20
15.070917
 11
253.328280
 21
13.874183
 39
2
 62
0
  0
ARC
  8
border
  6
CONTINUOUS
 10
253.999056
 20
13.694450
 40
0.694444
 50
165.000000
 51
270.000000
 39
2
 62
0
  0
LINE
  8
border
  6
CONTINUOUS
 10
253.999056
 20
13.000006
 11
254.411247
 21
13.000006
 39
2
 62
0
  0
ARC
  8
border
  6
CONTINUOUS
 10
254.411247
 20
14.179456
 40
1.179450
 50
270.000000
 51
345.000000
 39
2
 62
0
  0
LINE
  8
border
  6
CONTINUOUS
 10
255.550502
 20
13.874189
 11
255.800950
 21
14.808956
 39
2
 62
0
  0
ARC
  8
border
  6
CONTINUOUS
 10
255.130173
 20
14.988683
 40
0.694444
 50
345.000000
 51
90.000000
 39
2
 62
0
  0
LINE
  8
border
  6
CONTINUOUS
 10
255.130173
 20
15.683128
 11
253.865423
 21
15.683128
 39
2
 62
0
  0
ARC
  8
border
  6
CONTINUOUS
 10
259.047636
 20
14.160789
 40
2.029172
 50
174.888962
 51
206.092712
 39
2
 62
0
  0
ARC
  8
border
  6
CONTINUOUS
 10
257.674209
 20
13.509539
 40
0.509678
 50
208.248138
 51
268.668121
 39
2
 62
0
  0
ARC
  8
border
  6
CONTINUOUS
 10
257.578689
 20
13.944200
 40
0.947906
 50
275.064636
 51
314.517487
 39
2
 62
0
  0
ARC
  8
border
  6
CONTINUOUS
 10
255.788324
 20
15.854183
 40
3.565628
 50
313.512726
 51
334.898560
 39
2
 62
0
  0
LINE
  8
border
  6
CONTINUOUS
 10
259.017186
 20
14.341567
 11
259.202326
 21
14.753911
 39
2
 62
0
  0
LINE
  8
border
  6
CONTINUOUS
 10
259.202326
 20
14.753911
 11
259.330804
 21
15.108600
 39
2
 62
0
  0
LINE
  8
border
  6
CONTINUOUS
 10
259.330804
 20
15.108600
 11
259.443957
 21
15.507339
 39
2
 62
0
  0
LINE
  8
border
  6
CONTINUOUS
 10
259.443957
 20
15.507339
 11
259.552057
 21
16.078389
 39
2
 62
0
  0
LINE
  8
border
  6
CONTINUOUS
 10
259.552057
 20
16.078389
 11
259.592340
 21
16.488067
 39
2
 62
0
  0
ARC
  8
border
  6
CONTINUOUS
 10
257.571466
 20
16.668917
 40
2.028917
 50
354.896393
 51
26.093731
 39
2
 62
0
  0
ARC
  8
border
  6
CONTINUOUS
 10
258.944622
 20
17.320083
 40
0.509689
 50
28.249029
 51
88.666687
 39
2
 62
0
  0
ARC
  8
border
  6
CONTINUOUS
 10
259.040142
 20
16.885450
 40
0.947878
 50
95.064087
 51
134.518051
 39
2
 62
0
  0
ARC
  8
border
  6
CONTINUOUS
 10
260.830540
 20
14.975450
 40
3.565628
 50
133.512711
 51
154.898560
 39
2
 62
0
  0
LINE
  8
border
  6
CONTINUOUS
 10
257.601678
 20
16.488067
 11
257.416538
 21
16.075722
 39
2
 62
0
  0
LINE
  8
border
  6
CONTINUOUS
 10
257.416538
 20
16.075722
 11
257.288059
 21
15.721033
 39
2
 62
0
  0
LINE
  8
border
  6
CONTINUOUS
 10
257.288059
 20
15.721033
 11
257.174907
 21
15.322294
 39
2
 62
0
  0
LINE
  8
border
  6
CONTINUOUS
 10
257.174907
 20
15.322294
 11
257.066807
 21
14.751250
 39
2
 62
0
  0
LINE
  8
border
  6
CONTINUOUS
 10
257.066807
 20
14.751250
 11
257.026524
 21
14.341567
 39
2
 62
0
  0
LINE
  8
border
  6
CONTINUOUS
 10
261.106921
 20
16.756378
 11
262.505609
 21
17.829633
 39
2
 62
0
  0
LINE
  8
border
  6
CONTINUOUS
 10
262.505609
 20
17.829633
 11
261.211494
 21
13.000000
 39
2
 62
0
  0
ARC
  8
border
  6
CONTINUOUS
 10
267.998421
 20
14.160789
 40
2.029172
 50
174.888962
 51
206.092712
 39
2
 62
0
  0
ARC
  8
border
  6
CONTINUOUS
 10
266.624994
 20
13.509539
 40
0.509678
 50
208.248138
 51
268.668121
 39
2
 62
0
  0
ARC
  8
border
  6
CONTINUOUS
 10
266.529474
 20
13.944200
 40
0.947906
 50
275.064636
 51
314.517487
 39
2
 62
0
  0
ARC
  8
border
  6
CONTINUOUS
 10
264.739109
 20
15.854183
 40
3.565628
 50
313.512726
 51
334.898560
 39
2
 62
0
  0
LINE
  8
border
  6
CONTINUOUS
 10
267.967971
 20
14.341567
 11
268.153111
 21
14.753911
 39
2
 62
0
  0
LINE
  8
border
  6
CONTINUOUS
 10
268.153111
 20
14.753911
 11
268.281589
 21
15.108600
 39
2
 62
0
  0
LINE
  8
border
  6
CONTINUOUS
 10
268.281589
 20
15.108600
 11
268.394742
 21
15.507339
 39
2
 62
0
  0
LINE
  8
border
  6
CONTINUOUS
 10
268.394742
 20
15.507339
 11
268.502842
 21
16.078389
 39
2
 62
0
  0
LINE
  8
border
  6
CONTINUOUS
 10
268.502842
 20
16.078389
 11
268.543125
 21
16.488067
 39
2
 62
0
  0
ARC
  8
border
  6
CONTINUOUS
 10
266.522251
 20
16.668917
 40
2.028917
 50
354.896393
 51
26.093731
 39
2
 62
0
  0
ARC
  8
border
  6
CONTINUOUS
 10
267.895407
 20
17.320083
 40
0.509689
 50
28.249029
 51
88.666687
 39
2
 62
0
  0
ARC
  8
border
  6
CONTINUOUS
 10
267.990927
 20
16.885450
 40
0.947878
 50
95.064087
 51
134.518051
 39
2
 62
0
  0
ARC
  8
border
  6
CONTINUOUS
 10
269.781325
 20
14.975450
 40
3.565628
 50
133.512711
 51
154.898560
 39
2
 62
0
  0
LINE
  8
border
  6
CONTINUOUS
 10
266.552463
 20
16.488067
 11
266.367323
 21
16.075722
 39
2
 62
0
  0
LINE
  8
border
  6
CONTINUOUS
 10
266.367323
 20
16.075722
 11
266.238844
 21
15.721033
 39
2
 62
0
  0
LINE
  8
border
  6
CONTINUOUS
 10
266.238844
 20
15.721033
 11
266.125692
 21
15.322294
 39
2
 62
0
  0
LINE
  8
border
  6
CONTINUOUS
 10
266.125692
 20
15.322294
 11
266.017592
 21
14.751250
 39
2
 62
0
  0
LINE
  8
border
  6
CONTINUOUS
 10
266.017592
 20
14.751250
 11
265.977309
 21
14.341567
 39
2
 62
0
  0
ARC
  8
border
  6
CONTINUOUS
 10
267.992954
 20
16.835761
 40
4.161394
 50
292.816925
 51
345.000000
 39
2
 62
0
  0
LINE
  8
border
  6
CONTINUOUS
 10
272.012559
 20
15.758717
 11
272.333232
 21
16.955444
 39
2
 62
0
  0
ARC
  8
border
  6
CONTINUOUS
 10
271.662455
 20
17.135189
 40
0.694444
 50
345.000000
 51
90.000000
 39
2
 62
0
  0
LINE
  8
border
  6
CONTINUOUS
 10
271.662455
 20
17.829633
 11
271.250264
 21
17.829633
 39
2
 62
0
  0
ARC
  8
border
  6
CONTINUOUS
 10
271.250264
 20
16.650178
 40
1.179450
 50
90.000000
 51
165.000000
 39
2
 62
0
  0
LINE
  8
border
  6
CONTINUOUS
 10
270.111009
 20
16.955444
 11
269.860528
 21
16.020678
 39
2
 62
0
  0
ARC
  8
border
  6
CONTINUOUS
 10
270.531338
 20
15.840950
 40
0.694450
 50
165.000000
 51
270.000000
 39
2
 62
0
  0
LINE
  8
border
  6
CONTINUOUS
 10
270.531304
 20
15.146500
 11
271.796054
 21
15.146500
 39
2
 62
0
  0
LINE
  8
border
  6
CONTINUOUS
 10
273.863437
 20
16.756378
 11
275.262126
 21
17.829633
 39
2
 62
0
  0
LINE
  8
border
  6
CONTINUOUS
 10
275.262126
 20
17.829633
 11
273.968011
 21
13.000000
 39
2
 62
0
  0
LINE
  8
border
  6
CONTINUOUS
 10
277.984348
 20
13.000000
 11
275.762126
 21
13.000000
 39
2
 62
0
  0
LINE
  8
border
  6
CONTINUOUS
 10
275.762126
 20
13.000000
 11
278.724534
 21
16.196561
 39
2
 62
0
  0
ARC
  8
border
  6
CONTINUOUS
 10
278.011441
 20
16.857406
 40
0.972222
 50
317.177368
 51
90.000000
 39
2
 62
0
  0
LINE
  8
border
  6
CONTINUOUS
 10
277.802226
 20
17.829633
 11
278.011441
 21
17.829633
 39
2
 62
0
  0
ARC
  8
border
  6
CONTINUOUS
 10
277.802226
 20
16.857406
 40
0.972222
 50
90.000000
 51
165.000000
 39
2
 62
0
  0
LINE
  8
border
  6
CONTINUOUS
 10
280.777778
 20
17.829633
 11
283.000000
 21
17.829633
 39
2
 62
0
  0
LINE
  8
border
  6
CONTINUOUS
 10
283.000000
 20
17.829633
 11
280.316996
 21
13.000000
 39
2
 62
0
  0
LINE
  8
border
  6
CONTINUOUS
 10
282.424845
 20
15.683128
 11
281.313734
 21
15.683128
 39
2
 62
0
  0
LINE
  8
border
  6
CONTINUOUS
 10
277.388889
 20
44.888889
 11
278.500000
 21
46.000000
 39
2
 62
0
  0
LINE
  8
border
  6
CONTINUOUS
 10
278.500000
 20
46.000000
 11
278.500000
 21
41.000000
 39
2
 62
0
  0
LINE
  8
border
  6
CONTINUOUS
 10
279.500000
 20
41.000000
 11
279.500000
 21
41.277778
 39
2
 62
0
  0
LINE
  8
border
  6
CONTINUOUS
 10
279.500000
 20
43.222222
 11
279.500000
 21
42.944444
 39
2
 62
0
  0
LINE
  8
border
  6
CONTINUOUS
 10
280.500000
 20
44.888889
 11
281.611111
 21
46.000000
 39
2
 62
0
  0
LINE
  8
border
  6
CONTINUOUS
 10
281.611111
 20
46.000000
 11
281.611111
 21
41.000000
 39
2
 62
0
  0
LINE
  8
border
  6
CONTINUOUS
 10
258.999969
 20
27.999954
 11
258.999969
 21
29.499954
 39
1
 62
0
  0
LINE
  8
border
  6
CONTINUOUS
 10
258.999969
 20
29.499954
 11
259.499969
 21
29.499954
 39
1
 62
0
  0
ARC
  8
border
  6
CONTINUOUS
 10
259.499969
 20
29.166621
 40
0.333333
 50
0.000000
 51
90.000000
 39
1
 62
0
  0
LINE
  8
border
  6
CONTINUOUS
 10
259.833302
 20
29.166621
 11
259.833302
 21
28.999954
 39
1
 62
0
  0
ARC
  8
border
  6
CONTINUOUS
 10
259.499969
 20
28.999954
 40
0.333333
 50
270.000000
 51
0.000000
 39
1
 62
0
  0
LINE
  8
border
  6
CONTINUOUS
 10
259.499969
 20
28.666621
 11
258.999969
 21
28.666621
 39
1
 62
0
  0
LINE
  8
border
  6
CONTINUOUS
 10
260.216636
 20
28.999954
 11
260.549969
 21
28.999954
 39
1
 62
0
  0
ARC
  8
border
  6
CONTINUOUS
 10
260.549969
 20
28.749954
 40
0.250000
 50
0.000000
 51
90.000000
 39
1
 62
0
  0
LINE
  8
border
  6
CONTINUOUS
 10
260.799969
 20
28.749954
 11
260.799969
 21
27.999954
 39
1
 62
0
  0
LINE
  8
border
  6
CONTINUOUS
 10
260.799969
 20
27.999954
 11
260.383302
 21
27.999954
 39
1
 62
0
  0
ARC
  8
border
  6
CONTINUOUS
 10
260.383302
 20
28.249954
 40
0.250000
 50
90.000000
 51
270.000000
 39
1
 62
0
  0
LINE
  8
border
  6
CONTINUOUS
 10
260.383302
 20
28.499954
 11
260.799969
 21
28.499954
 39
1
 62
0
  0
LINE
  8
border
  6
CONTINUOUS
 10
261.099969
 20
27.499954
 11
261.516636
 21
27.499954
 39
1
 62
0
  0
ARC
  8
border
  6
CONTINUOUS
 10
261.516636
 20
27.749954
 40
0.250000
 50
270.000000
 51
0.000000
 39
1
 62
0
  0
LINE
  8
border
  6
CONTINUOUS
 10
261.766636
 20
27.749954
 11
261.766636
 21
28.999954
 39
1
 62
0
  0
LINE
  8
border
  6
CONTINUOUS
 10
261.766636
 20
28.999954
 11
261.349969
 21
28.999954
 39
1
 62
0
  0
ARC
  8
border
  6
CONTINUOUS
 10
261.349969
 20
28.749954
 40
0.250000
 50
90.000000
 51
180.000000
 39
1
 62
0
  0
LINE
  8
border
  6
CONTINUOUS
 10
261.099969
 20
28.749954
 11
261.099969
 21
28.249954
 39
1
 62
0
  0
ARC
  8
border
  6
CONTINUOUS
 10
261.349969
 20
28.249954
 40
0.250000
 50
180.000000
 51
270.000000
 39
1
 62
0
  0
LINE
  8
border
  6
CONTINUOUS
 10
261.349969
 20
27.999954
 11
261.766636
 21
27.999954
 39
1
 62
0
  0
LINE
  8
border
  6
CONTINUOUS
 10
262.066636
 20
28.499954
 11
262.733302
 21
28.499954
 39
1
 62
0
  0
LINE
  8
border
  6
CONTINUOUS
 10
262.733302
 20
28.499954
 11
262.733302
 21
28.666621
 39
1
 62
0
  0
ARC
  8
border
  6
CONTINUOUS
 10
262.399969
 20
28.666621
 40
0.333333
 50
0.000000
 51
180.000000
 39
1
 62
0
  0
LINE
  8
border
  6
CONTINUOUS
 10
262.066636
 20
28.666621
 11
262.066636
 21
28.249954
 39
1
 62
0
  0
ARC
  8
border
  6
CONTINUOUS
 10
262.316636
 20
28.249954
 40
0.250000
 50
180.000000
 51
270.000000
 39
1
 62
0
  0
LINE
  8
border
  6
CONTINUOUS
 10
262.316636
 20
27.999954
 11
262.733302
 21
27.999954
 39
1
 62
0
  0
ARC
  8
border
  6
CONTINUOUS
 10
263.394000
 20
28.303434
 40
0.676217
 50
63.097370
 51
108.275520
 39
1
 62
0
  0
ARC
  8
border
  6
CONTINUOUS
 10
263.244667
 20
28.755631
 40
0.200000
 50
108.274567
 51
247.790543
 39
1
 62
0
  0
LINE
  8
border
  6
CONTINUOUS
 10
263.169065
 20
28.570469
 11
263.564206
 21
28.409136
 39
1
 62
0
  0
ARC
  8
border
  6
CONTINUOUS
 10
263.488604
 20
28.223974
 40
0.199998
 50
288.274933
 51
67.791191
 39
1
 62
0
  0
ARC
  8
border
  6
CONTINUOUS
 10
263.339271
 20
28.676174
 40
0.676220
 50
243.097656
 51
288.275513
 39
1
 62
0
  0
LINE
  8
border
  6
CONTINUOUS
 10
273.999969
 20
27.999954
 11
273.999969
 21
29.499954
 39
1
 62
0
  0
LINE
  8
border
  6
CONTINUOUS
 10
273.999969
 20
29.499954
 11
274.499969
 21
29.499954
 39
1
 62
0
  0
ARC
  8
border
  6
CONTINUOUS
 10
274.499969
 20
29.166621
 40
0.333333
 50
0.000000
 51
90.000000
 39
1
 62
0
  0
LINE
  8
border
  6
CONTINUOUS
 10
274.833302
 20
29.166621
 11
274.833302
 21
28.999954
 39
1
 62
0
  0
ARC
  8
border
  6
CONTINUOUS
 10
274.499969
 20
28.999954
 40
0.333333
 50
270.000000
 51
0.000000
 39
1
 62
0
  0
LINE
  8
border
  6
CONTINUOUS
 10
274.499969
 20
28.666621
 11
273.999969
 21
28.666621
 39
1
 62
0
  0
LINE
  8
border
  6
CONTINUOUS
 10
275.216636
 20
28.999954
 11
275.549969
 21
28.999954
 39
1
 62
0
  0
ARC
  8
border
  6
CONTINUOUS
 10
275.549969
 20
28.749954
 40
0.250000
 50
0.000000
 51
90.000000
 39
1
 62
0
  0
LINE
  8
border
  6
CONTINUOUS
 10
275.799969
 20
28.749954
 11
275.799969
 21
27.999954
 39
1
 62
0
  0
LINE
  8
border
  6
CONTINUOUS
 10
275.799969
 20
27.999954
 11
275.383302
 21
27.999954
 39
1
 62
0
  0
ARC
  8
border
  6
CONTINUOUS
 10
275.383302
 20
28.249954
 40
0.250000
 50
90.000000
 51
270.000000
 39
1
 62
0
  0
LINE
  8
border
  6
CONTINUOUS
 10
275.383302
 20
28.499954
 11
275.799969
 21
28.499954
 39
1
 62
0
  0
LINE
  8
border
  6
CONTINUOUS
 10
276.099969
 20
27.499954
 11
276.516636
 21
27.499954
 39
1
 62
0
  0
ARC
  8
border
  6
CONTINUOUS
 10
276.516636
 20
27.749954
 40
0.250000
 50
270.000000
 51
0.000000
 39
1
 62
0
  0
LINE
  8
border
  6
CONTINUOUS
 10
276.766636
 20
27.749954
 11
276.766636
 21
28.999954
 39
1
 62
0
  0
LINE
  8
border
  6
CONTINUOUS
 10
276.766636
 20
28.999954
 11
276.349969
 21
28.999954
 39
1
 62
0
  0
ARC
  8
border
  6
CONTINUOUS
 10
276.349969
 20
28.749954
 40
0.250000
 50
90.000000
 51
180.000000
 39
1
 62
0
  0
LINE
  8
border
  6
CONTINUOUS
 10
276.099969
 20
28.749954
 11
276.099969
 21
28.249954
 39
1
 62
0
  0
ARC
  8
border
  6
CONTINUOUS
 10
276.349969
 20
28.249954
 40
0.250000
 50
180.000000
 51
270.000000
 39
1
 62
0
  0
LINE
  8
border
  6
CONTINUOUS
 10
276.349969
 20
27.999954
 11
276.766636
 21
27.999954
 39
1
 62
0
  0
LINE
  8
border
  6
CONTINUOUS
 10
277.066636
 20
28.499954
 11
277.733302
 21
28.499954
 39
1
 62
0
  0
LINE
  8
border
  6
CONTINUOUS
 10
277.733302
 20
28.499954
 11
277.733302
 21
28.666621
 39
1
 62
0
  0
ARC
  8
border
  6
CONTINUOUS
 10
277.399969
 20
28.666621
 40
0.333333
 50
0.000000
 51
180.000000
 39
1
 62
0
  0
LINE
  8
border
  6
CONTINUOUS
 10
277.066636
 20
28.666621
 11
277.066636
 21
28.249954
 39
1
 62
0
  0
ARC
  8
border
  6
CONTINUOUS
 10
277.316636
 20
28.249954
 40
0.250000
 50
180.000000
 51
270.000000
 39
1
 62
0
  0
LINE
  8
border
  6
CONTINUOUS
 10
277.316636
 20
27.999954
 11
277.733302
 21
27.999954
 39
1
 62
0
  0
LINE
  8
border
  6
CONTINUOUS
 10
149.000000
 20
20.000000
 11
149.000000
 21
21.500000
 39
1
 62
0
  0
LINE
  8
border
  6
CONTINUOUS
 10
149.000000
 20
21.500000
 11
149.833333
 21
20.000000
 39
1
 62
0
  0
LINE
  8
border
  6
CONTINUOUS
 10
149.833333
 20
20.000000
 11
149.833333
 21
21.500000
 39
1
 62
0
  0
LINE
  8
border
  6
CONTINUOUS
 10
150.216667
 20
21.000000
 11
150.550000
 21
21.000000
 39
1
 62
0
  0
ARC
  8
border
  6
CONTINUOUS
 10
150.550000
 20
20.750000
 40
0.250000
 50
0.000000
 51
90.000000
 39
1
 62
0
  0
LINE
  8
border
  6
CONTINUOUS
 10
150.800000
 20
20.750000
 11
150.800000
 21
20.000000
 39
1
 62
0
  0
LINE
  8
border
  6
CONTINUOUS
 10
150.800000
 20
20.000000
 11
150.383333
 21
20.000000
 39
1
 62
0
  0
ARC
  8
border
  6
CONTINUOUS
 10
150.383333
 20
20.250000
 40
0.250000
 50
90.000000
 51
270.000000
 39
1
 62
0
  0
LINE
  8
border
  6
CONTINUOUS
 10
150.383333
 20
20.500000
 11
150.800000
 21
20.500000
 39
1
 62
0
  0
LINE
  8
border
  6
CONTINUOUS
 10
151.100000
 20
20.000000
 11
151.100000
 21
21.000000
 39
1
 62
0
  0
LINE
  8
border
  6
CONTINUOUS
 10
151.100000
 20
21.000000
 11
151.850000
 21
21.000000
 39
1
 62
0
  0
ARC
  8
border
  6
CONTINUOUS
 10
151.850000
 20
20.750000
 40
0.250000
 50
0.000000
 51
90.000000
 39
1
 62
0
  0
LINE
  8
border
  6
CONTINUOUS
 10
152.100000
 20
20.750000
 11
152.100000
 21
20.000000
 39
1
 62
0
  0
LINE
  8
border
  6
CONTINUOUS
 10
151.600000
 20
21.000000
 11
151.600000
 21
20.000000
 39
1
 62
0
  0
LINE
  8
border
  6
CONTINUOUS
 10
152.400000
 20
20.500000
 11
153.066667
 21
20.500000
 39
1
 62
0
  0
LINE
  8
border
  6
CONTINUOUS
 10
153.066667
 20
20.500000
 11
153.066667
 21
20.666667
 39
1
 62
0
  0
ARC
  8
border
  6
CONTINUOUS
 10
152.733333
 20
20.666667
 40
0.333333
 50
0.000000
 51
180.000000
 39
1
 62
0
  0
LINE
  8
border
  6
CONTINUOUS
 10
152.400000
 20
20.666667
 11
152.400000
 21
20.250000
 39
1
 62
0
  0
ARC
  8
border
  6
CONTINUOUS
 10
152.650000
 20
20.250000
 40
0.250000
 50
180.000000
 51
270.000000
 39
1
 62
0
  0
LINE
  8
border
  6
CONTINUOUS
 10
152.650000
 20
20.000000
 11
153.066667
 21
20.000000
 39
1
 62
0
  0
ARC
  8
border
  6
CONTINUOUS
 10
274.333302
 20
48.395787
 40
1.104167
 50
63.074589
 51
90.000000
 39
1
 62
0
  0
ARC
  8
border
  6
CONTINUOUS
 10
274.333302
 20
49.166621
 40
0.333333
 50
90.000000
 51
242.981201
 39
1
 62
0
  0
LINE
  8
border
  6
CONTINUOUS
 10
274.181874
 20
48.869669
 11
274.651397
 21
48.630239
 39
1
 62
0
  0
ARC
  8
border
  6
CONTINUOUS
 10
274.499969
 20
48.333287
 40
0.333333
 50
270.000000
 51
62.981190
 39
1
 62
0
  0
ARC
  8
border
  6
CONTINUOUS
 10
274.499969
 20
49.104121
 40
1.104167
 50
243.074585
 51
270.000000
 39
1
 62
0
  0
LINE
  8
border
  6
CONTINUOUS
 10
275.633302
 20
48.999954
 11
275.383302
 21
48.999954
 39
1
 62
0
  0
ARC
  8
border
  6
CONTINUOUS
 10
275.383302
 20
48.749954
 40
0.250000
 50
90.000000
 51
180.000000
 39
1
 62
0
  0
LINE
  8
border
  6
CONTINUOUS
 10
275.133302
 20
48.749954
 11
275.133302
 21
48.249954
 39
1
 62
0
  0
ARC
  8
border
  6
CONTINUOUS
 10
275.383302
 20
48.249954
 40
0.250000
 50
180.000000
 51
270.000000
 39
1
 62
0
  0
LINE
  8
border
  6
CONTINUOUS
 10
275.383302
 20
47.999954
 11
275.633302
 21
47.999954
 39
1
 62
0
  0
LINE
  8
border
  6
CONTINUOUS
 10
276.016636
 20
48.999954
 11
276.349969
 21
48.999954
 39
1
 62
0
  0
ARC
  8
border
  6
CONTINUOUS
 10
276.349969
 20
48.749954
 40
0.250000
 50
0.000000
 51
90.000000
 39
1
 62
0
  0
LINE
  8
border
  6
CONTINUOUS
 10
276.599969
 20
48.749954
 11
276.599969
 21
47.999954
 39
1
 62
0
  0
LINE
  8
border
  6
CONTINUOUS
 10
276.599969
 20
47.999954
 11
276.183302
 21
47.999954
 39
1
 62
0
  0
ARC
  8
border
  6
CONTINUOUS
 10
276.183302
 20
48.249954
 40
0.250000
 50
90.000000
 51
270.000000
 39
1
 62
0
  0
LINE
  8
border
  6
CONTINUOUS
 10
276.183302
 20
48.499954
 11
276.599969
 21
48.499954
 39
1
 62
0
  0
LINE
  8
border
  6
CONTINUOUS
 10
276.899969
 20
49.499954
 11
276.899969
 21
48.166621
 39
1
 62
0
  0
ARC
  8
border
  6
CONTINUOUS
 10
277.066636
 20
48.166621
 40
0.166667
 50
180.000000
 51
270.000000
 39
1
 62
0
  0
LINE
  8
border
  6
CONTINUOUS
 10
277.366636
 20
48.499954
 11
278.033302
 21
48.499954
 39
1
 62
0
  0
LINE
  8
border
  6
CONTINUOUS
 10
278.033302
 20
48.499954
 11
278.033302
 21
48.666621
 39
1
 62
0
  0
ARC
  8
border
  6
CONTINUOUS
 10
277.699969
 20
48.666621
 40
0.333333
 50
0.000000
 51
180.000000
 39
1
 62
0
  0
LINE
  8
border
  6
CONTINUOUS
 10
277.366636
 20
48.666621
 11
277.366636
 21
48.249954
 39
1
 62
0
  0
ARC
  8
border
  6
CONTINUOUS
 10
277.616636
 20
48.249954
 40
0.250000
 50
180.000000
 51
270.000000
 39
1
 62
0
  0
LINE
  8
border
  6
CONTINUOUS
 10
277.616636
 20
47.999954
 11
278.033302
 21
47.999954
 39
1
 62
0
  0
LINE
  8
border
  6
CONTINUOUS
 10
199.000000
 20
24.000000
 11
199.000000
 21
26.000000
 39
1
 62
0
  0
LINE
  8
border
  6
CONTINUOUS
 10
199.000000
 20
26.000000
 11
199.666667
 21
26.000000
 39
1
 62
0
  0
ARC
  8
border
  6
CONTINUOUS
 10
199.666667
 20
25.555556
 40
0.444444
 50
0.000000
 51
90.000000
 39
1
 62
0
  0
LINE
  8
border
  6
CONTINUOUS
 10
200.111111
 20
25.555556
 11
200.111111
 21
25.333333
 39
1
 62
0
  0
ARC
  8
border
  6
CONTINUOUS
 10
199.666667
 20
25.333333
 40
0.444444
 50
270.000000
 51
0.000000
 39
1
 62
0
  0
LINE
  8
border
  6
CONTINUOUS
 10
199.666667
 20
24.888889
 11
199.000000
 21
24.888889
 39
1
 62
0
  0
LINE
  8
border
  6
CONTINUOUS
 10
199.666667
 20
24.888889
 11
200.111111
 21
24.000000
 39
1
 62
0
  0
LINE
  8
border
  6
CONTINUOUS
 10
200.511111
 20
24.666667
 11
201.400000
 21
24.666667
 39
1
 62
0
  0
LINE
  8
border
  6
CONTINUOUS
 10
201.400000
 20
24.666667
 11
201.400000
 21
24.888889
 39
1
 62
0
  0
ARC
  8
border
  6
CONTINUOUS
 10
200.955556
 20
24.888889
 40
0.444444
 50
0.000000
 51
180.000000
 39
1
 62
0
  0
LINE
  8
border
  6
CONTINUOUS
 10
200.511111
 20
24.888889
 11
200.511111
 21
24.333333
 39
1
 62
0
  0
ARC
  8
border
  6
CONTINUOUS
 10
200.844444
 20
24.333333
 40
0.333333
 50
180.000000
 51
270.000000
 39
1
 62
0
  0
LINE
  8
border
  6
CONTINUOUS
 10
200.844444
 20
24.000000
 11
201.400000
 21
24.000000
 39
1
 62
0
  0
LINE
  8
border
  6
CONTINUOUS
 10
201.800000
 20
24.000000
 11
202.355556
 21
24.000000
 39
1
 62
0
  0
ARC
  8
border
  6
CONTINUOUS
 10
202.355556
 20
24.333333
 40
0.333333
 50
270.000000
 51
0.000000
 39
1
 62
0
  0
LINE
  8
border
  6
CONTINUOUS
 10
202.688889
 20
24.333333
 11
202.688889
 21
25.000000
 39
1
 62
0
  0
ARC
  8
border
  6
CONTINUOUS
 10
202.355556
 20
25.000000
 40
0.333333
 50
0.000000
 51
90.000000
 39
1
 62
0
  0
LINE
  8
border
  6
CONTINUOUS
 10
202.355556
 20
25.333333
 11
201.800000
 21
25.333333
 39
1
 62
0
  0
LINE
  8
border
  6
CONTINUOUS
 10
201.800000
 20
25.333333
 11
201.800000
 21
23.333333
 39
1
 62
0
  0
LINE
  8
border
  6
CONTINUOUS
 10
203.088889
 20
26.000000
 11
203.088889
 21
24.222222
 39
1
 62
0
  0
ARC
  8
border
  6
CONTINUOUS
 10
203.311111
 20
24.222222
 40
0.222222
 50
180.000000
 51
270.000000
 39
1
 62
0
  0
LINE
  8
border
  6
CONTINUOUS
 10
203.822222
 20
25.333333
 11
204.266667
 21
25.333333
 39
1
 62
0
  0
ARC
  8
border
  6
CONTINUOUS
 10
204.266667
 20
25.000000
 40
0.333333
 50
0.000000
 51
90.000000
 39
1
 62
0
  0
LINE
  8
border
  6
CONTINUOUS
 10
204.600000
 20
25.000000
 11
204.600000
 21
24.000000
 39
1
 62
0
  0
LINE
  8
border
  6
CONTINUOUS
 10
204.600000
 20
24.000000
 11
204.044444
 21
24.000000
 39
1
 62
0
  0
ARC
  8
border
  6
CONTINUOUS
 10
204.044444
 20
24.333333
 40
0.333333
 50
90.000000
 51
270.000000
 39
1
 62
0
  0
LINE
  8
border
  6
CONTINUOUS
 10
204.044444
 20
24.666667
 11
204.600000
 21
24.666667
 39
1
 62
0
  0
LINE
  8
border
  6
CONTINUOUS
 10
205.666667
 20
25.333333
 11
205.333333
 21
25.333333
 39
1
 62
0
  0
ARC
  8
border
  6
CONTINUOUS
 10
205.333333
 20
25.000000
 40
0.333333
 50
90.000000
 51
180.000000
 39
1
 62
0
  0
LINE
  8
border
  6
CONTINUOUS
 10
205.000000
 20
25.000000
 11
205.000000
 21
24.333333
 39
1
 62
0
  0
ARC
  8
border
  6
CONTINUOUS
 10
205.333333
 20
24.333333
 40
0.333333
 50
180.000000
 51
270.000000
 39
1
 62
0
  0
LINE
  8
border
  6
CONTINUOUS
 10
205.333333
 20
24.000000
 11
205.666667
 21
24.000000
 39
1
 62
0
  0
LINE
  8
border
  6
CONTINUOUS
 10
206.066667
 20
24.666667
 11
206.955556
 21
24.666667
 39
1
 62
0
  0
LINE
  8
border
  6
CONTINUOUS
 10
206.955556
 20
24.666667
 11
206.955556
 21
24.888889
 39
1
 62
0
  0
ARC
  8
border
  6
CONTINUOUS
 10
206.511111
 20
24.888889
 40
0.444444
 50
0.000000
 51
180.000000
 39
1
 62
0
  0
LINE
  8
border
  6
CONTINUOUS
 10
206.066667
 20
24.888889
 11
206.066667
 21
24.333333
 39
1
 62
0
  0
ARC
  8
border
  6
CONTINUOUS
 10
206.400000
 20
24.333333
 40
0.333333
 50
180.000000
 51
270.000000
 39
1
 62
0
  0
LINE
  8
border
  6
CONTINUOUS
 10
206.400000
 20
24.000000
 11
206.955556
 21
24.000000
 39
1
 62
0
  0
ARC
  8
border
  6
CONTINUOUS
 10
207.836486
 20
24.404640
 40
0.901622
 50
63.097370
 51
108.275520
 39
1
 62
0
  0
ARC
  8
border
  6
CONTINUOUS
 10
207.637375
 20
25.007569
 40
0.266667
 50
108.274567
 51
247.790543
 39
1
 62
0
  0
LINE
  8
border
  6
CONTINUOUS
 10
207.536572
 20
24.760687
 11
208.063428
 21
24.545576
 39
1
 62
0
  0
ARC
  8
border
  6
CONTINUOUS
 10
207.962625
 20
24.298693
 40
0.266664
 50
288.274933
 51
67.791191
 39
1
 62
0
  0
ARC
  8
border
  6
CONTINUOUS
 10
207.763514
 20
24.901627
 40
0.901627
 50
243.097656
 51
288.275513
 39
1
 62
0
  0
ARC
  8
border
  6
CONTINUOUS
 10
199.444444
 20
28.527778
 40
1.472222
 50
63.074589
 51
90.000000
 39
1
 62
0
  0
ARC
  8
border
  6
CONTINUOUS
 10
199.444444
 20
29.555556
 40
0.444444
 50
90.000000
 51
242.981201
 39
1
 62
0
  0
LINE
  8
border
  6
CONTINUOUS
 10
199.242540
 20
29.159620
 11
199.868571
 21
28.840380
 39
1
 62
0
  0
ARC
  8
border
  6
CONTINUOUS
 10
199.666667
 20
28.444444
 40
0.444444
 50
270.000000
 51
62.981190
 39
1
 62
0
  0
ARC
  8
border
  6
CONTINUOUS
 10
199.666667
 20
29.472222
 40
1.472222
 50
243.074585
 51
270.000000
 39
1
 62
0
  0
LINE
  8
border
  6
CONTINUOUS
 10
200.511111
 20
28.888889
 11
200.511111
 21
28.444444
 39
1
 62
0
  0
ARC
  8
border
  6
CONTINUOUS
 10
200.955556
 20
28.444444
 40
0.444444
 50
180.000000
 51
0.000000
 39
1
 62
0
  0
LINE
  8
border
  6
CONTINUOUS
 10
201.400000
 20
28.444444
 11
201.400000
 21
28.888889
 39
1
 62
0
  0
ARC
  8
border
  6
CONTINUOUS
 10
200.955556
 20
28.888889
 40
0.444444
 50
0.000000
 51
180.000000
 39
1
 62
0
  0
LINE
  8
border
  6
CONTINUOUS
 10
201.800000
 20
29.333333
 11
201.800000
 21
28.333333
 39
1
 62
0
  0
ARC
  8
border
  6
CONTINUOUS
 10
202.133333
 20
28.333333
 40
0.333333
 50
180.000000
 51
270.000000
 39
1
 62
0
  0
LINE
  8
border
  6
CONTINUOUS
 10
202.133333
 20
28.000000
 11
202.688889
 21
28.000000
 39
1
 62
0
  0
LINE
  8
border
  6
CONTINUOUS
 10
202.688889
 20
28.000000
 11
202.688889
 21
29.333333
 39
1
 62
0
  0
LINE
  8
border
  6
CONTINUOUS
 10
203.088889
 20
28.000000
 11
203.088889
 21
29.333333
 39
1
 62
0
  0
LINE
  8
border
  6
CONTINUOUS
 10
203.088889
 20
29.333333
 11
203.533333
 21
29.333333
 39
1
 62
0
  0
ARC
  8
border
  6
CONTINUOUS
 10
203.533333
 20
29.111111
 40
0.222222
 50
0.000000
 51
90.000000
 39
1
 62
0
  0
LINE
  8
border
  6
CONTINUOUS
 10
204.822222
 20
29.333333
 11
204.488889
 21
29.333333
 39
1
 62
0
  0
ARC
  8
border
  6
CONTINUOUS
 10
204.488889
 20
29.000000
 40
0.333333
 50
90.000000
 51
180.000000
 39
1
 62
0
  0
LINE
  8
border
  6
CONTINUOUS
 10
204.155556
 20
29.000000
 11
204.155556
 21
28.333333
 39
1
 62
0
  0
ARC
  8
border
  6
CONTINUOUS
 10
204.488889
 20
28.333333
 40
0.333333
 50
180.000000
 51
270.000000
 39
1
 62
0
  0
LINE
  8
border
  6
CONTINUOUS
 10
204.488889
 20
28.000000
 11
204.822222
 21
28.000000
 39
1
 62
0
  0
LINE
  8
border
  6
CONTINUOUS
 10
205.222222
 20
28.666667
 11
206.111111
 21
28.666667
 39
1
 62
0
  0
LINE
  8
border
  6
CONTINUOUS
 10
206.111111
 20
28.666667
 11
206.111111
 21
28.888889
 39
1
 62
0
  0
ARC
  8
border
  6
CONTINUOUS
 10
205.666667
 20
28.888889
 40
0.444444
 50
0.000000
 51
180.000000
 39
1
 62
0
  0
LINE
  8
border
  6
CONTINUOUS
 10
205.222222
 20
28.888889
 11
205.222222
 21
28.333333
 39
1
 62
0
  0
ARC
  8
border
  6
CONTINUOUS
 10
205.555556
 20
28.333333
 40
0.333333
 50
180.000000
 51
270.000000
 39
1
 62
0
  0
LINE
  8
border
  6
CONTINUOUS
 10
205.555556
 20
28.000000
 11
206.111111
 21
28.000000
 39
1
 62
0
  0
LINE
  8
border
  6
CONTINUOUS
 10
199.000000
 20
36.000000
 11
199.000000
 21
38.000000
 39
1
 62
0
  0
LINE
  8
border
  6
CONTINUOUS
 10
199.000000
 20
38.000000
 11
199.666667
 21
38.000000
 39
1
 62
0
  0
ARC
  8
border
  6
CONTINUOUS
 10
199.666667
 20
37.555556
 40
0.444444
 50
0.000000
 51
90.000000
 39
1
 62
0
  0
LINE
  8
border
  6
CONTINUOUS
 10
200.111111
 20
37.555556
 11
200.111111
 21
37.333333
 39
1
 62
0
  0
ARC
  8
border
  6
CONTINUOUS
 10
199.666667
 20
37.333333
 40
0.444444
 50
270.000000
 51
0.000000
 39
1
 62
0
  0
LINE
  8
border
  6
CONTINUOUS
 10
199.666667
 20
36.888889
 11
199.000000
 21
36.888889
 39
1
 62
0
  0
LINE
  8
border
  6
CONTINUOUS
 10
199.666667
 20
36.888889
 11
200.111111
 21
36.000000
 39
1
 62
0
  0
LINE
  8
border
  6
CONTINUOUS
 10
200.511111
 20
36.666667
 11
201.400000
 21
36.666667
 39
1
 62
0
  0
LINE
  8
border
  6
CONTINUOUS
 10
201.400000
 20
36.666667
 11
201.400000
 21
36.888889
 39
1
 62
0
  0
ARC
  8
border
  6
CONTINUOUS
 10
200.955556
 20
36.888889
 40
0.444444
 50
0.000000
 51
180.000000
 39
1
 62
0
  0
LINE
  8
border
  6
CONTINUOUS
 10
200.511111
 20
36.888889
 11
200.511111
 21
36.333333
 39
1
 62
0
  0
ARC
  8
border
  6
CONTINUOUS
 10
200.844444
 20
36.333333
 40
0.333333
 50
180.000000
 51
270.000000
 39
1
 62
0
  0
LINE
  8
border
  6
CONTINUOUS
 10
200.844444
 20
36.000000
 11
201.400000
 21
36.000000
 39
1
 62
0
  0
LINE
  8
border
  6
CONTINUOUS
 10
201.800000
 20
38.000000
 11
201.800000
 21
36.222222
 39
1
 62
0
  0
ARC
  8
border
  6
CONTINUOUS
 10
202.022222
 20
36.222222
 40
0.222222
 50
180.000000
 51
270.000000
 39
1
 62
0
  0
LINE
  8
border
  6
CONTINUOUS
 10
202.422222
 20
36.666667
 11
203.311111
 21
36.666667
 39
1
 62
0
  0
LINE
  8
border
  6
CONTINUOUS
 10
203.311111
 20
36.666667
 11
203.311111
 21
36.888889
 39
1
 62
0
  0
ARC
  8
border
  6
CONTINUOUS
 10
202.866667
 20
36.888889
 40
0.444444
 50
0.000000
 51
180.000000
 39
1
 62
0
  0
LINE
  8
border
  6
CONTINUOUS
 10
202.422222
 20
36.888889
 11
202.422222
 21
36.333333
 39
1
 62
0
  0
ARC
  8
border
  6
CONTINUOUS
 10
202.755556
 20
36.333333
 40
0.333333
 50
180.000000
 51
270.000000
 39
1
 62
0
  0
LINE
  8
border
  6
CONTINUOUS
 10
202.755556
 20
36.000000
 11
203.311111
 21
36.000000
 39
1
 62
0
  0
LINE
  8
border
  6
CONTINUOUS
 10
203.822222
 20
37.333333
 11
204.266667
 21
37.333333
 39
1
 62
0
  0
ARC
  8
border
  6
CONTINUOUS
 10
204.266667
 20
37.000000
 40
0.333333
 50
0.000000
 51
90.000000
 39
1
 62
0
  0
LINE
  8
border
  6
CONTINUOUS
 10
204.600000
 20
37.000000
 11
204.600000
 21
36.000000
 39
1
 62
0
  0
LINE
  8
border
  6
CONTINUOUS
 10
204.600000
 20
36.000000
 11
204.044444
 21
36.000000
 39
1
 62
0
  0
ARC
  8
border
  6
CONTINUOUS
 10
204.044444
 20
36.333333
 40
0.333333
 50
90.000000
 51
270.000000
 39
1
 62
0
  0
LINE
  8
border
  6
CONTINUOUS
 10
204.044444
 20
36.666667
 11
204.600000
 21
36.666667
 39
1
 62
0
  0
ARC
  8
border
  6
CONTINUOUS
 10
205.480930
 20
36.404640
 40
0.901622
 50
63.097370
 51
108.275520
 39
1
 62
0
  0
ARC
  8
border
  6
CONTINUOUS
 10
205.281820
 20
37.007569
 40
0.266667
 50
108.274567
 51
247.790543
 39
1
 62
0
  0
LINE
  8
border
  6
CONTINUOUS
 10
205.181017
 20
36.760687
 11
205.707872
 21
36.545576
 39
1
 62
0
  0
ARC
  8
border
  6
CONTINUOUS
 10
205.607069
 20
36.298693
 40
0.266664
 50
288.274933
 51
67.791191
 39
1
 62
0
  0
ARC
  8
border
  6
CONTINUOUS
 10
205.407959
 20
36.901627
 40
0.901627
 50
243.097656
 51
288.275513
 39
1
 62
0
  0
LINE
  8
border
  6
CONTINUOUS
 10
206.288892
 20
36.666667
 11
207.177781
 21
36.666667
 39
1
 62
0
  0
LINE
  8
border
  6
CONTINUOUS
 10
207.177781
 20
36.666667
 11
207.177781
 21
36.888889
 39
1
 62
0
  0
ARC
  8
border
  6
CONTINUOUS
 10
206.733337
 20
36.888889
 40
0.444444
 50
0.000000
 51
180.000000
 39
1
 62
0
  0
LINE
  8
border
  6
CONTINUOUS
 10
206.288892
 20
36.888889
 11
206.288892
 21
36.333333
 39
1
 62
0
  0
ARC
  8
border
  6
CONTINUOUS
 10
206.622225
 20
36.333333
 40
0.333333
 50
180.000000
 51
270.000000
 39
1
 62
0
  0
LINE
  8
border
  6
CONTINUOUS
 10
206.622225
 20
36.000000
 11
207.177781
 21
36.000000
 39
1
 62
0
  0
LINE
  8
border
  6
CONTINUOUS
 10
208.466670
 20
38.000000
 11
208.466670
 21
36.000000
 39
1
 62
0
  0
LINE
  8
border
  6
CONTINUOUS
 10
208.466670
 20
36.000000
 11
207.911114
 21
36.000000
 39
1
 62
0
  0
ARC
  8
border
  6
CONTINUOUS
 10
207.911114
 20
36.333333
 40
0.333333
 50
180.000000
 51
270.000000
 39
1
 62
0
  0
LINE
  8
border
  6
CONTINUOUS
 10
207.577781
 20
36.333333
 11
207.577781
 21
37.000000
 39
1
 62
0
  0
ARC
  8
border
  6
CONTINUOUS
 10
207.911114
 20
37.000000
 40
0.333333
 50
90.000000
 51
180.000000
 39
1
 62
0
  0
LINE
  8
border
  6
CONTINUOUS
 10
207.911114
 20
37.333333
 11
208.466670
 21
37.333333
 39
1
 62
0
  0
LINE
  8
border
  6
CONTINUOUS
 10
199.000000
 20
40.000000
 11
199.000000
 21
42.000000
 39
1
 62
0
  0
LINE
  8
border
  6
CONTINUOUS
 10
199.000000
 20
42.000000
 11
200.111111
 21
40.000000
 39
1
 62
0
  0
LINE
  8
border
  6
CONTINUOUS
 10
200.111111
 20
40.000000
 11
200.111111
 21
42.000000
 39
1
 62
0
  0
LINE
  8
border
  6
CONTINUOUS
 10
200.511111
 20
40.888889
 11
200.511111
 21
40.444444
 39
1
 62
0
  0
ARC
  8
border
  6
CONTINUOUS
 10
200.955556
 20
40.444444
 40
0.444444
 50
180.000000
 51
0.000000
 39
1
 62
0
  0
LINE
  8
border
  6
CONTINUOUS
 10
201.400000
 20
40.444444
 11
201.400000
 21
40.888889
 39
1
 62
0
  0
ARC
  8
border
  6
CONTINUOUS
 10
200.955556
 20
40.888889
 40
0.444444
 50
0.000000
 51
180.000000
 39
1
 62
0
  0
LINE
  8
border
  6
CONTINUOUS
 10
201.800000
 20
40.000000
 11
201.800000
 21
41.333333
 39
1
 62
0
  0
LINE
  8
border
  6
CONTINUOUS
 10
201.800000
 20
41.333333
 11
202.244444
 21
41.333333
 39
1
 62
0
  0
ARC
  8
border
  6
CONTINUOUS
 10
202.244444
 20
41.111111
 40
0.222222
 50
0.000000
 51
90.000000
 39
1
 62
0
  0
LINE
  8
border
  6
CONTINUOUS
 10
202.866667
 20
40.000000
 11
202.866667
 21
41.333333
 39
1
 62
0
  0
LINE
  8
border
  6
CONTINUOUS
 10
202.866667
 20
41.333333
 11
203.866667
 21
41.333333
 39
1
 62
0
  0
ARC
  8
border
  6
CONTINUOUS
 10
203.866667
 20
41.000000
 40
0.333333
 50
0.000000
 51
90.000000
 39
1
 62
0
  0
LINE
  8
border
  6
CONTINUOUS
 10
204.200000
 20
41.000000
 11
204.200000
 21
40.000000
 39
1
 62
0
  0
LINE
  8
border
  6
CONTINUOUS
 10
203.533333
 20
41.333333
 11
203.533333
 21
40.000000
 39
1
 62
0
  0
LINE
  8
border
  6
CONTINUOUS
 10
205.400000
 20
40.000000
 11
205.955556
 21
40.000000
 39
1
 62
0
  0
ARC
  8
border
  6
CONTINUOUS
 10
205.955556
 20
40.333333
 40
0.333333
 50
270.000000
 51
0.000000
 39
1
 62
0
  0
LINE
  8
border
  6
CONTINUOUS
 10
206.288889
 20
40.333333
 11
206.288889
 21
41.000000
 39
1
 62
0
  0
ARC
  8
border
  6
CONTINUOUS
 10
205.955556
 20
41.000000
 40
0.333333
 50
0.000000
 51
90.000000
 39
1
 62
0
  0
LINE
  8
border
  6
CONTINUOUS
 10
205.955556
 20
41.333333
 11
205.400000
 21
41.333333
 39
1
 62
0
  0
LINE
  8
border
  6
CONTINUOUS
 10
205.400000
 20
41.333333
 11
205.400000
 21
39.333333
 39
1
 62
0
  0
LINE
  8
border
  6
CONTINUOUS
 10
206.688889
 20
40.000000
 11
206.688889
 21
41.333333
 39
1
 62
0
  0
LINE
  8
border
  6
CONTINUOUS
 10
206.688889
 20
41.333333
 11
207.133333
 21
41.333333
 39
1
 62
0
  0
ARC
  8
border
  6
CONTINUOUS
 10
207.133333
 20
41.111111
 40
0.222222
 50
0.000000
 51
90.000000
 39
1
 62
0
  0
LINE
  8
border
  6
CONTINUOUS
 10
207.755556
 20
40.888889
 11
207.755556
 21
40.444444
 39
1
 62
0
  0
ARC
  8
border
  6
CONTINUOUS
 10
208.200000
 20
40.444444
 40
0.444444
 50
180.000000
 51
0.000000
 39
1
 62
0
  0
LINE
  8
border
  6
CONTINUOUS
 10
208.644444
 20
40.444444
 11
208.644444
 21
40.888889
 39
1
 62
0
  0
ARC
  8
border
  6
CONTINUOUS
 10
208.200000
 20
40.888889
 40
0.444444
 50
0.000000
 51
180.000000
 39
1
 62
0
  0
LINE
  8
border
  6
CONTINUOUS
 10
209.044444
 20
41.333333
 11
209.488889
 21
40.000000
 39
1
 62
0
  0
LINE
  8
border
  6
CONTINUOUS
 10
209.488889
 20
40.000000
 11
209.933333
 21
41.333333
 39
1
 62
0
  0
LINE
  8
border
  6
CONTINUOUS
 10
210.333333
 20
40.666667
 11
211.222222
 21
40.666667
 39
1
 62
0
  0
LINE
  8
border
  6
CONTINUOUS
 10
211.222222
 20
40.666667
 11
211.222222
 21
40.888889
 39
1
 62
0
  0
ARC
  8
border
  6
CONTINUOUS
 10
210.777778
 20
40.888889
 40
0.444444
 50
0.000000
 51
180.000000
 39
1
 62
0
  0
LINE
  8
border
  6
CONTINUOUS
 10
210.333333
 20
40.888889
 11
210.333333
 21
40.333333
 39
1
 62
0
  0
ARC
  8
border
  6
CONTINUOUS
 10
210.666667
 20
40.333333
 40
0.333333
 50
180.000000
 51
270.000000
 39
1
 62
0
  0
LINE
  8
border
  6
CONTINUOUS
 10
210.666667
 20
40.000000
 11
211.222222
 21
40.000000
 39
1
 62
0
  0
LINE
  8
border
  6
CONTINUOUS
 10
211.622222
 20
40.000000
 11
211.622222
 21
41.333333
 39
1
 62
0
  0
LINE
  8
border
  6
CONTINUOUS
 10
211.622222
 20
41.333333
 11
212.177778
 21
41.333333
 39
1
 62
0
  0
ARC
  8
border
  6
CONTINUOUS
 10
212.177778
 20
41.000000
 40
0.333333
 50
0.000000
 51
90.000000
 39
1
 62
0
  0
LINE
  8
border
  6
CONTINUOUS
 10
212.511111
 20
41.000000
 11
212.511111
 21
40.000000
 39
1
 62
0
  0
LINE
  8
border
  6
CONTINUOUS
 10
199.000000
 20
44.000000
 11
199.000000
 21
46.000000
 39
1
 62
0
  0
LINE
  8
border
  6
CONTINUOUS
 10
199.000000
 20
46.000000
 11
199.666667
 21
46.000000
 39
1
 62
0
  0
ARC
  8
border
  6
CONTINUOUS
 10
199.666667
 20
45.555556
 40
0.444444
 50
0.000000
 51
90.000000
 39
1
 62
0
  0
LINE
  8
border
  6
CONTINUOUS
 10
200.111111
 20
45.555556
 11
200.111111
 21
45.333333
 39
1
 62
0
  0
ARC
  8
border
  6
CONTINUOUS
 10
199.666667
 20
45.333333
 40
0.444444
 50
270.000000
 51
0.000000
 39
1
 62
0
  0
LINE
  8
border
  6
CONTINUOUS
 10
199.666667
 20
44.888889
 11
199.000000
 21
44.888889
 39
1
 62
0
  0
LINE
  8
border
  6
CONTINUOUS
 10
200.511111
 20
44.000000
 11
200.511111
 21
45.333333
 39
1
 62
0
  0
LINE
  8
border
  6
CONTINUOUS
 10
200.511111
 20
45.333333
 11
200.955556
 21
45.333333
 39
1
 62
0
  0
ARC
  8
border
  6
CONTINUOUS
 10
200.955556
 20
45.111111
 40
0.222222
 50
0.000000
 51
90.000000
 39
1
 62
0
  0
LINE
  8
border
  6
CONTINUOUS
 10
201.577778
 20
44.888889
 11
201.577778
 21
44.444444
 39
1
 62
0
  0
ARC
  8
border
  6
CONTINUOUS
 10
202.022222
 20
44.444444
 40
0.444444
 50
180.000000
 51
0.000000
 39
1
 62
0
  0
LINE
  8
border
  6
CONTINUOUS
 10
202.466667
 20
44.444444
 11
202.466667
 21
44.888889
 39
1
 62
0
  0
ARC
  8
border
  6
CONTINUOUS
 10
202.022222
 20
44.888889
 40
0.444444
 50
0.000000
 51
180.000000
 39
1
 62
0
  0
LINE
  8
border
  6
CONTINUOUS
 10
202.866667
 20
45.333333
 11
203.311111
 21
44.000000
 39
1
 62
0
  0
LINE
  8
border
  6
CONTINUOUS
 10
203.311111
 20
44.000000
 11
203.755556
 21
45.333333
 39
1
 62
0
  0
LINE
  8
border
  6
CONTINUOUS
 10
204.155556
 20
44.666667
 11
205.044444
 21
44.666667
 39
1
 62
0
  0
LINE
  8
border
  6
CONTINUOUS
 10
205.044444
 20
44.666667
 11
205.044444
 21
44.888889
 39
1
 62
0
  0
ARC
  8
border
  6
CONTINUOUS
 10
204.600000
 20
44.888889
 40
0.444444
 50
0.000000
 51
180.000000
 39
1
 62
0
  0
LINE
  8
border
  6
CONTINUOUS
 10
204.155556
 20
44.888889
 11
204.155556
 21
44.333333
 39
1
 62
0
  0
ARC
  8
border
  6
CONTINUOUS
 10
204.488889
 20
44.333333
 40
0.333333
 50
180.000000
 51
270.000000
 39
1
 62
0
  0
LINE
  8
border
  6
CONTINUOUS
 10
204.488889
 20
44.000000
 11
205.044444
 21
44.000000
 39
1
 62
0
  0
LINE
  8
border
  6
CONTINUOUS
 10
205.444444
 20
44.000000
 11
205.444444
 21
45.333333
 39
1
 62
0
  0
LINE
  8
border
  6
CONTINUOUS
 10
205.444444
 20
45.333333
 11
206.000000
 21
45.333333
 39
1
 62
0
  0
ARC
  8
border
  6
CONTINUOUS
 10
206.000000
 20
45.000000
 40
0.333333
 50
0.000000
 51
90.000000
 39
1
 62
0
  0
LINE
  8
border
  6
CONTINUOUS
 10
206.333333
 20
45.000000
 11
206.333333
 21
44.000000
 39
1
 62
0
  0
LINE
  8
border
  6
CONTINUOUS
 10
199.000000
 20
32.444444
 11
199.000000
 21
33.555556
 39
1
 62
0
  0
ARC
  8
border
  6
CONTINUOUS
 10
199.444444
 20
33.555556
 40
0.444444
 50
90.000000
 51
180.000000
 39
1
 62
0
  0
LINE
  8
border
  6
CONTINUOUS
 10
199.444444
 20
34.000000
 11
199.666667
 21
34.000000
 39
1
 62
0
  0
ARC
  8
border
  6
CONTINUOUS
 10
199.666667
 20
33.555556
 40
0.444444
 50
0.000000
 51
90.000000
 39
1
 62
0
  0
LINE
  8
border
  6
CONTINUOUS
 10
200.111111
 20
33.555556
 11
200.111111
 21
32.444444
 39
1
 62
0
  0
ARC
  8
border
  6
CONTINUOUS
 10
199.666667
 20
32.444444
 40
0.444444
 50
270.000000
 51
0.000000
 39
1
 62
0
  0
LINE
  8
border
  6
CONTINUOUS
 10
199.666667
 20
32.000000
 11
199.444444
 21
32.000000
 39
1
 62
0
  0
ARC
  8
border
  6
CONTINUOUS
 10
199.444444
 20
32.444444
 40
0.444444
 50
180.000000
 51
270.000000
 39
1
 62
0
  0
LINE
  8
border
  6
CONTINUOUS
 10
200.511111
 20
32.000000
 11
200.511111
 21
33.333333
 39
1
 62
0
  0
LINE
  8
border
  6
CONTINUOUS
 10
200.511111
 20
33.333333
 11
200.955556
 21
33.333333
 39
1
 62
0
  0
ARC
  8
border
  6
CONTINUOUS
 10
200.955556
 20
33.111111
 40
0.222222
 50
0.000000
 51
90.000000
 39
1
 62
0
  0
LINE
  8
border
  6
CONTINUOUS
 10
202.466667
 20
34.000000
 11
202.466667
 21
32.000000
 39
1
 62
0
  0
LINE
  8
border
  6
CONTINUOUS
 10
202.466667
 20
32.000000
 11
201.911111
 21
32.000000
 39
1
 62
0
  0
ARC
  8
border
  6
CONTINUOUS
 10
201.911111
 20
32.333333
 40
0.333333
 50
180.000000
 51
270.000000
 39
1
 62
0
  0
LINE
  8
border
  6
CONTINUOUS
 10
201.577778
 20
32.333333
 11
201.577778
 21
33.000000
 39
1
 62
0
  0
ARC
  8
border
  6
CONTINUOUS
 10
201.911111
 20
33.000000
 40
0.333333
 50
90.000000
 51
180.000000
 39
1
 62
0
  0
LINE
  8
border
  6
CONTINUOUS
 10
201.911111
 20
33.333333
 11
202.466667
 21
33.333333
 39
1
 62
0
  0
LINE
  8
border
  6
CONTINUOUS
 10
202.866667
 20
32.666667
 11
203.755556
 21
32.666667
 39
1
 62
0
  0
LINE
  8
border
  6
CONTINUOUS
 10
203.755556
 20
32.666667
 11
203.755556
 21
32.888889
 39
1
 62
0
  0
ARC
  8
border
  6
CONTINUOUS
 10
203.311111
 20
32.888889
 40
0.444444
 50
0.000000
 51
180.000000
 39
1
 62
0
  0
LINE
  8
border
  6
CONTINUOUS
 10
202.866667
 20
32.888889
 11
202.866667
 21
32.333333
 39
1
 62
0
  0
ARC
  8
border
  6
CONTINUOUS
 10
203.200000
 20
32.333333
 40
0.333333
 50
180.000000
 51
270.000000
 39
1
 62
0
  0
LINE
  8
border
  6
CONTINUOUS
 10
203.200000
 20
32.000000
 11
203.755556
 21
32.000000
 39
1
 62
0
  0
LINE
  8
border
  6
CONTINUOUS
 10
204.155556
 20
32.000000
 11
204.155556
 21
33.333333
 39
1
 62
0
  0
LINE
  8
border
  6
CONTINUOUS
 10
204.155556
 20
33.333333
 11
204.600000
 21
33.333333
 39
1
 62
0
  0
ARC
  8
border
  6
CONTINUOUS
 10
204.600000
 20
33.111111
 40
0.222222
 50
0.000000
 51
90.000000
 39
1
 62
0
  0
LINE
  8
border
  6
CONTINUOUS
 10
206.022222
 20
32.000000
 11
206.022222
 21
33.333333
 39
1
 62
0
  0
LINE
  8
border
  6
CONTINUOUS
 10
206.022222
 20
33.333333
 11
206.577778
 21
33.333333
 39
1
 62
0
  0
ARC
  8
border
  6
CONTINUOUS
 10
206.577778
 20
33.000000
 40
0.333333
 50
0.000000
 51
90.000000
 39
1
 62
0
  0
LINE
  8
border
  6
CONTINUOUS
 10
206.911111
 20
33.000000
 11
206.911111
 21
32.000000
 39
1
 62
0
  0
LINE
  8
border
  6
CONTINUOUS
 10
207.311111
 20
33.333333
 11
207.311111
 21
32.333333
 39
1
 62
0
  0
ARC
  8
border
  6
CONTINUOUS
 10
207.644444
 20
32.333333
 40
0.333333
 50
180.000000
 51
270.000000
 39
1
 62
0
  0
LINE
  8
border
  6
CONTINUOUS
 10
207.644444
 20
32.000000
 11
208.200000
 21
32.000000
 39
1
 62
0
  0
LINE
  8
border
  6
CONTINUOUS
 10
208.200000
 20
32.000000
 11
208.200000
 21
33.333333
 39
1
 62
0
  0
LINE
  8
border
  6
CONTINUOUS
 10
208.600000
 20
32.000000
 11
208.600000
 21
33.333333
 39
1
 62
0
  0
LINE
  8
border
  6
CONTINUOUS
 10
208.600000
 20
33.333333
 11
209.600000
 21
33.333333
 39
1
 62
0
  0
ARC
  8
border
  6
CONTINUOUS
 10
209.600000
 20
33.000000
 40
0.333333
 50
0.000000
 51
90.000000
 39
1
 62
0
  0
LINE
  8
border
  6
CONTINUOUS
 10
209.933333
 20
33.000000
 11
209.933333
 21
32.000000
 39
1
 62
0
  0
LINE
  8
border
  6
CONTINUOUS
 10
209.266667
 20
33.333333
 11
209.266667
 21
32.000000
 39
1
 62
0
  0
LINE
  8
border
  6
CONTINUOUS
 10
210.333333
 20
34.000000
 11
210.333333
 21
32.000000
 39
1
 62
0
  0
LINE
  8
border
  6
CONTINUOUS
 10
210.333333
 20
32.000000
 11
210.888889
 21
32.000000
 39
1
 62
0
  0
ARC
  8
border
  6
CONTINUOUS
 10
210.888889
 20
32.333333
 40
0.333333
 50
270.000000
 51
0.000000
 39
1
 62
0
  0
LINE
  8
border
  6
CONTINUOUS
 10
211.222222
 20
32.333333
 11
211.222222
 21
33.000000
 39
1
 62
0
  0
ARC
  8
border
  6
CONTINUOUS
 10
210.888889
 20
33.000000
 40
0.333333
 50
0.000000
 51
90.000000
 39
1
 62
0
  0
LINE
  8
border
  6
CONTINUOUS
 10
210.888889
 20
33.333333
 11
210.333333
 21
33.333333
 39
1
 62
0
  0
LINE
  8
border
  6
CONTINUOUS
 10
211.622222
 20
32.666667
 11
212.511111
 21
32.666667
 39
1
 62
0
  0
LINE
  8
border
  6
CONTINUOUS
 10
212.511111
 20
32.666667
 11
212.511111
 21
32.888889
 39
1
 62
0
  0
ARC
  8
border
  6
CONTINUOUS
 10
212.066667
 20
32.888889
 40
0.444444
 50
0.000000
 51
180.000000
 39
1
 62
0
  0
LINE
  8
border
  6
CONTINUOUS
 10
211.622222
 20
32.888889
 11
211.622222
 21
32.333333
 39
1
 62
0
  0
ARC
  8
border
  6
CONTINUOUS
 10
211.955556
 20
32.333333
 40
0.333333
 50
180.000000
 51
270.000000
 39
1
 62
0
  0
LINE
  8
border
  6
CONTINUOUS
 10
211.955556
 20
32.000000
 11
212.511111
 21
32.000000
 39
1
 62
0
  0
LINE
  8
border
  6
CONTINUOUS
 10
212.911111
 20
32.000000
 11
212.911111
 21
33.333333
 39
1
 62
0
  0
LINE
  8
border
  6
CONTINUOUS
 10
212.911111
 20
33.333333
 11
213.355556
 21
33.333333
 39
1
 62
0
  0
ARC
  8
border
  6
CONTINUOUS
 10
213.355556
 20
33.111111
 40
0.222222
 50
0.000000
 51
90.000000
 39
1
 62
0
  0
LINE
  8
border
  6
CONTINUOUS
 10
199.000000
 20
48.000000
 11
199.666667
 21
48.000000
 39
1
 62
0
  0
ARC
  8
border
  6
CONTINUOUS
 10
199.666667
 20
48.444444
 40
0.444444
 50
270.000000
 51
0.000000
 39
1
 62
0
  0
LINE
  8
border
  6
CONTINUOUS
 10
200.111111
 20
48.444444
 11
200.111111
 21
49.555556
 39
1
 62
0
  0
ARC
  8
border
  6
CONTINUOUS
 10
199.666667
 20
49.555556
 40
0.444444
 50
0.000000
 51
90.000000
 39
1
 62
0
  0
LINE
  8
border
  6
CONTINUOUS
 10
199.666667
 20
50.000000
 11
199.000000
 21
50.000000
 39
1
 62
0
  0
LINE
  8
border
  6
CONTINUOUS
 10
199.000000
 20
50.000000
 11
199.000000
 21
48.000000
 39
1
 62
0
  0
LINE
  8
border
  6
CONTINUOUS
 10
200.511111
 20
48.000000
 11
200.511111
 21
49.333333
 39
1
 62
0
  0
LINE
  8
border
  6
CONTINUOUS
 10
200.511111
 20
49.333333
 11
200.955556
 21
49.333333
 39
1
 62
0
  0
ARC
  8
border
  6
CONTINUOUS
 10
200.955556
 20
49.111111
 40
0.222222
 50
0.000000
 51
90.000000
 39
1
 62
0
  0
LINE
  8
border
  6
CONTINUOUS
 10
201.688889
 20
49.333333
 11
202.133333
 21
49.333333
 39
1
 62
0
  0
ARC
  8
border
  6
CONTINUOUS
 10
202.133333
 20
49.000000
 40
0.333333
 50
0.000000
 51
90.000000
 39
1
 62
0
  0
LINE
  8
border
  6
CONTINUOUS
 10
202.466667
 20
49.000000
 11
202.466667
 21
48.000000
 39
1
 62
0
  0
LINE
  8
border
  6
CONTINUOUS
 10
202.466667
 20
48.000000
 11
201.911111
 21
48.000000
 39
1
 62
0
  0
ARC
  8
border
  6
CONTINUOUS
 10
201.911111
 20
48.333333
 40
0.333333
 50
90.000000
 51
270.000000
 39
1
 62
0
  0
LINE
  8
border
  6
CONTINUOUS
 10
201.911111
 20
48.666667
 11
202.466667
 21
48.666667
 39
1
 62
0
  0
LINE
  8
border
  6
CONTINUOUS
 10
202.866667
 20
49.333333
 11
203.200000
 21
48.000000
 39
1
 62
0
  0
LINE
  8
border
  6
CONTINUOUS
 10
203.200000
 20
48.000000
 11
203.533333
 21
48.888889
 39
1
 62
0
  0
LINE
  8
border
  6
CONTINUOUS
 10
203.533333
 20
48.888889
 11
203.866667
 21
48.000000
 39
1
 62
0
  0
LINE
  8
border
  6
CONTINUOUS
 10
203.866667
 20
48.000000
 11
204.200000
 21
49.333333
 39
1
 62
0
  0
LINE
  8
border
  6
CONTINUOUS
 10
204.600000
 20
48.000000
 11
204.600000
 21
49.333333
 39
1
 62
0
  0
LINE
  8
border
  6
CONTINUOUS
 10
204.600000
 20
49.333333
 11
205.155556
 21
49.333333
 39
1
 62
0
  0
ARC
  8
border
  6
CONTINUOUS
 10
205.155556
 20
49.000000
 40
0.333333
 50
0.000000
 51
90.000000
 39
1
 62
0
  0
LINE
  8
border
  6
CONTINUOUS
 10
205.488889
 20
49.000000
 11
205.488889
 21
48.000000
 39
1
 62
0
  0
LINE
  8
border
  6
CONTINUOUS
 10
243.000000
 20
21.500000
 11
243.000000
 21
20.000000
 39
1
 62
0
  0
LINE
  8
border
  6
CONTINUOUS
 10
243.300000
 20
20.000000
 11
243.800000
 21
20.000000
 39
1
 62
0
  0
ARC
  8
border
  6
CONTINUOUS
 10
243.800000
 20
20.333333
 40
0.333333
 50
270.000000
 51
0.000000
 39
1
 62
0
  0
LINE
  8
border
  6
CONTINUOUS
 10
244.133333
 20
20.333333
 11
244.133333
 21
21.166667
 39
1
 62
0
  0
ARC
  8
border
  6
CONTINUOUS
 10
243.800000
 20
21.166667
 40
0.333333
 50
0.000000
 51
90.000000
 39
1
 62
0
  0
LINE
  8
border
  6
CONTINUOUS
 10
243.800000
 20
21.500000
 11
243.300000
 21
21.500000
 39
1
 62
0
  0
LINE
  8
border
  6
CONTINUOUS
 10
243.300000
 20
21.500000
 11
243.300000
 21
20.000000
 39
1
 62
0
  0
LINE
  8
border
  6
CONTINUOUS
 10
109.888889
 20
45.000000
 11
109.444444
 21
45.000000
 39
1
 62
0
  0
ARC
  8
border
  6
CONTINUOUS
 10
109.444444
 20
44.555556
 40
0.444444
 50
90.000000
 51
180.000000
 39
1
 62
0
  0
LINE
  8
border
  6
CONTINUOUS
 10
109.000000
 20
44.555556
 11
109.000000
 21
43.444444
 39
1
 62
0
  0
ARC
  8
border
  6
CONTINUOUS
 10
109.444444
 20
43.444444
 40
0.444444
 50
180.000000
 51
270.000000
 39
1
 62
0
  0
LINE
  8
border
  6
CONTINUOUS
 10
109.444444
 20
43.000000
 11
109.888889
 21
43.000000
 39
1
 62
0
  0
LINE
  8
border
  6
CONTINUOUS
 10
110.288889
 20
45.000000
 11
110.288889
 21
43.000000
 39
1
 62
0
  0
LINE
  8
border
  6
CONTINUOUS
 10
110.288889
 20
44.333333
 11
110.844444
 21
44.333333
 39
1
 62
0
  0
ARC
  8
border
  6
CONTINUOUS
 10
110.844444
 20
44.000000
 40
0.333333
 50
0.000000
 51
90.000000
 39
1
 62
0
  0
LINE
  8
border
  6
CONTINUOUS
 10
111.177778
 20
44.000000
 11
111.177778
 21
43.000000
 39
1
 62
0
  0
LINE
  8
border
  6
CONTINUOUS
 10
111.688889
 20
44.333333
 11
112.133333
 21
44.333333
 39
1
 62
0
  0
ARC
  8
border
  6
CONTINUOUS
 10
112.133333
 20
44.000000
 40
0.333333
 50
0.000000
 51
90.000000
 39
1
 62
0
  0
LINE
  8
border
  6
CONTINUOUS
 10
112.466667
 20
44.000000
 11
112.466667
 21
43.000000
 39
1
 62
0
  0
LINE
  8
border
  6
CONTINUOUS
 10
112.466667
 20
43.000000
 11
111.911111
 21
43.000000
 39
1
 62
0
  0
ARC
  8
border
  6
CONTINUOUS
 10
111.911111
 20
43.333333
 40
0.333333
 50
90.000000
 51
270.000000
 39
1
 62
0
  0
LINE
  8
border
  6
CONTINUOUS
 10
111.911111
 20
43.666667
 11
112.466667
 21
43.666667
 39
1
 62
0
  0
LINE
  8
border
  6
CONTINUOUS
 10
112.866667
 20
43.000000
 11
112.866667
 21
44.333333
 39
1
 62
0
  0
LINE
  8
border
  6
CONTINUOUS
 10
112.866667
 20
44.333333
 11
113.422222
 21
44.333333
 39
1
 62
0
  0
ARC
  8
border
  6
CONTINUOUS
 10
113.422222
 20
44.000000
 40
0.333333
 50
0.000000
 51
90.000000
 39
1
 62
0
  0
LINE
  8
border
  6
CONTINUOUS
 10
113.755556
 20
44.000000
 11
113.755556
 21
43.000000
 39
1
 62
0
  0
LINE
  8
border
  6
CONTINUOUS
 10
114.155556
 20
42.333333
 11
114.711111
 21
42.333333
 39
1
 62
0
  0
ARC
  8
border
  6
CONTINUOUS
 10
114.711111
 20
42.666667
 40
0.333333
 50
270.000000
 51
0.000000
 39
1
 62
0
  0
LINE
  8
border
  6
CONTINUOUS
 10
115.044444
 20
42.666667
 11
115.044444
 21
44.333333
 39
1
 62
0
  0
LINE
  8
border
  6
CONTINUOUS
 10
115.044444
 20
44.333333
 11
114.488889
 21
44.333333
 39
1
 62
0
  0
ARC
  8
border
  6
CONTINUOUS
 10
114.488889
 20
44.000000
 40
0.333333
 50
90.000000
 51
180.000000
 39
1
 62
0
  0
LINE
  8
border
  6
CONTINUOUS
 10
114.155556
 20
44.000000
 11
114.155556
 21
43.333333
 39
1
 62
0
  0
ARC
  8
border
  6
CONTINUOUS
 10
114.488889
 20
43.333333
 40
0.333333
 50
180.000000
 51
270.000000
 39
1
 62
0
  0
LINE
  8
border
  6
CONTINUOUS
 10
114.488889
 20
43.000000
 11
115.044444
 21
43.000000
 39
1
 62
0
  0
LINE
  8
border
  6
CONTINUOUS
 10
115.444444
 20
43.666667
 11
116.333333
 21
43.666667
 39
1
 62
0
  0
LINE
  8
border
  6
CONTINUOUS
 10
116.333333
 20
43.666667
 11
116.333333
 21
43.888889
 39
1
 62
0
  0
ARC
  8
border
  6
CONTINUOUS
 10
115.888889
 20
43.888889
 40
0.444444
 50
0.000000
 51
180.000000
 39
1
 62
0
  0
LINE
  8
border
  6
CONTINUOUS
 10
115.444444
 20
43.888889
 11
115.444444
 21
43.333333
 39
1
 62
0
  0
ARC
  8
border
  6
CONTINUOUS
 10
115.777778
 20
43.333333
 40
0.333333
 50
180.000000
 51
270.000000
 39
1
 62
0
  0
LINE
  8
border
  6
CONTINUOUS
 10
115.777778
 20
43.000000
 11
116.333333
 21
43.000000
 39
1
 62
0
  0
LINE
  8
border
  6
CONTINUOUS
 10
117.622222
 20
45.000000
 11
117.622222
 21
43.000000
 39
1
 62
0
  0
LINE
  8
border
  6
CONTINUOUS
 10
117.622222
 20
43.000000
 11
117.066667
 21
43.000000
 39
1
 62
0
  0
ARC
  8
border
  6
CONTINUOUS
 10
117.066667
 20
43.333333
 40
0.333333
 50
180.000000
 51
270.000000
 39
1
 62
0
  0
LINE
  8
border
  6
CONTINUOUS
 10
116.733333
 20
43.333333
 11
116.733333
 21
44.000000
 39
1
 62
0
  0
ARC
  8
border
  6
CONTINUOUS
 10
117.066667
 20
44.000000
 40
0.333333
 50
90.000000
 51
180.000000
 39
1
 62
0
  0
LINE
  8
border
  6
CONTINUOUS
 10
117.066667
 20
44.333333
 11
117.622222
 21
44.333333
 39
1
 62
0
  0
LINE
  8
border
  6
CONTINUOUS
 10
154.888889
 20
45.000000
 11
154.444444
 21
45.000000
 39
1
 62
0
  0
ARC
  8
border
  6
CONTINUOUS
 10
154.444444
 20
44.555556
 40
0.444444
 50
90.000000
 51
180.000000
 39
1
 62
0
  0
LINE
  8
border
  6
CONTINUOUS
 10
154.000000
 20
44.555556
 11
154.000000
 21
43.444444
 39
1
 62
0
  0
ARC
  8
border
  6
CONTINUOUS
 10
154.444444
 20
43.444444
 40
0.444444
 50
180.000000
 51
270.000000
 39
1
 62
0
  0
LINE
  8
border
  6
CONTINUOUS
 10
154.444444
 20
43.000000
 11
154.888889
 21
43.000000
 39
1
 62
0
  0
LINE
  8
border
  6
CONTINUOUS
 10
155.288889
 20
45.000000
 11
155.288889
 21
43.000000
 39
1
 62
0
  0
LINE
  8
border
  6
CONTINUOUS
 10
155.288889
 20
44.333333
 11
155.844444
 21
44.333333
 39
1
 62
0
  0
ARC
  8
border
  6
CONTINUOUS
 10
155.844444
 20
44.000000
 40
0.333333
 50
0.000000
 51
90.000000
 39
1
 62
0
  0
LINE
  8
border
  6
CONTINUOUS
 10
156.177778
 20
44.000000
 11
156.177778
 21
43.000000
 39
1
 62
0
  0
LINE
  8
border
  6
CONTINUOUS
 10
156.688889
 20
44.333333
 11
157.133333
 21
44.333333
 39
1
 62
0
  0
ARC
  8
border
  6
CONTINUOUS
 10
157.133333
 20
44.000000
 40
0.333333
 50
0.000000
 51
90.000000
 39
1
 62
0
  0
LINE
  8
border
  6
CONTINUOUS
 10
157.466667
 20
44.000000
 11
157.466667
 21
43.000000
 39
1
 62
0
  0
LINE
  8
border
  6
CONTINUOUS
 10
157.466667
 20
43.000000
 11
156.911111
 21
43.000000
 39
1
 62
0
  0
ARC
  8
border
  6
CONTINUOUS
 10
156.911111
 20
43.333333
 40
0.333333
 50
90.000000
 51
270.000000
 39
1
 62
0
  0
LINE
  8
border
  6
CONTINUOUS
 10
156.911111
 20
43.666667
 11
157.466667
 21
43.666667
 39
1
 62
0
  0
LINE
  8
border
  6
CONTINUOUS
 10
157.866667
 20
43.000000
 11
157.866667
 21
44.333333
 39
1
 62
0
  0
LINE
  8
border
  6
CONTINUOUS
 10
157.866667
 20
44.333333
 11
158.422222
 21
44.333333
 39
1
 62
0
  0
ARC
  8
border
  6
CONTINUOUS
 10
158.422222
 20
44.000000
 40
0.333333
 50
0.000000
 51
90.000000
 39
1
 62
0
  0
LINE
  8
border
  6
CONTINUOUS
 10
158.755556
 20
44.000000
 11
158.755556
 21
43.000000
 39
1
 62
0
  0
LINE
  8
border
  6
CONTINUOUS
 10
159.155556
 20
42.333333
 11
159.711111
 21
42.333333
 39
1
 62
0
  0
ARC
  8
border
  6
CONTINUOUS
 10
159.711111
 20
42.666667
 40
0.333333
 50
270.000000
 51
0.000000
 39
1
 62
0
  0
LINE
  8
border
  6
CONTINUOUS
 10
160.044444
 20
42.666667
 11
160.044444
 21
44.333333
 39
1
 62
0
  0
LINE
  8
border
  6
CONTINUOUS
 10
160.044444
 20
44.333333
 11
159.488889
 21
44.333333
 39
1
 62
0
  0
ARC
  8
border
  6
CONTINUOUS
 10
159.488889
 20
44.000000
 40
0.333333
 50
90.000000
 51
180.000000
 39
1
 62
0
  0
LINE
  8
border
  6
CONTINUOUS
 10
159.155556
 20
44.000000
 11
159.155556
 21
43.333333
 39
1
 62
0
  0
ARC
  8
border
  6
CONTINUOUS
 10
159.488889
 20
43.333333
 40
0.333333
 50
180.000000
 51
270.000000
 39
1
 62
0
  0
LINE
  8
border
  6
CONTINUOUS
 10
159.488889
 20
43.000000
 11
160.044444
 21
43.000000
 39
1
 62
0
  0
LINE
  8
border
  6
CONTINUOUS
 10
160.444444
 20
43.666667
 11
161.333333
 21
43.666667
 39
1
 62
0
  0
LINE
  8
border
  6
CONTINUOUS
 10
161.333333
 20
43.666667
 11
161.333333
 21
43.888889
 39
1
 62
0
  0
ARC
  8
border
  6
CONTINUOUS
 10
160.888889
 20
43.888889
 40
0.444444
 50
0.000000
 51
180.000000
 39
1
 62
0
  0
LINE
  8
border
  6
CONTINUOUS
 10
160.444444
 20
43.888889
 11
160.444444
 21
43.333333
 39
1
 62
0
  0
ARC
  8
border
  6
CONTINUOUS
 10
160.777778
 20
43.333333
 40
0.333333
 50
180.000000
 51
270.000000
 39
1
 62
0
  0
LINE
  8
border
  6
CONTINUOUS
 10
160.777778
 20
43.000000
 11
161.333333
 21
43.000000
 39
1
 62
0
  0
LINE
  8
border
  6
CONTINUOUS
 10
162.622222
 20
45.000000
 11
162.622222
 21
43.000000
 39
1
 62
0
  0
LINE
  8
border
  6
CONTINUOUS
 10
162.622222
 20
43.000000
 11
162.066667
 21
43.000000
 39
1
 62
0
  0
ARC
  8
border
  6
CONTINUOUS
 10
162.066667
 20
43.333333
 40
0.333333
 50
180.000000
 51
270.000000
 39
1
 62
0
  0
LINE
  8
border
  6
CONTINUOUS
 10
161.733333
 20
43.333333
 11
161.733333
 21
44.000000
 39
1
 62
0
  0
ARC
  8
border
  6
CONTINUOUS
 10
162.066667
 20
44.000000
 40
0.333333
 50
90.000000
 51
180.000000
 39
1
 62
0
  0
LINE
  8
border
  6
CONTINUOUS
 10
162.066667
 20
44.333333
 11
162.622222
 21
44.333333
 39
1
 62
0
  0
LINE
  8
border
  6
CONTINUOUS
 10
121.083822
 20
13.000000
 11
124.044570
 21
17.829633
 39
2
 62
0
  0
LINE
  8
border
  6
CONTINUOUS
 10
124.044570
 20
17.829633
 11
124.417156
 21
13.000000
 39
2
 62
0
  0
LINE
  8
border
  6
CONTINUOUS
 10
124.313667
 20
14.341567
 11
121.906271
 21
14.341567
 39
2
 62
0
  0
LINE
  8
border
  6
CONTINUOUS
 10
124.917156
 20
13.000000
 11
126.211237
 21
17.829633
 39
2
 62
0
  0
LINE
  8
border
  6
CONTINUOUS
 10
126.211237
 20
17.829633
 11
127.540989
 21
17.829628
 39
2
 62
0
  0
ARC
  8
border
  6
CONTINUOUS
 10
127.540989
 20
16.718511
 40
1.111117
 50
345.000000
 51
90.000000
 39
2
 62
0
  0
LINE
  8
border
  6
CONTINUOUS
 10
128.614258
 20
16.430944
 11
128.490764
 21
15.970039
 39
2
 62
0
  0
ARC
  8
border
  6
CONTINUOUS
 10
127.417495
 20
16.257617
 40
1.111117
 50
270.000000
 51
345.000000
 39
2
 62
0
  0
LINE
  8
border
  6
CONTINUOUS
 10
127.417495
 20
15.146500
 11
125.492310
 21
15.146500
 39
2
 62
0
  0
ARC
  8
border
  6
CONTINUOUS
 10
131.805067
 20
15.622711
 40
2.234450
 50
60.180870
 51
119.451851
 39
2
 62
0
  0
ARC
  8
border
  6
CONTINUOUS
 10
131.176099
 20
16.736583
 40
0.955261
 50
119.451851
 51
241.107330
 39
2
 62
0
  0
LINE
  8
border
  6
CONTINUOUS
 10
130.714572
 20
15.900228
 11
131.626810
 21
15.396800
 39
2
 62
0
  0
ARC
  8
border
  6
CONTINUOUS
 10
131.020493
 20
14.298144
 40
1.254850
 50
291.921448
 51
61.107311
 39
2
 62
0
  0
ARC
  8
border
  6
CONTINUOUS
 10
130.654757
 20
15.206922
 40
2.234450
 50
231.799301
 51
291.921448
 39
2
 62
0
  0
LINE
  8
border
  6
CONTINUOUS
 10
109.666667
 20
21.500000
 11
109.000000
 21
21.500000
 39
1
 62
0
  0
LINE
  8
border
  6
CONTINUOUS
 10
109.000000
 20
21.500000
 11
109.000000
 21
20.000000
 39
1
 62
0
  0
LINE
  8
border
  6
CONTINUOUS
 10
109.000000
 20
20.833333
 11
109.666667
 21
20.833333
 39
1
 62
0
  0
LINE
  8
border
  6
CONTINUOUS
 10
109.966667
 20
20.000000
 11
109.966667
 21
21.000000
 39
1
 62
0
  0
LINE
  8
border
  6
CONTINUOUS
 10
109.966667
 20
21.416667
 11
109.966667
 21
21.500000
 39
1
 62
0
  0
LINE
  8
border
  6
CONTINUOUS
 10
110.266667
 20
20.000000
 11
110.266667
 21
21.000000
 39
1
 62
0
  0
LINE
  8
border
  6
CONTINUOUS
 10
110.266667
 20
21.000000
 11
110.600000
 21
21.000000
 39
1
 62
0
  0
ARC
  8
border
  6
CONTINUOUS
 10
110.600000
 20
20.833333
 40
0.166667
 50
0.000000
 51
90.000000
 39
1
 62
0
  0
LINE
  8
border
  6
CONTINUOUS
 10
111.066667
 20
20.000000
 11
111.066667
 21
21.000000
 39
1
 62
0
  0
LINE
  8
border
  6
CONTINUOUS
 10
111.066667
 20
21.000000
 11
111.816667
 21
21.000000
 39
1
 62
0
  0
ARC
  8
border
  6
CONTINUOUS
 10
111.816667
 20
20.750000
 40
0.250000
 50
0.000000
 51
90.000000
 39
1
 62
0
  0
LINE
  8
border
  6
CONTINUOUS
 10
112.066667
 20
20.750000
 11
112.066667
 21
20.000000
 39
1
 62
0
  0
LINE
  8
border
  6
CONTINUOUS
 10
111.566667
 20
21.000000
 11
111.566667
 21
20.000000
 39
1
 62
0
  0
LINE
  8
border
  6
CONTINUOUS
 10
109.000000
 20
53.000000
 11
109.000000
 21
55.000000
 39
1
 62
0
  0
LINE
  8
border
  6
CONTINUOUS
 10
109.000000
 20
55.000000
 11
109.666667
 21
55.000000
 39
1
 62
0
  0
ARC
  8
border
  6
CONTINUOUS
 10
109.666667
 20
54.555556
 40
0.444444
 50
0.000000
 51
90.000000
 39
1
 62
0
  0
LINE
  8
border
  6
CONTINUOUS
 10
110.111111
 20
54.555556
 11
110.111111
 21
54.333333
 39
1
 62
0
  0
ARC
  8
border
  6
CONTINUOUS
 10
109.666667
 20
54.333333
 40
0.444444
 50
270.000000
 51
0.000000
 39
1
 62
0
  0
LINE
  8
border
  6
CONTINUOUS
 10
109.666667
 20
53.888889
 11
109.000000
 21
53.888889
 39
1
 62
0
  0
LINE
  8
border
  6
CONTINUOUS
 10
110.511111
 20
53.888889
 11
110.511111
 21
53.444444
 39
1
 62
0
  0
ARC
  8
border
  6
CONTINUOUS
 10
110.955556
 20
53.444444
 40
0.444444
 50
180.000000
 51
0.000000
 39
1
 62
0
  0
LINE
  8
border
  6
CONTINUOUS
 10
111.400000
 20
53.444444
 11
111.400000
 21
53.888889
 39
1
 62
0
  0
ARC
  8
border
  6
CONTINUOUS
 10
110.955556
 20
53.888889
 40
0.444444
 50
0.000000
 51
180.000000
 39
1
 62
0
  0
ARC
  8
border
  6
CONTINUOUS
 10
112.280930
 20
53.404640
 40
0.901622
 50
63.097370
 51
108.275520
 39
1
 62
0
  0
ARC
  8
border
  6
CONTINUOUS
 10
112.081820
 20
54.007569
 40
0.266667
 50
108.274567
 51
247.790543
 39
1
 62
0
  0
LINE
  8
border
  6
CONTINUOUS
 10
111.981017
 20
53.760687
 11
112.507872
 21
53.545576
 39
1
 62
0
  0
ARC
  8
border
  6
CONTINUOUS
 10
112.407069
 20
53.298693
 40
0.266664
 50
288.274933
 51
67.791191
 39
1
 62
0
  0
ARC
  8
border
  6
CONTINUOUS
 10
112.207959
 20
53.901627
 40
0.901627
 50
243.097656
 51
288.275513
 39
1
 62
0
  0
LINE
  8
border
  6
CONTINUOUS
 10
113.088892
 20
53.000000
 11
113.088892
 21
53.111111
 39
1
 62
0
  0
LINE
  8
border
  6
CONTINUOUS
 10
119.000000
 20
53.000000
 11
119.000000
 21
55.000000
 39
1
 62
0
  0
LINE
  8
border
  6
CONTINUOUS
 10
119.000000
 20
55.000000
 11
120.111111
 21
53.000000
 39
1
 62
0
  0
LINE
  8
border
  6
CONTINUOUS
 10
120.111111
 20
53.000000
 11
120.111111
 21
55.000000
 39
1
 62
0
  0
LINE
  8
border
  6
CONTINUOUS
 10
120.511111
 20
54.333333
 11
120.511111
 21
53.333333
 39
1
 62
0
  0
ARC
  8
border
  6
CONTINUOUS
 10
120.844444
 20
53.333333
 40
0.333333
 50
180.000000
 51
270.000000
 39
1
 62
0
  0
LINE
  8
border
  6
CONTINUOUS
 10
120.844444
 20
53.000000
 11
121.400000
 21
53.000000
 39
1
 62
0
  0
LINE
  8
border
  6
CONTINUOUS
 10
121.400000
 20
53.000000
 11
121.400000
 21
54.333333
 39
1
 62
0
  0
LINE
  8
border
  6
CONTINUOUS
 10
121.800000
 20
53.000000
 11
121.800000
 21
54.333333
 39
1
 62
0
  0
LINE
  8
border
  6
CONTINUOUS
 10
121.800000
 20
54.333333
 11
122.800000
 21
54.333333
 39
1
 62
0
  0
ARC
  8
border
  6
CONTINUOUS
 10
122.800000
 20
54.000000
 40
0.333333
 50
0.000000
 51
90.000000
 39
1
 62
0
  0
LINE
  8
border
  6
CONTINUOUS
 10
123.133333
 20
54.000000
 11
123.133333
 21
53.000000
 39
1
 62
0
  0
LINE
  8
border
  6
CONTINUOUS
 10
122.466667
 20
54.333333
 11
122.466667
 21
53.000000
 39
1
 62
0
  0
LINE
  8
border
  6
CONTINUOUS
 10
123.533333
 20
53.000000
 11
123.533333
 21
53.111111
 39
1
 62
0
  0
LINE
  8
border
  6
CONTINUOUS
 10
129.000000
 20
55.000000
 11
129.000000
 21
53.555556
 39
1
 62
0
  0
ARC
  8
border
  6
CONTINUOUS
 10
129.555556
 20
53.555556
 40
0.555556
 50
180.000000
 51
0.000000
 39
1
 62
0
  0
LINE
  8
border
  6
CONTINUOUS
 10
130.111111
 20
53.555556
 11
130.111111
 21
55.000000
 39
1
 62
0
  0
LINE
  8
border
  6
CONTINUOUS
 10
130.511111
 20
53.000000
 11
130.511111
 21
54.333333
 39
1
 62
0
  0
LINE
  8
border
  6
CONTINUOUS
 10
130.511111
 20
54.333333
 11
131.066667
 21
54.333333
 39
1
 62
0
  0
ARC
  8
border
  6
CONTINUOUS
 10
131.066667
 20
54.000000
 40
0.333333
 50
0.000000
 51
90.000000
 39
1
 62
0
  0
LINE
  8
border
  6
CONTINUOUS
 10
131.400000
 20
54.000000
 11
131.400000
 21
53.000000
 39
1
 62
0
  0
LINE
  8
border
  6
CONTINUOUS
 10
131.800000
 20
53.000000
 11
131.800000
 21
54.333333
 39
1
 62
0
  0
LINE
  8
border
  6
CONTINUOUS
 10
131.800000
 20
54.888889
 11
131.800000
 21
55.000000
 39
1
 62
0
  0
LINE
  8
border
  6
CONTINUOUS
 10
132.200000
 20
54.333333
 11
132.866667
 21
54.333333
 39
1
 62
0
  0
LINE
  8
border
  6
CONTINUOUS
 10
132.422222
 20
55.000000
 11
132.422222
 21
53.000000
 39
1
 62
0
  0
LINE
  8
border
  6
CONTINUOUS
 10
139.000000
 20
53.000000
 11
139.666667
 21
55.000000
 39
1
 62
0
  0
LINE
  8
border
  6
CONTINUOUS
 10
139.666667
 20
55.000000
 11
140.333333
 21
53.000000
 39
1
 62
0
  0
LINE
  8
border
  6
CONTINUOUS
 10
139.185181
 20
53.555556
 11
140.148153
 21
53.555556
 39
1
 62
0
  0
LINE
  8
border
  6
CONTINUOUS
 10
140.733333
 20
53.000000
 11
140.733333
 21
54.333333
 39
1
 62
0
  0
LINE
  8
border
  6
CONTINUOUS
 10
140.733333
 20
54.333333
 11
141.177778
 21
54.333333
 39
1
 62
0
  0
ARC
  8
border
  6
CONTINUOUS
 10
141.177778
 20
54.111111
 40
0.222222
 50
0.000000
 51
90.000000
 39
1
 62
0
  0
LINE
  8
border
  6
CONTINUOUS
 10
141.800000
 20
54.333333
 11
142.466667
 21
54.333333
 39
1
 62
0
  0
LINE
  8
border
  6
CONTINUOUS
 10
142.022222
 20
55.000000
 11
142.022222
 21
53.000000
 39
1
 62
0
  0
LINE
  8
border
  6
CONTINUOUS
 10
142.866667
 20
53.000000
 11
142.866667
 21
54.333333
 39
1
 62
0
  0
LINE
  8
border
  6
CONTINUOUS
 10
142.866667
 20
54.888889
 11
142.866667
 21
55.000000
 39
1
 62
0
  0
LINE
  8
border
  6
CONTINUOUS
 10
143.933333
 20
54.333333
 11
143.600000
 21
54.333333
 39
1
 62
0
  0
ARC
  8
border
  6
CONTINUOUS
 10
143.600000
 20
54.000000
 40
0.333333
 50
90.000000
 51
180.000000
 39
1
 62
0
  0
LINE
  8
border
  6
CONTINUOUS
 10
143.266667
 20
54.000000
 11
143.266667
 21
53.333333
 39
1
 62
0
  0
ARC
  8
border
  6
CONTINUOUS
 10
143.600000
 20
53.333333
 40
0.333333
 50
180.000000
 51
270.000000
 39
1
 62
0
  0
LINE
  8
border
  6
CONTINUOUS
 10
143.600000
 20
53.000000
 11
143.933333
 21
53.000000
 39
1
 62
0
  0
LINE
  8
border
  6
CONTINUOUS
 10
144.333333
 20
55.000000
 11
144.333333
 21
53.222222
 39
1
 62
0
  0
ARC
  8
border
  6
CONTINUOUS
 10
144.555556
 20
53.222222
 40
0.222222
 50
180.000000
 51
270.000000
 39
1
 62
0
  0
LINE
  8
border
  6
CONTINUOUS
 10
144.955556
 20
53.666667
 11
145.844444
 21
53.666667
 39
1
 62
0
  0
LINE
  8
border
  6
CONTINUOUS
 10
145.844444
 20
53.666667
 11
145.844444
 21
53.888889
 39
1
 62
0
  0
ARC
  8
border
  6
CONTINUOUS
 10
145.400000
 20
53.888889
 40
0.444444
 50
0.000000
 51
180.000000
 39
1
 62
0
  0
LINE
  8
border
  6
CONTINUOUS
 10
144.955556
 20
53.888889
 11
144.955556
 21
53.333333
 39
1
 62
0
  0
ARC
  8
border
  6
CONTINUOUS
 10
145.288889
 20
53.333333
 40
0.333333
 50
180.000000
 51
270.000000
 39
1
 62
0
  0
LINE
  8
border
  6
CONTINUOUS
 10
145.288889
 20
53.000000
 11
145.844444
 21
53.000000
 39
1
 62
0
  0
LINE
  8
border
  6
CONTINUOUS
 10
147.933333
 20
55.000000
 11
147.488889
 21
55.000000
 39
1
 62
0
  0
ARC
  8
border
  6
CONTINUOUS
 10
147.488889
 20
54.555556
 40
0.444444
 50
90.000000
 51
180.000000
 39
1
 62
0
  0
LINE
  8
border
  6
CONTINUOUS
 10
147.044444
 20
54.555556
 11
147.044444
 21
53.444444
 39
1
 62
0
  0
ARC
  8
border
  6
CONTINUOUS
 10
147.488889
 20
53.444444
 40
0.444444
 50
180.000000
 51
270.000000
 39
1
 62
0
  0
LINE
  8
border
  6
CONTINUOUS
 10
147.488889
 20
53.000000
 11
147.933333
 21
53.000000
 39
1
 62
0
  0
LINE
  8
border
  6
CONTINUOUS
 10
148.333333
 20
53.888889
 11
148.333333
 21
53.444444
 39
1
 62
0
  0
ARC
  8
border
  6
CONTINUOUS
 10
148.777778
 20
53.444444
 40
0.444444
 50
180.000000
 51
0.000000
 39
1
 62
0
  0
LINE
  8
border
  6
CONTINUOUS
 10
149.222222
 20
53.444444
 11
149.222222
 21
53.888889
 39
1
 62
0
  0
ARC
  8
border
  6
CONTINUOUS
 10
148.777778
 20
53.888889
 40
0.444444
 50
0.000000
 51
180.000000
 39
1
 62
0
  0
LINE
  8
border
  6
CONTINUOUS
 10
150.511111
 20
55.000000
 11
150.511111
 21
53.000000
 39
1
 62
0
  0
LINE
  8
border
  6
CONTINUOUS
 10
150.511111
 20
53.000000
 11
149.955556
 21
53.000000
 39
1
 62
0
  0
ARC
  8
border
  6
CONTINUOUS
 10
149.955556
 20
53.333333
 40
0.333333
 50
180.000000
 51
270.000000
 39
1
 62
0
  0
LINE
  8
border
  6
CONTINUOUS
 10
149.622222
 20
53.333333
 11
149.622222
 21
54.000000
 39
1
 62
0
  0
ARC
  8
border
  6
CONTINUOUS
 10
149.955556
 20
54.000000
 40
0.333333
 50
90.000000
 51
180.000000
 39
1
 62
0
  0
LINE
  8
border
  6
CONTINUOUS
 10
149.955556
 20
54.333333
 11
150.511111
 21
54.333333
 39
1
 62
0
  0
LINE
  8
border
  6
CONTINUOUS
 10
150.911111
 20
53.666667
 11
151.800000
 21
53.666667
 39
1
 62
0
  0
LINE
  8
border
  6
CONTINUOUS
 10
151.800000
 20
53.666667
 11
151.800000
 21
53.888889
 39
1
 62
0
  0
ARC
  8
border
  6
CONTINUOUS
 10
151.355556
 20
53.888889
 40
0.444444
 50
0.000000
 51
180.000000
 39
1
 62
0
  0
LINE
  8
border
  6
CONTINUOUS
 10
150.911111
 20
53.888889
 11
150.911111
 21
53.333333
 39
1
 62
0
  0
ARC
  8
border
  6
CONTINUOUS
 10
151.244444
 20
53.333333
 40
0.333333
 50
180.000000
 51
270.000000
 39
1
 62
0
  0
LINE
  8
border
  6
CONTINUOUS
 10
151.244444
 20
53.000000
 11
151.800000
 21
53.000000
 39
1
 62
0
  0
LINE
  8
border
  6
CONTINUOUS
 10
149.000000
 20
24.000000
 11
149.666667
 21
26.000000
 39
1
 62
0
  0
LINE
  8
border
  6
CONTINUOUS
 10
149.666667
 20
26.000000
 11
150.333333
 21
24.000000
 39
1
 62
0
  0
LINE
  8
border
  6
CONTINUOUS
 10
149.185181
 20
24.555556
 11
150.148153
 21
24.555556
 39
1
 62
0
  0
LINE
  8
border
  6
CONTINUOUS
 10
150.733333
 20
24.000000
 11
150.733333
 21
25.333333
 39
1
 62
0
  0
LINE
  8
border
  6
CONTINUOUS
 10
150.733333
 20
25.333333
 11
151.177778
 21
25.333333
 39
1
 62
0
  0
ARC
  8
border
  6
CONTINUOUS
 10
151.177778
 20
25.111111
 40
0.222222
 50
0.000000
 51
90.000000
 39
1
 62
0
  0
LINE
  8
border
  6
CONTINUOUS
 10
151.800000
 20
25.333333
 11
152.466667
 21
25.333333
 39
1
 62
0
  0
LINE
  8
border
  6
CONTINUOUS
 10
152.022222
 20
26.000000
 11
152.022222
 21
24.000000
 39
1
 62
0
  0
LINE
  8
border
  6
CONTINUOUS
 10
152.866667
 20
24.000000
 11
152.866667
 21
25.333333
 39
1
 62
0
  0
LINE
  8
border
  6
CONTINUOUS
 10
152.866667
 20
25.888889
 11
152.866667
 21
26.000000
 39
1
 62
0
  0
LINE
  8
border
  6
CONTINUOUS
 10
153.933333
 20
25.333333
 11
153.600000
 21
25.333333
 39
1
 62
0
  0
ARC
  8
border
  6
CONTINUOUS
 10
153.600000
 20
25.000000
 40
0.333333
 50
90.000000
 51
180.000000
 39
1
 62
0
  0
LINE
  8
border
  6
CONTINUOUS
 10
153.266667
 20
25.000000
 11
153.266667
 21
24.333333
 39
1
 62
0
  0
ARC
  8
border
  6
CONTINUOUS
 10
153.600000
 20
24.333333
 40
0.333333
 50
180.000000
 51
270.000000
 39
1
 62
0
  0
LINE
  8
border
  6
CONTINUOUS
 10
153.600000
 20
24.000000
 11
153.933333
 21
24.000000
 39
1
 62
0
  0
LINE
  8
border
  6
CONTINUOUS
 10
154.333333
 20
26.000000
 11
154.333333
 21
24.222222
 39
1
 62
0
  0
ARC
  8
border
  6
CONTINUOUS
 10
154.555556
 20
24.222222
 40
0.222222
 50
180.000000
 51
270.000000
 39
1
 62
0
  0
LINE
  8
border
  6
CONTINUOUS
 10
154.955556
 20
24.666667
 11
155.844444
 21
24.666667
 39
1
 62
0
  0
LINE
  8
border
  6
CONTINUOUS
 10
155.844444
 20
24.666667
 11
155.844444
 21
24.888889
 39
1
 62
0
  0
ARC
  8
border
  6
CONTINUOUS
 10
155.400000
 20
24.888889
 40
0.444444
 50
0.000000
 51
180.000000
 39
1
 62
0
  0
LINE
  8
border
  6
CONTINUOUS
 10
154.955556
 20
24.888889
 11
154.955556
 21
24.333333
 39
1
 62
0
  0
ARC
  8
border
  6
CONTINUOUS
 10
155.288889
 20
24.333333
 40
0.333333
 50
180.000000
 51
270.000000
 39
1
 62
0
  0
LINE
  8
border
  6
CONTINUOUS
 10
155.288889
 20
24.000000
 11
155.844444
 21
24.000000
 39
1
 62
0
  0
LINE
  8
border
  6
CONTINUOUS
 10
157.933333
 20
26.000000
 11
157.488889
 21
26.000000
 39
1
 62
0
  0
ARC
  8
border
  6
CONTINUOUS
 10
157.488889
 20
25.555556
 40
0.444444
 50
90.000000
 51
180.000000
 39
1
 62
0
  0
LINE
  8
border
  6
CONTINUOUS
 10
157.044444
 20
25.555556
 11
157.044444
 21
24.444444
 39
1
 62
0
  0
ARC
  8
border
  6
CONTINUOUS
 10
157.488889
 20
24.444444
 40
0.444444
 50
180.000000
 51
270.000000
 39
1
 62
0
  0
LINE
  8
border
  6
CONTINUOUS
 10
157.488889
 20
24.000000
 11
157.933333
 21
24.000000
 39
1
 62
0
  0
LINE
  8
border
  6
CONTINUOUS
 10
158.333333
 20
24.888889
 11
158.333333
 21
24.444444
 39
1
 62
0
  0
ARC
  8
border
  6
CONTINUOUS
 10
158.777778
 20
24.444444
 40
0.444444
 50
180.000000
 51
0.000000
 39
1
 62
0
  0
LINE
  8
border
  6
CONTINUOUS
 10
159.222222
 20
24.444444
 11
159.222222
 21
24.888889
 39
1
 62
0
  0
ARC
  8
border
  6
CONTINUOUS
 10
158.777778
 20
24.888889
 40
0.444444
 50
0.000000
 51
180.000000
 39
1
 62
0
  0
LINE
  8
border
  6
CONTINUOUS
 10
160.511111
 20
26.000000
 11
160.511111
 21
24.000000
 39
1
 62
0
  0
LINE
  8
border
  6
CONTINUOUS
 10
160.511111
 20
24.000000
 11
159.955556
 21
24.000000
 39
1
 62
0
  0
ARC
  8
border
  6
CONTINUOUS
 10
159.955556
 20
24.333333
 40
0.333333
 50
180.000000
 51
270.000000
 39
1
 62
0
  0
LINE
  8
border
  6
CONTINUOUS
 10
159.622222
 20
24.333333
 11
159.622222
 21
25.000000
 39
1
 62
0
  0
ARC
  8
border
  6
CONTINUOUS
 10
159.955556
 20
25.000000
 40
0.333333
 50
90.000000
 51
180.000000
 39
1
 62
0
  0
LINE
  8
border
  6
CONTINUOUS
 10
159.955556
 20
25.333333
 11
160.511111
 21
25.333333
 39
1
 62
0
  0
LINE
  8
border
  6
CONTINUOUS
 10
160.911111
 20
24.666667
 11
161.800000
 21
24.666667
 39
1
 62
0
  0
LINE
  8
border
  6
CONTINUOUS
 10
161.800000
 20
24.666667
 11
161.800000
 21
24.888889
 39
1
 62
0
  0
ARC
  8
border
  6
CONTINUOUS
 10
161.355556
 20
24.888889
 40
0.444444
 50
0.000000
 51
180.000000
 39
1
 62
0
  0
LINE
  8
border
  6
CONTINUOUS
 10
160.911111
 20
24.888889
 11
160.911111
 21
24.333333
 39
1
 62
0
  0
ARC
  8
border
  6
CONTINUOUS
 10
161.244444
 20
24.333333
 40
0.333333
 50
180.000000
 51
270.000000
 39
1
 62
0
  0
LINE
  8
border
  6
CONTINUOUS
 10
161.244444
 20
24.000000
 11
161.800000
 21
24.000000
 39
1
 62
0
  0
LINE
  8
border
  6
CONTINUOUS
 10
179.000000
 20
53.000000
 11
179.666667
 21
53.000000
 39
1
 62
0
  0
ARC
  8
border
  6
CONTINUOUS
 10
179.666667
 20
53.444444
 40
0.444444
 50
270.000000
 51
0.000000
 39
1
 62
0
  0
LINE
  8
border
  6
CONTINUOUS
 10
180.111111
 20
53.444444
 11
180.111111
 21
54.555556
 39
1
 62
0
  0
ARC
  8
border
  6
CONTINUOUS
 10
179.666667
 20
54.555556
 40
0.444444
 50
0.000000
 51
90.000000
 39
1
 62
0
  0
LINE
  8
border
  6
CONTINUOUS
 10
179.666667
 20
55.000000
 11
179.000000
 21
55.000000
 39
1
 62
0
  0
LINE
  8
border
  6
CONTINUOUS
 10
179.000000
 20
55.000000
 11
179.000000
 21
53.000000
 39
1
 62
0
  0
LINE
  8
border
  6
CONTINUOUS
 10
180.511111
 20
53.666667
 11
181.400000
 21
53.666667
 39
1
 62
0
  0
LINE
  8
border
  6
CONTINUOUS
 10
181.400000
 20
53.666667
 11
181.400000
 21
53.888889
 39
1
 62
0
  0
ARC
  8
border
  6
CONTINUOUS
 10
180.955556
 20
53.888889
 40
0.444444
 50
0.000000
 51
180.000000
 39
1
 62
0
  0
LINE
  8
border
  6
CONTINUOUS
 10
180.511111
 20
53.888889
 11
180.511111
 21
53.333333
 39
1
 62
0
  0
ARC
  8
border
  6
CONTINUOUS
 10
180.844444
 20
53.333333
 40
0.333333
 50
180.000000
 51
270.000000
 39
1
 62
0
  0
LINE
  8
border
  6
CONTINUOUS
 10
180.844444
 20
53.000000
 11
181.400000
 21
53.000000
 39
1
 62
0
  0
ARC
  8
border
  6
CONTINUOUS
 10
182.280930
 20
53.404640
 40
0.901622
 50
63.097370
 51
108.275520
 39
1
 62
0
  0
ARC
  8
border
  6
CONTINUOUS
 10
182.081820
 20
54.007569
 40
0.266667
 50
108.274567
 51
247.790543
 39
1
 62
0
  0
LINE
  8
border
  6
CONTINUOUS
 10
181.981017
 20
53.760687
 11
182.507872
 21
53.545576
 39
1
 62
0
  0
ARC
  8
border
  6
CONTINUOUS
 10
182.407069
 20
53.298693
 40
0.266664
 50
288.274933
 51
67.791191
 39
1
 62
0
  0
ARC
  8
border
  6
CONTINUOUS
 10
182.207959
 20
53.901627
 40
0.901627
 50
243.097656
 51
288.275513
 39
1
 62
0
  0
LINE
  8
border
  6
CONTINUOUS
 10
183.755559
 20
54.333333
 11
183.422225
 21
54.333333
 39
1
 62
0
  0
ARC
  8
border
  6
CONTINUOUS
 10
183.422225
 20
54.000000
 40
0.333333
 50
90.000000
 51
180.000000
 39
1
 62
0
  0
LINE
  8
border
  6
CONTINUOUS
 10
183.088892
 20
54.000000
 11
183.088892
 21
53.333333
 39
1
 62
0
  0
ARC
  8
border
  6
CONTINUOUS
 10
183.422225
 20
53.333333
 40
0.333333
 50
180.000000
 51
270.000000
 39
1
 62
0
  0
LINE
  8
border
  6
CONTINUOUS
 10
183.422225
 20
53.000000
 11
183.755559
 21
53.000000
 39
1
 62
0
  0
LINE
  8
border
  6
CONTINUOUS
 10
184.155559
 20
53.000000
 11
184.155559
 21
54.333333
 39
1
 62
0
  0
LINE
  8
border
  6
CONTINUOUS
 10
184.155559
 20
54.333333
 11
184.600003
 21
54.333333
 39
1
 62
0
  0
ARC
  8
border
  6
CONTINUOUS
 10
184.600003
 20
54.111111
 40
0.222222
 50
0.000000
 51
90.000000
 39
1
 62
0
  0
LINE
  8
border
  6
CONTINUOUS
 10
185.222225
 20
53.000000
 11
185.222225
 21
54.333333
 39
1
 62
0
  0
LINE
  8
border
  6
CONTINUOUS
 10
185.222225
 20
54.888889
 11
185.222225
 21
55.000000
 39
1
 62
0
  0
LINE
  8
border
  6
CONTINUOUS
 10
185.622225
 20
53.000000
 11
186.177781
 21
53.000000
 39
1
 62
0
  0
ARC
  8
border
  6
CONTINUOUS
 10
186.177781
 20
53.333333
 40
0.333333
 50
270.000000
 51
0.000000
 39
1
 62
0
  0
LINE
  8
border
  6
CONTINUOUS
 10
186.511114
 20
53.333333
 11
186.511114
 21
54.000000
 39
1
 62
0
  0
ARC
  8
border
  6
CONTINUOUS
 10
186.177781
 20
54.000000
 40
0.333333
 50
0.000000
 51
90.000000
 39
1
 62
0
  0
LINE
  8
border
  6
CONTINUOUS
 10
186.177781
 20
54.333333
 11
185.622225
 21
54.333333
 39
1
 62
0
  0
LINE
  8
border
  6
CONTINUOUS
 10
185.622225
 20
54.333333
 11
185.622225
 21
52.333333
 39
1
 62
0
  0
LINE
  8
border
  6
CONTINUOUS
 10
186.911114
 20
54.333333
 11
187.577781
 21
54.333333
 39
1
 62
0
  0
LINE
  8
border
  6
CONTINUOUS
 10
187.133337
 20
55.000000
 11
187.133337
 21
53.000000
 39
1
 62
0
  0
LINE
  8
border
  6
CONTINUOUS
 10
187.977781
 20
53.000000
 11
187.977781
 21
54.333333
 39
1
 62
0
  0
LINE
  8
border
  6
CONTINUOUS
 10
187.977781
 20
54.888889
 11
187.977781
 21
55.000000
 39
1
 62
0
  0
LINE
  8
border
  6
CONTINUOUS
 10
188.377781
 20
53.888889
 11
188.377781
 21
53.444444
 39
1
 62
0
  0
ARC
  8
border
  6
CONTINUOUS
 10
188.822225
 20
53.444444
 40
0.444444
 50
180.000000
 51
0.000000
 39
1
 62
0
  0
LINE
  8
border
  6
CONTINUOUS
 10
189.266670
 20
53.444444
 11
189.266670
 21
53.888889
 39
1
 62
0
  0
ARC
  8
border
  6
CONTINUOUS
 10
188.822225
 20
53.888889
 40
0.444444
 50
0.000000
 51
180.000000
 39
1
 62
0
  0
LINE
  8
border
  6
CONTINUOUS
 10
189.666670
 20
53.000000
 11
189.666670
 21
54.333333
 39
1
 62
0
  0
LINE
  8
border
  6
CONTINUOUS
 10
189.666670
 20
54.333333
 11
190.222225
 21
54.333333
 39
1
 62
0
  0
ARC
  8
border
  6
CONTINUOUS
 10
190.222225
 20
54.000000
 40
0.333333
 50
0.000000
 51
90.000000
 39
1
 62
0
  0
LINE
  8
border
  6
CONTINUOUS
 10
190.555559
 20
54.000000
 11
190.555559
 21
53.000000
 39
1
 62
0
  0
LINE
  8
border
  6
CONTINUOUS
 10
217.000000
 20
49.555556
 11
217.444444
 21
50.000000
 39
1
 62
0
  0
LINE
  8
border
  6
CONTINUOUS
 10
217.444444
 20
50.000000
 11
217.444444
 21
48.000000
 39
1
 62
0
  0
ARC
  8
border
  6
CONTINUOUS
 10
217.400000
 20
49.154700
 40
1.333333
 50
300.000000
 51
0.000000
 39
1
 62
0
  0
LINE
  8
border
  6
CONTINUOUS
 10
218.733333
 20
49.154700
 11
218.733333
 21
49.555556
 39
1
 62
0
  0
ARC
  8
border
  6
CONTINUOUS
 10
218.288889
 20
49.555556
 40
0.444444
 50
0.000000
 51
180.000000
 39
1
 62
0
  0
LINE
  8
border
  6
CONTINUOUS
 10
217.844444
 20
49.555556
 11
217.844444
 21
49.333333
 39
1
 62
0
  0
ARC
  8
border
  6
CONTINUOUS
 10
218.288889
 20
49.333333
 40
0.444444
 50
180.000000
 51
270.000000
 39
1
 62
0
  0
LINE
  8
border
  6
CONTINUOUS
 10
218.288889
 20
48.888889
 11
218.706573
 21
48.888889
 39
1
 62
0
  0
ARC
  8
border
  6
CONTINUOUS
 10
218.688889
 20
49.154700
 40
1.333333
 50
300.000000
 51
0.000000
 39
1
 62
0
  0
LINE
  8
border
  6
CONTINUOUS
 10
220.022222
 20
49.154700
 11
220.022222
 21
49.555556
 39
1
 62
0
  0
ARC
  8
border
  6
CONTINUOUS
 10
219.577778
 20
49.555556
 40
0.444444
 50
0.000000
 51
180.000000
 39
1
 62
0
  0
LINE
  8
border
  6
CONTINUOUS
 10
219.133333
 20
49.555556
 11
219.133333
 21
49.333333
 39
1
 62
0
  0
ARC
  8
border
  6
CONTINUOUS
 10
219.577778
 20
49.333333
 40
0.444444
 50
180.000000
 51
270.000000
 39
1
 62
0
  0
LINE
  8
border
  6
CONTINUOUS
 10
219.577778
 20
48.888889
 11
219.995462
 21
48.888889
 39
1
 62
0
  0
ARC
  8
border
  6
CONTINUOUS
 10
219.977778
 20
49.154700
 40
1.333333
 50
300.000000
 51
0.000000
 39
1
 62
0
  0
LINE
  8
border
  6
CONTINUOUS
 10
221.311111
 20
49.154700
 11
221.311111
 21
49.555556
 39
1
 62
0
  0
ARC
  8
border
  6
CONTINUOUS
 10
220.866667
 20
49.555556
 40
0.444444
 50
0.000000
 51
180.000000
 39
1
 62
0
  0
LINE
  8
border
  6
CONTINUOUS
 10
220.422222
 20
49.555556
 11
220.422222
 21
49.333333
 39
1
 62
0
  0
ARC
  8
border
  6
CONTINUOUS
 10
220.866667
 20
49.333333
 40
0.444444
 50
180.000000
 51
270.000000
 39
1
 62
0
  0
LINE
  8
border
  6
CONTINUOUS
 10
220.866667
 20
48.888889
 11
221.284351
 21
48.888889
 39
1
 62
0
  0
LINE
  8
border
  6
CONTINUOUS
 10
221.711111
 20
48.888889
 11
222.600000
 21
48.888889
 39
1
 62
0
  0
ARC
  8
border
  6
CONTINUOUS
 10
223.444444
 20
49.757887
 40
0.242113
 50
32.756950
 51
147.243042
 39
1
 62
0
  0
ARC
  8
border
  6
CONTINUOUS
 10
224.096300
 20
49.249671
 40
1.067909
 50
143.232468
 51
169.491135
 39
1
 62
0
  0
ARC
  8
border
  6
CONTINUOUS
 10
224.096300
 20
48.750329
 40
1.067909
 50
190.508865
 51
216.767532
 39
1
 62
0
  0
ARC
  8
border
  6
CONTINUOUS
 10
223.444444
 20
48.242113
 40
0.242113
 50
212.756958
 51
327.243042
 39
1
 62
0
  0
ARC
  8
border
  6
CONTINUOUS
 10
222.792589
 20
48.750329
 40
1.067909
 50
323.232452
 51
349.491119
 39
1
 62
0
  0
ARC
  8
border
  6
CONTINUOUS
 10
221.798964
 20
48.993124
 40
2.089940
 50
347.913147
 51
0.188510
 39
1
 62
0
  0
ARC
  8
border
  6
CONTINUOUS
 10
221.798964
 20
49.006876
 40
2.089940
 50
359.811493
 51
12.086860
 39
1
 62
0
  0
ARC
  8
border
  6
CONTINUOUS
 10
222.792589
 20
49.249671
 40
1.067909
 50
10.508870
 51
36.767540
 39
1
 62
0
  0
ARC
  8
border
  6
CONTINUOUS
 10
225.089925
 20
48.993124
 40
2.089940
 50
179.811493
 51
192.086868
 39
1
 62
0
  0
ARC
  8
border
  6
CONTINUOUS
 10
225.089925
 20
49.006876
 40
2.089940
 50
167.913132
 51
180.188507
 39
1
 62
0
  0
ARC
  8
border
  6
CONTINUOUS
 10
223.844459
 20
49.154700
 40
1.333333
 50
300.000000
 51
0.000000
 39
1
 62
0
  0
LINE
  8
border
  6
CONTINUOUS
 10
225.177793
 20
49.154700
 11
225.177793
 21
49.555556
 39
1
 62
0
  0
ARC
  8
border
  6
CONTINUOUS
 10
224.733348
 20
49.555556
 40
0.444444
 50
0.000000
 51
180.000000
 39
1
 62
0
  0
LINE
  8
border
  6
CONTINUOUS
 10
224.288904
 20
49.555556
 11
224.288904
 21
49.333333
 39
1
 62
0
  0
ARC
  8
border
  6
CONTINUOUS
 10
224.733348
 20
49.333333
 40
0.444444
 50
180.000000
 51
270.000000
 39
1
 62
0
  0
LINE
  8
border
  6
CONTINUOUS
 10
224.733348
 20
48.888889
 11
225.151032
 21
48.888889
 39
1
 62
0
  0
LINE
  8
border
  6
CONTINUOUS
 10
225.577793
 20
48.888889
 11
226.466682
 21
48.888889
 39
1
 62
0
  0
LINE
  8
border
  6
CONTINUOUS
 10
226.866682
 20
50.000000
 11
227.311126
 21
50.000000
 39
1
 62
0
  0
ARC
  8
border
  6
CONTINUOUS
 10
227.311126
 20
49.555556
 40
0.444444
 50
270.000000
 51
90.000000
 39
1
 62
0
  0
LINE
  8
border
  6
CONTINUOUS
 10
227.311126
 20
49.111111
 11
227.088904
 21
49.111111
 39
1
 62
0
  0
ARC
  8
border
  6
CONTINUOUS
 10
227.311126
 20
48.666667
 40
0.444444
 50
0.000000
 51
90.000000
 39
1
 62
0
  0
LINE
  8
border
  6
CONTINUOUS
 10
227.755570
 20
48.666667
 11
227.755570
 21
48.444444
 39
1
 62
0
  0
ARC
  8
border
  6
CONTINUOUS
 10
227.311126
 20
48.444444
 40
0.444444
 50
270.000000
 51
0.000000
 39
1
 62
0
  0
LINE
  8
border
  6
CONTINUOUS
 10
227.311126
 20
48.000000
 11
226.866682
 21
48.000000
 39
1
 62
0
  0
ARC
  8
border
  6
CONTINUOUS
 10
228.600015
 20
49.757887
 40
0.242113
 50
32.756950
 51
147.243042
 39
1
 62
0
  0
ARC
  8
border
  6
CONTINUOUS
 10
229.251870
 20
49.249671
 40
1.067909
 50
143.232468
 51
169.491135
 39
1
 62
0
  0
ARC
  8
border
  6
CONTINUOUS
 10
229.251870
 20
48.750329
 40
1.067909
 50
190.508865
 51
216.767532
 39
1
 62
0
  0
ARC
  8
border
  6
CONTINUOUS
 10
228.600015
 20
48.242113
 40
0.242113
 50
212.756958
 51
327.243042
 39
1
 62
0
  0
ARC
  8
border
  6
CONTINUOUS
 10
227.948159
 20
48.750329
 40
1.067909
 50
323.232452
 51
349.491119
 39
1
 62
0
  0
ARC
  8
border
  6
CONTINUOUS
 10
226.954534
 20
48.993124
 40
2.089940
 50
347.913147
 51
0.188510
 39
1
 62
0
  0
ARC
  8
border
  6
CONTINUOUS
 10
226.954534
 20
49.006876
 40
2.089940
 50
359.811493
 51
12.086860
 39
1
 62
0
  0
ARC
  8
border
  6
CONTINUOUS
 10
227.948159
 20
49.249671
 40
1.067909
 50
10.508870
 51
36.767540
 39
1
 62
0
  0
ARC
  8
border
  6
CONTINUOUS
 10
230.245496
 20
48.993124
 40
2.089940
 50
179.811493
 51
192.086868
 39
1
 62
0
  0
ARC
  8
border
  6
CONTINUOUS
 10
230.245496
 20
49.006876
 40
2.089940
 50
167.913132
 51
180.188507
 39
1
 62
0
  0
LINE
  8
border
  6
CONTINUOUS
 10
217.000000
 20
45.555556
 11
217.444444
 21
46.000000
 39
1
 62
0
  0
LINE
  8
border
  6
CONTINUOUS
 10
217.444444
 20
46.000000
 11
217.444444
 21
44.000000
 39
1
 62
0
  0
ARC
  8
border
  6
CONTINUOUS
 10
217.400000
 20
45.154700
 40
1.333333
 50
300.000000
 51
0.000000
 39
1
 62
0
  0
LINE
  8
border
  6
CONTINUOUS
 10
218.733333
 20
45.154700
 11
218.733333
 21
45.555556
 39
1
 62
0
  0
ARC
  8
border
  6
CONTINUOUS
 10
218.288889
 20
45.555556
 40
0.444444
 50
0.000000
 51
180.000000
 39
1
 62
0
  0
LINE
  8
border
  6
CONTINUOUS
 10
217.844444
 20
45.555556
 11
217.844444
 21
45.333333
 39
1
 62
0
  0
ARC
  8
border
  6
CONTINUOUS
 10
218.288889
 20
45.333333
 40
0.444444
 50
180.000000
 51
270.000000
 39
1
 62
0
  0
LINE
  8
border
  6
CONTINUOUS
 10
218.288889
 20
44.888889
 11
218.706573
 21
44.888889
 39
1
 62
0
  0
ARC
  8
border
  6
CONTINUOUS
 10
218.688889
 20
45.154700
 40
1.333333
 50
300.000000
 51
0.000000
 39
1
 62
0
  0
LINE
  8
border
  6
CONTINUOUS
 10
220.022222
 20
45.154700
 11
220.022222
 21
45.555556
 39
1
 62
0
  0
ARC
  8
border
  6
CONTINUOUS
 10
219.577778
 20
45.555556
 40
0.444444
 50
0.000000
 51
180.000000
 39
1
 62
0
  0
LINE
  8
border
  6
CONTINUOUS
 10
219.133333
 20
45.555556
 11
219.133333
 21
45.333333
 39
1
 62
0
  0
ARC
  8
border
  6
CONTINUOUS
 10
219.577778
 20
45.333333
 40
0.444444
 50
180.000000
 51
270.000000
 39
1
 62
0
  0
LINE
  8
border
  6
CONTINUOUS
 10
219.577778
 20
44.888889
 11
219.995462
 21
44.888889
 39
1
 62
0
  0
ARC
  8
border
  6
CONTINUOUS
 10
219.977778
 20
45.154700
 40
1.333333
 50
300.000000
 51
0.000000
 39
1
 62
0
  0
LINE
  8
border
  6
CONTINUOUS
 10
221.311111
 20
45.154700
 11
221.311111
 21
45.555556
 39
1
 62
0
  0
ARC
  8
border
  6
CONTINUOUS
 10
220.866667
 20
45.555556
 40
0.444444
 50
0.000000
 51
180.000000
 39
1
 62
0
  0
LINE
  8
border
  6
CONTINUOUS
 10
220.422222
 20
45.555556
 11
220.422222
 21
45.333333
 39
1
 62
0
  0
ARC
  8
border
  6
CONTINUOUS
 10
220.866667
 20
45.333333
 40
0.444444
 50
180.000000
 51
270.000000
 39
1
 62
0
  0
LINE
  8
border
  6
CONTINUOUS
 10
220.866667
 20
44.888889
 11
221.284351
 21
44.888889
 39
1
 62
0
  0
LINE
  8
border
  6
CONTINUOUS
 10
221.711111
 20
44.888889
 11
222.600000
 21
44.888889
 39
1
 62
0
  0
ARC
  8
border
  6
CONTINUOUS
 10
223.444444
 20
45.757887
 40
0.242113
 50
32.756950
 51
147.243042
 39
1
 62
0
  0
ARC
  8
border
  6
CONTINUOUS
 10
224.096300
 20
45.249671
 40
1.067909
 50
143.232468
 51
169.491135
 39
1
 62
0
  0
ARC
  8
border
  6
CONTINUOUS
 10
224.096300
 20
44.750329
 40
1.067909
 50
190.508865
 51
216.767532
 39
1
 62
0
  0
ARC
  8
border
  6
CONTINUOUS
 10
223.444444
 20
44.242113
 40
0.242113
 50
212.756958
 51
327.243042
 39
1
 62
0
  0
ARC
  8
border
  6
CONTINUOUS
 10
222.792589
 20
44.750329
 40
1.067909
 50
323.232452
 51
349.491119
 39
1
 62
0
  0
ARC
  8
border
  6
CONTINUOUS
 10
221.798964
 20
44.993124
 40
2.089940
 50
347.913147
 51
0.188510
 39
1
 62
0
  0
ARC
  8
border
  6
CONTINUOUS
 10
221.798964
 20
45.006876
 40
2.089940
 50
359.811493
 51
12.086860
 39
1
 62
0
  0
ARC
  8
border
  6
CONTINUOUS
 10
222.792589
 20
45.249671
 40
1.067909
 50
10.508870
 51
36.767540
 39
1
 62
0
  0
ARC
  8
border
  6
CONTINUOUS
 10
225.089925
 20
44.993124
 40
2.089940
 50
179.811493
 51
192.086868
 39
1
 62
0
  0
ARC
  8
border
  6
CONTINUOUS
 10
225.089925
 20
45.006876
 40
2.089940
 50
167.913132
 51
180.188507
 39
1
 62
0
  0
ARC
  8
border
  6
CONTINUOUS
 10
223.844459
 20
45.154700
 40
1.333333
 50
300.000000
 51
0.000000
 39
1
 62
0
  0
LINE
  8
border
  6
CONTINUOUS
 10
225.177793
 20
45.154700
 11
225.177793
 21
45.555556
 39
1
 62
0
  0
ARC
  8
border
  6
CONTINUOUS
 10
224.733348
 20
45.555556
 40
0.444444
 50
0.000000
 51
180.000000
 39
1
 62
0
  0
LINE
  8
border
  6
CONTINUOUS
 10
224.288904
 20
45.555556
 11
224.288904
 21
45.333333
 39
1
 62
0
  0
ARC
  8
border
  6
CONTINUOUS
 10
224.733348
 20
45.333333
 40
0.444444
 50
180.000000
 51
270.000000
 39
1
 62
0
  0
LINE
  8
border
  6
CONTINUOUS
 10
224.733348
 20
44.888889
 11
225.151032
 21
44.888889
 39
1
 62
0
  0
LINE
  8
border
  6
CONTINUOUS
 10
225.577793
 20
44.888889
 11
226.466682
 21
44.888889
 39
1
 62
0
  0
LINE
  8
border
  6
CONTINUOUS
 10
226.866682
 20
46.000000
 11
227.311126
 21
46.000000
 39
1
 62
0
  0
ARC
  8
border
  6
CONTINUOUS
 10
227.311126
 20
45.555556
 40
0.444444
 50
270.000000
 51
90.000000
 39
1
 62
0
  0
LINE
  8
border
  6
CONTINUOUS
 10
227.311126
 20
45.111111
 11
227.088904
 21
45.111111
 39
1
 62
0
  0
ARC
  8
border
  6
CONTINUOUS
 10
227.311126
 20
44.666667
 40
0.444444
 50
0.000000
 51
90.000000
 39
1
 62
0
  0
LINE
  8
border
  6
CONTINUOUS
 10
227.755570
 20
44.666667
 11
227.755570
 21
44.444444
 39
1
 62
0
  0
ARC
  8
border
  6
CONTINUOUS
 10
227.311126
 20
44.444444
 40
0.444444
 50
270.000000
 51
0.000000
 39
1
 62
0
  0
LINE
  8
border
  6
CONTINUOUS
 10
227.311126
 20
44.000000
 11
226.866682
 21
44.000000
 39
1
 62
0
  0
ARC
  8
border
  6
CONTINUOUS
 10
228.600015
 20
45.757887
 40
0.242113
 50
32.756950
 51
147.243042
 39
1
 62
0
  0
ARC
  8
border
  6
CONTINUOUS
 10
229.251870
 20
45.249671
 40
1.067909
 50
143.232468
 51
169.491135
 39
1
 62
0
  0
ARC
  8
border
  6
CONTINUOUS
 10
229.251870
 20
44.750329
 40
1.067909
 50
190.508865
 51
216.767532
 39
1
 62
0
  0
ARC
  8
border
  6
CONTINUOUS
 10
228.600015
 20
44.242113
 40
0.242113
 50
212.756958
 51
327.243042
 39
1
 62
0
  0
ARC
  8
border
  6
CONTINUOUS
 10
227.948159
 20
44.750329
 40
1.067909
 50
323.232452
 51
349.491119
 39
1
 62
0
  0
ARC
  8
border
  6
CONTINUOUS
 10
226.954534
 20
44.993124
 40
2.089940
 50
347.913147
 51
0.188510
 39
1
 62
0
  0
ARC
  8
border
  6
CONTINUOUS
 10
226.954534
 20
45.006876
 40
2.089940
 50
359.811493
 51
12.086860
 39
1
 62
0
  0
ARC
  8
border
  6
CONTINUOUS
 10
227.948159
 20
45.249671
 40
1.067909
 50
10.508870
 51
36.767540
 39
1
 62
0
  0
ARC
  8
border
  6
CONTINUOUS
 10
230.245496
 20
44.993124
 40
2.089940
 50
179.811493
 51
192.086868
 39
1
 62
0
  0
ARC
  8
border
  6
CONTINUOUS
 10
230.245496
 20
45.006876
 40
2.089940
 50
167.913132
 51
180.188507
 39
1
 62
0
  0
LINE
  8
border
  6
CONTINUOUS
 10
217.000000
 20
41.555556
 11
217.444444
 21
42.000000
 39
1
 62
0
  0
LINE
  8
border
  6
CONTINUOUS
 10
217.444444
 20
42.000000
 11
217.444444
 21
40.000000
 39
1
 62
0
  0
ARC
  8
border
  6
CONTINUOUS
 10
217.400000
 20
41.154700
 40
1.333333
 50
300.000000
 51
0.000000
 39
1
 62
0
  0
LINE
  8
border
  6
CONTINUOUS
 10
218.733333
 20
41.154700
 11
218.733333
 21
41.555556
 39
1
 62
0
  0
ARC
  8
border
  6
CONTINUOUS
 10
218.288889
 20
41.555556
 40
0.444444
 50
0.000000
 51
180.000000
 39
1
 62
0
  0
LINE
  8
border
  6
CONTINUOUS
 10
217.844444
 20
41.555556
 11
217.844444
 21
41.333333
 39
1
 62
0
  0
ARC
  8
border
  6
CONTINUOUS
 10
218.288889
 20
41.333333
 40
0.444444
 50
180.000000
 51
270.000000
 39
1
 62
0
  0
LINE
  8
border
  6
CONTINUOUS
 10
218.288889
 20
40.888889
 11
218.706573
 21
40.888889
 39
1
 62
0
  0
ARC
  8
border
  6
CONTINUOUS
 10
218.688889
 20
41.154700
 40
1.333333
 50
300.000000
 51
0.000000
 39
1
 62
0
  0
LINE
  8
border
  6
CONTINUOUS
 10
220.022222
 20
41.154700
 11
220.022222
 21
41.555556
 39
1
 62
0
  0
ARC
  8
border
  6
CONTINUOUS
 10
219.577778
 20
41.555556
 40
0.444444
 50
0.000000
 51
180.000000
 39
1
 62
0
  0
LINE
  8
border
  6
CONTINUOUS
 10
219.133333
 20
41.555556
 11
219.133333
 21
41.333333
 39
1
 62
0
  0
ARC
  8
border
  6
CONTINUOUS
 10
219.577778
 20
41.333333
 40
0.444444
 50
180.000000
 51
270.000000
 39
1
 62
0
  0
LINE
  8
border
  6
CONTINUOUS
 10
219.577778
 20
40.888889
 11
219.995462
 21
40.888889
 39
1
 62
0
  0
ARC
  8
border
  6
CONTINUOUS
 10
219.977778
 20
41.154700
 40
1.333333
 50
300.000000
 51
0.000000
 39
1
 62
0
  0
LINE
  8
border
  6
CONTINUOUS
 10
221.311111
 20
41.154700
 11
221.311111
 21
41.555556
 39
1
 62
0
  0
ARC
  8
border
  6
CONTINUOUS
 10
220.866667
 20
41.555556
 40
0.444444
 50
0.000000
 51
180.000000
 39
1
 62
0
  0
LINE
  8
border
  6
CONTINUOUS
 10
220.422222
 20
41.555556
 11
220.422222
 21
41.333333
 39
1
 62
0
  0
ARC
  8
border
  6
CONTINUOUS
 10
220.866667
 20
41.333333
 40
0.444444
 50
180.000000
 51
270.000000
 39
1
 62
0
  0
LINE
  8
border
  6
CONTINUOUS
 10
220.866667
 20
40.888889
 11
221.284351
 21
40.888889
 39
1
 62
0
  0
LINE
  8
border
  6
CONTINUOUS
 10
221.711111
 20
40.888889
 11
222.600000
 21
40.888889
 39
1
 62
0
  0
ARC
  8
border
  6
CONTINUOUS
 10
223.444444
 20
41.757887
 40
0.242113
 50
32.756950
 51
147.243042
 39
1
 62
0
  0
ARC
  8
border
  6
CONTINUOUS
 10
224.096300
 20
41.249671
 40
1.067909
 50
143.232468
 51
169.491135
 39
1
 62
0
  0
ARC
  8
border
  6
CONTINUOUS
 10
224.096300
 20
40.750329
 40
1.067909
 50
190.508865
 51
216.767532
 39
1
 62
0
  0
ARC
  8
border
  6
CONTINUOUS
 10
223.444444
 20
40.242113
 40
0.242113
 50
212.756958
 51
327.243042
 39
1
 62
0
  0
ARC
  8
border
  6
CONTINUOUS
 10
222.792589
 20
40.750329
 40
1.067909
 50
323.232452
 51
349.491119
 39
1
 62
0
  0
ARC
  8
border
  6
CONTINUOUS
 10
221.798964
 20
40.993124
 40
2.089940
 50
347.913147
 51
0.188510
 39
1
 62
0
  0
ARC
  8
border
  6
CONTINUOUS
 10
221.798964
 20
41.006876
 40
2.089940
 50
359.811493
 51
12.086860
 39
1
 62
0
  0
ARC
  8
border
  6
CONTINUOUS
 10
222.792589
 20
41.249671
 40
1.067909
 50
10.508870
 51
36.767540
 39
1
 62
0
  0
ARC
  8
border
  6
CONTINUOUS
 10
225.089925
 20
40.993124
 40
2.089940
 50
179.811493
 51
192.086868
 39
1
 62
0
  0
ARC
  8
border
  6
CONTINUOUS
 10
225.089925
 20
41.006876
 40
2.089940
 50
167.913132
 51
180.188507
 39
1
 62
0
  0
ARC
  8
border
  6
CONTINUOUS
 10
223.844459
 20
41.154700
 40
1.333333
 50
300.000000
 51
0.000000
 39
1
 62
0
  0
LINE
  8
border
  6
CONTINUOUS
 10
225.177793
 20
41.154700
 11
225.177793
 21
41.555556
 39
1
 62
0
  0
ARC
  8
border
  6
CONTINUOUS
 10
224.733348
 20
41.555556
 40
0.444444
 50
0.000000
 51
180.000000
 39
1
 62
0
  0
LINE
  8
border
  6
CONTINUOUS
 10
224.288904
 20
41.555556
 11
224.288904
 21
41.333333
 39
1
 62
0
  0
ARC
  8
border
  6
CONTINUOUS
 10
224.733348
 20
41.333333
 40
0.444444
 50
180.000000
 51
270.000000
 39
1
 62
0
  0
LINE
  8
border
  6
CONTINUOUS
 10
224.733348
 20
40.888889
 11
225.151032
 21
40.888889
 39
1
 62
0
  0
LINE
  8
border
  6
CONTINUOUS
 10
225.577793
 20
40.888889
 11
226.466682
 21
40.888889
 39
1
 62
0
  0
LINE
  8
border
  6
CONTINUOUS
 10
226.866682
 20
42.000000
 11
227.311126
 21
42.000000
 39
1
 62
0
  0
ARC
  8
border
  6
CONTINUOUS
 10
227.311126
 20
41.555556
 40
0.444444
 50
270.000000
 51
90.000000
 39
1
 62
0
  0
LINE
  8
border
  6
CONTINUOUS
 10
227.311126
 20
41.111111
 11
227.088904
 21
41.111111
 39
1
 62
0
  0
ARC
  8
border
  6
CONTINUOUS
 10
227.311126
 20
40.666667
 40
0.444444
 50
0.000000
 51
90.000000
 39
1
 62
0
  0
LINE
  8
border
  6
CONTINUOUS
 10
227.755570
 20
40.666667
 11
227.755570
 21
40.444444
 39
1
 62
0
  0
ARC
  8
border
  6
CONTINUOUS
 10
227.311126
 20
40.444444
 40
0.444444
 50
270.000000
 51
0.000000
 39
1
 62
0
  0
LINE
  8
border
  6
CONTINUOUS
 10
227.311126
 20
40.000000
 11
226.866682
 21
40.000000
 39
1
 62
0
  0
ARC
  8
border
  6
CONTINUOUS
 10
228.600015
 20
41.757887
 40
0.242113
 50
32.756950
 51
147.243042
 39
1
 62
0
  0
ARC
  8
border
  6
CONTINUOUS
 10
229.251870
 20
41.249671
 40
1.067909
 50
143.232468
 51
169.491135
 39
1
 62
0
  0
ARC
  8
border
  6
CONTINUOUS
 10
229.251870
 20
40.750329
 40
1.067909
 50
190.508865
 51
216.767532
 39
1
 62
0
  0
ARC
  8
border
  6
CONTINUOUS
 10
228.600015
 20
40.242113
 40
0.242113
 50
212.756958
 51
327.243042
 39
1
 62
0
  0
ARC
  8
border
  6
CONTINUOUS
 10
227.948159
 20
40.750329
 40
1.067909
 50
323.232452
 51
349.491119
 39
1
 62
0
  0
ARC
  8
border
  6
CONTINUOUS
 10
226.954534
 20
40.993124
 40
2.089940
 50
347.913147
 51
0.188510
 39
1
 62
0
  0
ARC
  8
border
  6
CONTINUOUS
 10
226.954534
 20
41.006876
 40
2.089940
 50
359.811493
 51
12.086860
 39
1
 62
0
  0
ARC
  8
border
  6
CONTINUOUS
 10
227.948159
 20
41.249671
 40
1.067909
 50
10.508870
 51
36.767540
 39
1
 62
0
  0
ARC
  8
border
  6
CONTINUOUS
 10
230.245496
 20
40.993124
 40
2.089940
 50
179.811493
 51
192.086868
 39
1
 62
0
  0
ARC
  8
border
  6
CONTINUOUS
 10
230.245496
 20
41.006876
 40
2.089940
 50
167.913132
 51
180.188507
 39
1
 62
0
  0
LINE
  8
border
  6
CONTINUOUS
 10
217.000000
 20
37.555556
 11
217.444444
 21
38.000000
 39
1
 62
0
  0
LINE
  8
border
  6
CONTINUOUS
 10
217.444444
 20
38.000000
 11
217.444444
 21
36.000000
 39
1
 62
0
  0
ARC
  8
border
  6
CONTINUOUS
 10
217.400000
 20
37.154700
 40
1.333333
 50
300.000000
 51
0.000000
 39
1
 62
0
  0
LINE
  8
border
  6
CONTINUOUS
 10
218.733333
 20
37.154700
 11
218.733333
 21
37.555556
 39
1
 62
0
  0
ARC
  8
border
  6
CONTINUOUS
 10
218.288889
 20
37.555556
 40
0.444444
 50
0.000000
 51
180.000000
 39
1
 62
0
  0
LINE
  8
border
  6
CONTINUOUS
 10
217.844444
 20
37.555556
 11
217.844444
 21
37.333333
 39
1
 62
0
  0
ARC
  8
border
  6
CONTINUOUS
 10
218.288889
 20
37.333333
 40
0.444444
 50
180.000000
 51
270.000000
 39
1
 62
0
  0
LINE
  8
border
  6
CONTINUOUS
 10
218.288889
 20
36.888889
 11
218.706573
 21
36.888889
 39
1
 62
0
  0
ARC
  8
border
  6
CONTINUOUS
 10
218.688889
 20
37.154700
 40
1.333333
 50
300.000000
 51
0.000000
 39
1
 62
0
  0
LINE
  8
border
  6
CONTINUOUS
 10
220.022222
 20
37.154700
 11
220.022222
 21
37.555556
 39
1
 62
0
  0
ARC
  8
border
  6
CONTINUOUS
 10
219.577778
 20
37.555556
 40
0.444444
 50
0.000000
 51
180.000000
 39
1
 62
0
  0
LINE
  8
border
  6
CONTINUOUS
 10
219.133333
 20
37.555556
 11
219.133333
 21
37.333333
 39
1
 62
0
  0
ARC
  8
border
  6
CONTINUOUS
 10
219.577778
 20
37.333333
 40
0.444444
 50
180.000000
 51
270.000000
 39
1
 62
0
  0
LINE
  8
border
  6
CONTINUOUS
 10
219.577778
 20
36.888889
 11
219.995462
 21
36.888889
 39
1
 62
0
  0
ARC
  8
border
  6
CONTINUOUS
 10
219.977778
 20
37.154700
 40
1.333333
 50
300.000000
 51
0.000000
 39
1
 62
0
  0
LINE
  8
border
  6
CONTINUOUS
 10
221.311111
 20
37.154700
 11
221.311111
 21
37.555556
 39
1
 62
0
  0
ARC
  8
border
  6
CONTINUOUS
 10
220.866667
 20
37.555556
 40
0.444444
 50
0.000000
 51
180.000000
 39
1
 62
0
  0
LINE
  8
border
  6
CONTINUOUS
 10
220.422222
 20
37.555556
 11
220.422222
 21
37.333333
 39
1
 62
0
  0
ARC
  8
border
  6
CONTINUOUS
 10
220.866667
 20
37.333333
 40
0.444444
 50
180.000000
 51
270.000000
 39
1
 62
0
  0
LINE
  8
border
  6
CONTINUOUS
 10
220.866667
 20
36.888889
 11
221.284351
 21
36.888889
 39
1
 62
0
  0
LINE
  8
border
  6
CONTINUOUS
 10
221.711111
 20
36.888889
 11
222.600000
 21
36.888889
 39
1
 62
0
  0
ARC
  8
border
  6
CONTINUOUS
 10
223.444444
 20
37.757887
 40
0.242113
 50
32.756950
 51
147.243042
 39
1
 62
0
  0
ARC
  8
border
  6
CONTINUOUS
 10
224.096300
 20
37.249671
 40
1.067909
 50
143.232468
 51
169.491135
 39
1
 62
0
  0
ARC
  8
border
  6
CONTINUOUS
 10
224.096300
 20
36.750329
 40
1.067909
 50
190.508865
 51
216.767532
 39
1
 62
0
  0
ARC
  8
border
  6
CONTINUOUS
 10
223.444444
 20
36.242113
 40
0.242113
 50
212.756958
 51
327.243042
 39
1
 62
0
  0
ARC
  8
border
  6
CONTINUOUS
 10
222.792589
 20
36.750329
 40
1.067909
 50
323.232452
 51
349.491119
 39
1
 62
0
  0
ARC
  8
border
  6
CONTINUOUS
 10
221.798964
 20
36.993124
 40
2.089940
 50
347.913147
 51
0.188510
 39
1
 62
0
  0
ARC
  8
border
  6
CONTINUOUS
 10
221.798964
 20
37.006876
 40
2.089940
 50
359.811493
 51
12.086860
 39
1
 62
0
  0
ARC
  8
border
  6
CONTINUOUS
 10
222.792589
 20
37.249671
 40
1.067909
 50
10.508870
 51
36.767540
 39
1
 62
0
  0
ARC
  8
border
  6
CONTINUOUS
 10
225.089925
 20
36.993124
 40
2.089940
 50
179.811493
 51
192.086868
 39
1
 62
0
  0
ARC
  8
border
  6
CONTINUOUS
 10
225.089925
 20
37.006876
 40
2.089940
 50
167.913132
 51
180.188507
 39
1
 62
0
  0
ARC
  8
border
  6
CONTINUOUS
 10
223.844459
 20
37.154700
 40
1.333333
 50
300.000000
 51
0.000000
 39
1
 62
0
  0
LINE
  8
border
  6
CONTINUOUS
 10
225.177793
 20
37.154700
 11
225.177793
 21
37.555556
 39
1
 62
0
  0
ARC
  8
border
  6
CONTINUOUS
 10
224.733348
 20
37.555556
 40
0.444444
 50
0.000000
 51
180.000000
 39
1
 62
0
  0
LINE
  8
border
  6
CONTINUOUS
 10
224.288904
 20
37.555556
 11
224.288904
 21
37.333333
 39
1
 62
0
  0
ARC
  8
border
  6
CONTINUOUS
 10
224.733348
 20
37.333333
 40
0.444444
 50
180.000000
 51
270.000000
 39
1
 62
0
  0
LINE
  8
border
  6
CONTINUOUS
 10
224.733348
 20
36.888889
 11
225.151032
 21
36.888889
 39
1
 62
0
  0
LINE
  8
border
  6
CONTINUOUS
 10
225.577793
 20
36.888889
 11
226.466682
 21
36.888889
 39
1
 62
0
  0
LINE
  8
border
  6
CONTINUOUS
 10
226.866682
 20
38.000000
 11
227.311126
 21
38.000000
 39
1
 62
0
  0
ARC
  8
border
  6
CONTINUOUS
 10
227.311126
 20
37.555556
 40
0.444444
 50
270.000000
 51
90.000000
 39
1
 62
0
  0
LINE
  8
border
  6
CONTINUOUS
 10
227.311126
 20
37.111111
 11
227.088904
 21
37.111111
 39
1
 62
0
  0
ARC
  8
border
  6
CONTINUOUS
 10
227.311126
 20
36.666667
 40
0.444444
 50
0.000000
 51
90.000000
 39
1
 62
0
  0
LINE
  8
border
  6
CONTINUOUS
 10
227.755570
 20
36.666667
 11
227.755570
 21
36.444444
 39
1
 62
0
  0
ARC
  8
border
  6
CONTINUOUS
 10
227.311126
 20
36.444444
 40
0.444444
 50
270.000000
 51
0.000000
 39
1
 62
0
  0
LINE
  8
border
  6
CONTINUOUS
 10
227.311126
 20
36.000000
 11
226.866682
 21
36.000000
 39
1
 62
0
  0
ARC
  8
border
  6
CONTINUOUS
 10
228.600015
 20
37.757887
 40
0.242113
 50
32.756950
 51
147.243042
 39
1
 62
0
  0
ARC
  8
border
  6
CONTINUOUS
 10
229.251870
 20
37.249671
 40
1.067909
 50
143.232468
 51
169.491135
 39
1
 62
0
  0
ARC
  8
border
  6
CONTINUOUS
 10
229.251870
 20
36.750329
 40
1.067909
 50
190.508865
 51
216.767532
 39
1
 62
0
  0
ARC
  8
border
  6
CONTINUOUS
 10
228.600015
 20
36.242113
 40
0.242113
 50
212.756958
 51
327.243042
 39
1
 62
0
  0
ARC
  8
border
  6
CONTINUOUS
 10
227.948159
 20
36.750329
 40
1.067909
 50
323.232452
 51
349.491119
 39
1
 62
0
  0
ARC
  8
border
  6
CONTINUOUS
 10
226.954534
 20
36.993124
 40
2.089940
 50
347.913147
 51
0.188510
 39
1
 62
0
  0
ARC
  8
border
  6
CONTINUOUS
 10
226.954534
 20
37.006876
 40
2.089940
 50
359.811493
 51
12.086860
 39
1
 62
0
  0
ARC
  8
border
  6
CONTINUOUS
 10
227.948159
 20
37.249671
 40
1.067909
 50
10.508870
 51
36.767540
 39
1
 62
0
  0
ARC
  8
border
  6
CONTINUOUS
 10
230.245496
 20
36.993124
 40
2.089940
 50
179.811493
 51
192.086868
 39
1
 62
0
  0
ARC
  8
border
  6
CONTINUOUS
 10
230.245496
 20
37.006876
 40
2.089940
 50
167.913132
 51
180.188507
 39
1
 62
0
  0
LINE
  8
dimension
  6
CONTINUOUS
 10
90.000000
 20
85.500000
 11
101.000000
 21
85.500000
 39
1
 62
0
  0
LINE
  8
dimension
  6
CONTINUOUS
 10
90.000000
 20
76.500000
 11
101.000000
 21
76.500000
 39
1
 62
0
  0
LINE
  8
dimension
  6
CONTINUOUS
 10
99.000000
 20
85.500000
 11
99.000000
 21
76.500000
 39
1
 62
0
  0
LINE
  8
dimension
  6
CONTINUOUS
 10
99.000000
 20
76.500000
 11
98.223543
 21
79.397777
 39
1
 62
0
  0
LINE
  8
dimension
  6
CONTINUOUS
 10
99.000000
 20
76.500000
 11
99.776457
 21
79.397777
 39
1
 62
0
  0
LINE
  8
dimension
  6
CONTINUOUS
 10
99.000000
 20
85.500000
 11
99.776457
 21
82.602223
 39
1
 62
0
  0
LINE
  8
dimension
  6
CONTINUOUS
 10
99.000000
 20
85.500000
 11
98.223543
 21
82.602223
 39
1
 62
0
  0
LINE
  8
dimension
  6
CONTINUOUS
 10
63.000000
 20
67.000000
 11
63.000000
 21
56.000000
 39
1
 62
0
  0
LINE
  8
dimension
  6
CONTINUOUS
 10
88.000000
 20
67.000000
 11
88.000000
 21
56.000000
 39
1
 62
0
  0
LINE
  8
dimension
  6
CONTINUOUS
 10
63.000000
 20
58.000000
 11
88.000000
 21
58.000000
 39
1
 62
0
  0
LINE
  8
dimension
  6
CONTINUOUS
 10
88.000000
 20
58.000000
 11
85.102223
 21
57.223543
 39
1
 62
0
  0
LINE
  8
dimension
  6
CONTINUOUS
 10
88.000000
 20
58.000000
 11
85.102223
 21
58.776457
 39
1
 62
0
  0
LINE
  8
dimension
  6
CONTINUOUS
 10
63.000000
 20
58.000000
 11
65.897777
 21
58.776457
 39
1
 62
0
  0
LINE
  8
dimension
  6
CONTINUOUS
 10
63.000000
 20
58.000000
 11
65.897777
 21
57.223543
 39
1
 62
0
  0
LINE
  8
dimension
  6
CONTINUOUS
 10
258.000000
 20
91.000000
 11
258.000000
 21
80.000000
 39
1
 62
0
  0
LINE
  8
dimension
  6
CONTINUOUS
 10
264.000000
 20
91.000000
 11
264.000000
 21
80.000000
 39
1
 62
0
  0
LINE
  8
dimension
  6
CONTINUOUS
 10
253.500000
 20
82.000000
 11
268.500000
 21
82.000000
 39
1
 62
0
  0
LINE
  8
dimension
  6
CONTINUOUS
 10
264.000000
 20
82.000000
 11
266.897777
 21
82.776457
 39
1
 62
0
  0
LINE
  8
dimension
  6
CONTINUOUS
 10
264.000000
 20
82.000000
 11
266.897777
 21
81.223543
 39
1
 62
0
  0
LINE
  8
dimension
  6
CONTINUOUS
 10
258.000000
 20
82.000000
 11
255.102223
 21
81.223543
 39
1
 62
0
  0
LINE
  8
dimension
  6
CONTINUOUS
 10
258.000000
 20
82.000000
 11
255.102223
 21
82.776457
 39
1
 62
0
  0
LINE
  8
default
  6
CONTINUOUS
 10
88.000000
 20
71.000000
 11
88.000000
 21
72.576687
 39
0
 62
0
  0
LINE
  8
default
  6
CONTINUOUS
 10
261.000000
 20
75.000000
 11
261.000000
 21
68.576687
 39
0
 62
0
  0
LINE
  8
default
  6
CONTINUOUS
 10
88.000000
 20
70.576687
 11
261.000000
 21
70.576687
 39
0
 62
0
  0
LINE
  8
default
  6
CONTINUOUS
 10
261.000000
 20
70.576687
 11
258.102223
 21
69.800230
 39
0
 62
0
  0
LINE
  8
default
  6
CONTINUOUS
 10
261.000000
 20
70.576687
 11
258.102223
 21
71.353144
 39
0
 62
0
  0
LINE
  8
default
  6
CONTINUOUS
 10
88.000000
 20
70.576687
 11
90.897777
 21
71.353144
 39
0
 62
0
  0
LINE
  8
default
  6
CONTINUOUS
 10
88.000000
 20
70.576687
 11
90.897777
 21
69.800230
 39
0
 62
0
  0
LINE
  8
default
  6
CONTINUOUS
 10
155.516303
 20
17.829633
 11
153.294081
 21
17.829633
 39
2
 62
0
  0
LINE
  8
default
  6
CONTINUOUS
 10
153.294081
 20
17.829633
 11
152.000000
 21
13.000000
 39
2
 62
0
  0
LINE
  8
default
  6
CONTINUOUS
 10
152.000000
 20
13.000000
 11
154.222222
 21
13.000000
 39
2
 62
0
  0
LINE
  8
default
  6
CONTINUOUS
 10
152.718926
 20
15.683128
 11
154.385593
 21
15.683128
 39
2
 62
0
  0
LINE
  8
default
  6
CONTINUOUS
 10
156.879069
 20
16.219756
 11
158.238526
 21
13.000000
 39
2
 62
0
  0
LINE
  8
default
  6
CONTINUOUS
 10
159.101292
 20
16.219756
 11
156.016303
 21
13.000000
 39
2
 62
0
  0
LINE
  8
default
  6
CONTINUOUS
 10
160.741836
 20
16.219756
 11
161.962267
 21
16.219756
 39
2
 62
0
  0
ARC
  8
default
  6
CONTINUOUS
 10
161.962267
 20
15.664200
 40
0.555556
 50
345.000000
 51
90.000000
 39
2
 62
0
  0
LINE
  8
default
  6
CONTINUOUS
 10
162.498902
 20
15.520411
 11
161.823514
 21
13.000000
 39
2
 62
0
  0
LINE
  8
default
  6
CONTINUOUS
 10
161.823514
 20
13.000000
 11
160.325304
 21
13.000000
 39
2
 62
0
  0
ARC
  8
default
  6
CONTINUOUS
 10
160.325304
 20
13.555556
 40
0.555556
 50
165.000000
 51
270.000000
 39
2
 62
0
  0
LINE
  8
default
  6
CONTINUOUS
 10
159.788669
 20
13.699350
 11
159.922337
 21
14.198106
 39
2
 62
0
  0
ARC
  8
default
  6
CONTINUOUS
 10
160.458971
 20
14.054317
 40
0.555556
 50
90.000000
 51
165.000000
 39
2
 62
0
  0
LINE
  8
default
  6
CONTINUOUS
 10
160.458971
 20
14.609872
 11
162.254897
 21
14.609872
 39
2
 62
0
  0
LINE
  8
default
  6
CONTINUOUS
 10
163.017823
 20
13.000000
 11
163.880589
 21
16.219756
 39
2
 62
0
  0
LINE
  8
default
  6
CONTINUOUS
 10
163.880589
 20
16.219756
 11
166.489842
 21
16.219756
 39
2
 62
0
  0
ARC
  8
default
  6
CONTINUOUS
 10
166.489842
 20
15.664200
 40
0.555556
 50
345.000000
 51
90.000000
 39
2
 62
0
  0
LINE
  8
default
  6
CONTINUOUS
 10
167.026476
 20
15.520411
 11
166.351156
 21
13.000000
 39
2
 62
0
  0
LINE
  8
default
  6
CONTINUOUS
 10
165.547256
 20
16.219756
 11
164.684489
 21
13.000000
 39
2
 62
0
  0
LINE
  8
default
  6
CONTINUOUS
 10
167.114014
 20
11.390122
 11
168.408163
 21
16.219756
 39
2
 62
0
  0
LINE
  8
default
  6
CONTINUOUS
 10
168.408163
 20
16.219756
 11
169.906305
 21
16.219756
 39
2
 62
0
  0
ARC
  8
default
  6
CONTINUOUS
 10
169.906305
 20
15.664206
 40
0.555550
 50
345.000000
 51
90.000000
 39
2
 62
0
  0
LINE
  8
default
  6
CONTINUOUS
 10
170.442939
 20
15.520411
 11
169.877957
 21
13.411767
 39
2
 62
0
  0
ARC
  8
default
  6
CONTINUOUS
 10
169.341323
 20
13.555550
 40
0.555550
 50
270.000000
 51
345.000000
 39
2
 62
0
  0
LINE
  8
default
  6
CONTINUOUS
 10
169.341323
 20
13.000000
 11
167.545397
 21
13.000000
 39
2
 62
0
  0
LINE
  8
default
  6
CONTINUOUS
 10
172.255936
 20
17.829633
 11
171.149233
 21
13.699344
 39
2
 62
0
  0
ARC
  8
default
  6
CONTINUOUS
 10
171.685868
 20
13.555556
 40
0.555556
 50
165.000000
 51
270.000000
 39
2
 62
0
  0
LINE
  8
default
  6
CONTINUOUS
 10
174.978158
 20
13.000000
 11
173.479949
 21
13.000000
 39
2
 62
0
  0
ARC
  8
default
  6
CONTINUOUS
 10
173.479949
 20
13.555556
 40
0.555556
 50
165.000000
 51
270.000000
 39
2
 62
0
  0
LINE
  8
default
  6
CONTINUOUS
 10
172.943314
 20
13.699344
 11
173.508364
 21
15.807989
 39
2
 62
0
  0
ARC
  8
default
  6
CONTINUOUS
 10
174.044998
 20
15.664194
 40
0.555556
 50
90.000000
 51
165.000000
 39
2
 62
0
  0
LINE
  8
default
  6
CONTINUOUS
 10
174.044931
 20
16.219756
 11
175.116912
 21
16.219756
 39
2
 62
0
  0
ARC
  8
default
  6
CONTINUOUS
 10
175.116912
 20
15.664194
 40
0.555556
 50
345.000000
 51
90.000000
 39
2
 62
0
  0
LINE
  8
default
  6
CONTINUOUS
 10
175.653478
 20
15.520411
 11
175.409541
 21
14.609872
 39
2
 62
0
  0
LINE
  8
default
  6
CONTINUOUS
 10
175.409541
 20
14.609872
 11
173.187319
 21
14.609872
 39
2
 62
0
  0
LINE
  8
default
  6
CONTINUOUS
 10
180.894689
 20
13.000000
 11
178.672467
 21
13.000000
 39
2
 62
0
  0
LINE
  8
default
  6
CONTINUOUS
 10
178.672467
 20
13.000000
 11
181.634876
 21
16.196561
 39
2
 62
0
  0
ARC
  8
default
  6
CONTINUOUS
 10
180.921782
 20
16.857406
 40
0.972222
 50
317.177368
 51
90.000000
 39
2
 62
0
  0
LINE
  8
default
  6
CONTINUOUS
 10
180.712567
 20
17.829633
 11
180.921782
 21
17.829633
 39
2
 62
0
  0
ARC
  8
default
  6
CONTINUOUS
 10
180.712567
 20
16.857406
 40
0.972222
 50
90.000000
 51
165.000000
 39
2
 62
0
  0
ARC
  8
dimension
  6
CONTINUOUS
 10
93.256107
 20
78.777778
 40
3.333333
 50
30.000000
 51
90.000000
 39
1
 62
0
  0
LINE
  8
dimension
  6
CONTINUOUS
 10
93.256107
 20
82.111111
 11
92.253968
 21
82.111111
 39
1
 62
0
  0
ARC
  8
dimension
  6
CONTINUOUS
 10
92.253968
 20
81.000000
 40
1.111111
 50
90.000000
 51
270.000000
 39
1
 62
0
  0
LINE
  8
dimension
  6
CONTINUOUS
 10
92.253968
 20
79.888889
 11
92.809524
 21
79.888889
 39
1
 62
0
  0
ARC
  8
dimension
  6
CONTINUOUS
 10
92.809524
 20
81.000000
 40
1.111111
 50
270.000000
 51
0.000000
 39
1
 62
0
  0
LINE
  8
dimension
  6
CONTINUOUS
 10
93.920635
 20
81.000000
 11
93.920635
 21
82.044210
 39
1
 62
0
  0
LINE
  8
dimension
  6
CONTINUOUS
 10
75.000000
 20
60.857143
 11
72.777778
 21
60.857143
 39
1
 62
0
  0
LINE
  8
dimension
  6
CONTINUOUS
 10
72.777778
 20
60.857143
 11
74.924723
 21
64.549743
 39
1
 62
0
  0
ARC
  8
dimension
  6
CONTINUOUS
 10
74.444444
 20
64.828982
 40
0.555556
 50
329.825470
 51
20.529110
 39
1
 62
0
  0
ARC
  8
dimension
  6
CONTINUOUS
 10
73.888889
 20
64.746032
 40
1.111111
 50
14.477510
 51
165.522491
 39
1
 62
0
  0
LINE
  8
dimension
  6
CONTINUOUS
 10
78.222222
 20
65.857143
 11
76.000000
 21
65.857143
 39
1
 62
0
  0
LINE
  8
dimension
  6
CONTINUOUS
 10
76.000000
 20
65.857143
 11
76.000000
 21
63.634921
 39
1
 62
0
  0
LINE
  8
dimension
  6
CONTINUOUS
 10
76.000000
 20
63.634921
 11
77.111111
 21
63.634921
 39
1
 62
0
  0
ARC
  8
dimension
  6
CONTINUOUS
 10
77.111111
 20
62.523810
 40
1.111111
 50
0.000000
 51
90.000000
 39
1
 62
0
  0
LINE
  8
dimension
  6
CONTINUOUS
 10
78.222222
 20
62.523810
 11
78.222222
 21
61.968254
 39
1
 62
0
  0
ARC
  8
dimension
  6
CONTINUOUS
 10
77.111111
 20
61.968254
 40
1.111111
 50
270.000000
 51
0.000000
 39
1
 62
0
  0
LINE
  8
dimension
  6
CONTINUOUS
 10
77.111111
 20
60.857143
 11
76.000000
 21
60.857143
 39
1
 62
0
  0
ARC
  8
dimension
  6
CONTINUOUS
 10
263.222222
 20
86.970393
 40
3.333333
 50
120.000000
 51
180.000000
 39
1
 62
0
  0
LINE
  8
dimension
  6
CONTINUOUS
 10
259.888889
 20
86.970393
 11
259.888889
 21
85.968254
 39
1
 62
0
  0
ARC
  8
dimension
  6
CONTINUOUS
 10
261.000000
 20
85.968254
 40
1.111111
 50
180.000000
 51
0.000000
 39
1
 62
0
  0
LINE
  8
dimension
  6
CONTINUOUS
 10
262.111111
 20
85.968254
 11
262.111111
 21
86.523810
 39
1
 62
0
  0
ARC
  8
dimension
  6
CONTINUOUS
 10
261.000000
 20
86.523810
 40
1.111111
 50
0.000000
 51
90.000000
 39
1
 62
0
  0
LINE
  8
dimension
  6
CONTINUOUS
 10
261.000000
 20
87.634921
 11
259.955790
 21
87.634921
 39
1
 62
0
  0
LINE
  8
default
  6
CONTINUOUS
 10
170.722222
 20
77.322719
 11
171.833333
 21
78.433830
 39
0
 62
0
  0
LINE
  8
default
  6
CONTINUOUS
 10
171.833333
 20
78.433830
 11
171.833333
 21
73.433830
 39
0
 62
0
  0
LINE
  8
default
  6
CONTINUOUS
 10
172.833333
 20
78.433830
 11
175.055556
 21
78.433830
 39
0
 62
0
  0
LINE
  8
default
  6
CONTINUOUS
 10
175.055556
 20
78.433830
 11
173.666667
 21
73.433830
 39
0
 62
0
  0
LINE
  8
default
  6
CONTINUOUS
 10
173.944444
 20
76.211608
 11
175.055556
 21
76.211608
 39
0
 62
0
  0
LINE
  8
default
  6
CONTINUOUS
 10
176.055556
 20
78.433830
 11
177.166667
 21
78.433830
 39
0
 62
0
  0
ARC
  8
default
  6
CONTINUOUS
 10
177.166667
 20
77.322719
 40
1.111111
 50
270.000000
 51
90.000000
 39
0
 62
0
  0
LINE
  8
default
  6
CONTINUOUS
 10
177.166667
 20
76.211608
 11
176.611111
 21
76.211608
 39
0
 62
0
  0
ARC
  8
default
  6
CONTINUOUS
 10
177.166667
 20
75.100497
 40
1.111111
 50
0.000000
 51
90.000000
 39
0
 62
0
  0
LINE
  8
default
  6
CONTINUOUS
 10
178.277778
 20
75.100497
 11
178.277778
 21
74.544941
 39
0
 62
0
  0
ARC
  8
default
  6
CONTINUOUS
 10
177.166667
 20
74.544941
 40
1.111111
 50
270.000000
 51
0.000000
 39
0
 62
0
  0
LINE
  8
default
  6
CONTINUOUS
 10
177.166667
 20
73.433830
 11
176.055556
 21
73.433830
 39
0
 62
0
  0
ENDSEC
  0
EOF
