  0
SECTION
  2
HEADER
  9
$ACADVER
  1
AC1015
  9
$HANDSEED
  5
FFFF
  0
ENDSEC
  9
$DIMSTYLE
  2
Standard
  0
SECTION
  2
TABLES
  0
TABLE
  2
VPORT
  5
8
100
AcDbSymbolTable
 70
1
  0
VPORT
  5
30
100
AcDbSymbolTableRecord
100
AcDbViewportTableRecord
  2
*Active
 70
0
 10
0.0
 20
0.0
 11
1.0
 21
1.0
 12
286.3055555555554861
 22
148.5
 13
0.0
 23
0.0
 14
10.0
 24
10.0
 15
10.0
 25
10.0
 16
0.0
 26
0.0
 36
1.0
 17
0.0
 27
0.0
 37
0.0
 40
297.0
 41
1.92798353909465
 42
50.0
 43
0.0
 44
0.0
 50
0.0
 51
0.0
 71
0
 72
100
 73
1
 74
3
 75
1
 76
1
 77
0
 78
0
281
0
 65
1
110
0.0
120
0.0
130
0.0
111
1.0
121
0.0
131
0.0
112
0.0
122
1.0
132
0.0
 79
0
146
0.0
  0
ENDTAB
  0
TABLE
  2
LTYPE
  5
5
100
AcDbSymbolTable
 70
3
  0
LTYPE
  5
14
100
AcDbSymbolTableRecord
100
AcDbLinetypeTableRecord
  2
ByBlock
 70
0
  3

 72
65
 73
0
 40
0.0
  0
LTYPE
  5
15
100
AcDbSymbolTableRecord
100
AcDbLinetypeTableRecord
  2
ByLayer
 70
0
  3

 72
65
 73
0
 40
0.0
  0
LTYPE
  5
16
100
AcDbSymbolTableRecord
100
AcDbLinetypeTableRecord
  2
CONTINUOUS
 70
0
  3
Solid line
 72
65
 73
0
 40
0.0
  0
LTYPE
  5
31
100
AcDbSymbolTableRecord
100
AcDbLinetypeTableRecord
  2
ACAD_ISO03W100
 70
0
  3
ISO Dashed with Distance __    __    __    _
 72
65
 73
2
 40
30.0
 49
12.0
 74
0
 49
-18.0
 74
0
  0
LTYPE
  5
32
100
AcDbSymbolTableRecord
100
AcDbLinetypeTableRecord
  2
ACAD_ISO02W100
 70
0
  3
ISO Dashed __ __ __ __ __ __ __ __ __ __ _
 72
65
 73
2
 40
15.0
 49
12.0
 74
0
 49
-3.0
 74
0
  0
LTYPE
  5
33
100
AcDbSymbolTableRecord
100
AcDbLinetypeTableRecord
  2
ACAD_ISO04W100
 70
0
  3
ISO Long Dashed Dotted ____ . ____ . __
 72
65
 73
4
 40
30.0
 49
24.0
 74
0
 49
-3.0
 74
0
 49
0.0
 74
0
 49
-3.0
 74
0
  0
LTYPE
  5
34
100
AcDbSymbolTableRecord
100
AcDbLinetypeTableRecord
  2
ACAD_ISO05W100
 70
0
  3
ISO Long Dashed Double Dotted ____ .. __
 72
65
 73
6
 40
33.0
 49
24.0
 74
0
 49
-3.0
 74
0
 49
0.0
 74
0
 49
-3.0
 74
0
 49
0.0
 74
0
 49
-3.0
 74
0
  0
ENDTAB
  0
TABLE
  2
LAYER
  5
2
100
AcDbSymbolTable
 70
2
  0
LAYER
  5
10
100
AcDbSymbolTableRecord
100
AcDbLayerTableRecord
  2
0
 70
0
 62
7
  6
CONTINUOUS
370
0
390
F
  0
LAYER
  5
35
100
AcDbSymbolTableRecord
100
AcDbLayerTableRecord
  2
ByBlock
 70
0
 62
7
  6
CONTINUOUS
370
0
390
F
  0
ENDTAB
  0
TABLE
  2
STYLE
  5
3
100
AcDbSymbolTable
 70
1
  0
STYLE
  5
11
100
AcDbSymbolTableRecord
100
AcDbTextStyleTableRecord
  2
Standard
 70
0
 40
0.0
 41
1.0
 50
0.0
 71
0
 42
2.5
  3
txt
  4

  0
ENDTAB
  0
TABLE
  2
VIEW
  5
6
100
AcDbSymbolTable
 70
0
  0
ENDTAB
  0
TABLE
  2
UCS
  5
7
100
AcDbSymbolTable
 70
0
  0
ENDTAB
  0
TABLE
  2
APPID
  5
9
100
AcDbSymbolTable
 70
1
  0
APPID
  5
12
100
AcDbSymbolTableRecord
100
AcDbRegAppTableRecord
  2
ACAD
 70
0
  0
ENDTAB
  0
TABLE
  2
DIMSTYLE
  5
A
100
AcDbSymbolTable
 70
1
100
AcDbDimStyleTable
 71
0
  0
DIMSTYLE
105
27
100
AcDbSymbolTableRecord
100
AcDbDimStyleTableRecord
  2
ISO-25
 70
0
 41
2.5
 42
0.625
 43
3.75
 44
1.25
 73
0
 74
0
 77
1
 78
8
140
2.5
141
2.5
143
0.03937007874016
147
0.625
171
3
172
1
271
2
272
2
274
3
278
44
283
0
284
8
340
11
  0
ENDTAB
  0
TABLE
  2
BLOCK_RECORD
  5
1
100
AcDbSymbolTable
 70
1
  0
BLOCK_RECORD
  5
1F
100
AcDbSymbolTableRecord
100
AcDbBlockTableRecord
  2
*Model_Space
340
22
  0
BLOCK_RECORD
  5
1B
100
AcDbSymbolTableRecord
100
AcDbBlockTableRecord
  2
*Paper_Space
340
1E
  0
BLOCK_RECORD
  5
23
100
AcDbSymbolTableRecord
100
AcDbBlockTableRecord
  2
*Paper_Space0
340
26
  0
ENDTAB
  0
ENDSEC
  0
SECTION
  2
BLOCKS
  0
BLOCK
  5
20
100
AcDbEntity
  8
0
100
AcDbBlockBegin
  2
*Model_Space
 70
0
 10
0.0
 20
0.0
 30
0.0
  3
*Model_Space
  1

  0
ENDBLK
  5
21
100
AcDbEntity
  8
0
100
AcDbBlockEnd
  0
BLOCK
  5
1C
100
AcDbEntity
 67
1
  8
0
100
AcDbBlockBegin
  2
*Paper_Space
 70
0
 10
0.0
 20
0.0
 30
0.0
  3
*Paper_Space
  1

  0
ENDBLK
  5
1D
100
AcDbEntity
 67
1
  8
0
100
AcDbBlockEnd
  0
BLOCK
  5
24
100
AcDbEntity
  8
0
100
AcDbBlockBegin
  2
*Paper_Space0
 70
0
 10
0.0
 20
0.0
 30
0.0
  3
*Paper_Space0
  1

  0
ENDBLK
  5
25
100
AcDbEntity
  8
0
100
AcDbBlockEnd
  0
ENDSEC
  0
SECTION
  2
ENTITIES
  0
LINE
  5
36
100
AcDbEntity
100
AcDbLine
  8
0
 62
256
370
-1
  6
ByLayer
 10
0.0
 20
0.0
 30
0.0
 11
40.0
 21
0.0
 31
0.0
  0
LINE
  5
37
100
AcDbEntity
100
AcDbLine
  8
0
 62
1
370
-1
  6
ByLayer
 10
0.0
 20
-10.0
 30
0.0
 11
40.0
 21
-10.0
 31
0.0
  0
LINE
  5
38
100
AcDbEntity
100
AcDbLine
  8
0
 62
2
370
-1
  6
ByLayer
 10
0.0
 20
-20.0
 30
0.0
 11
40.0
 21
-20.0
 31
0.0
  0
LINE
  5
39
100
AcDbEntity
100
AcDbLine
  8
0
 62
3
370
-1
  6
ByLayer
 10
0.0
 20
-30.0
 30
0.0
 11
40.0
 21
-30.0
 31
0.0
  0
LINE
  5
3A
100
AcDbEntity
100
AcDbLine
  8
0
 62
4
370
-1
  6
ByLayer
 10
0.0
 20
-40.0
 30
0.0
 11
40.0
 21
-40.0
 31
0.0
  0
LINE
  5
3B
100
AcDbEntity
100
AcDbLine
  8
0
 62
5
370
-1
  6
ByLayer
 10
0.0
 20
-50.0
 30
0.0
 11
40.0
 21
-50.0
 31
0.0
  0
LINE
  5
3C
100
AcDbEntity
100
AcDbLine
  8
0
 62
6
370
-1
  6
ByLayer
 10
0.0
 20
-60.0
 30
0.0
 11
40.0
 21
-60.0
 31
0.0
  0
LINE
  5
3D
100
AcDbEntity
100
AcDbLine
  8
0
 62
7
370
-1
  6
ByLayer
 10
0.0
 20
-70.0
 30
0.0
 11
40.0
 21
-70.0
 31
0.0
  0
LINE
  5
3E
100
AcDbEntity
100
AcDbLine
  8
0
 62
7
370
-3
  6
ByLayer
 10
50.0
 20
0.0
 30
0.0
 11
90.0
 21
0.0
 31
0.0
  0
LINE
  5
3F
100
AcDbEntity
100
AcDbLine
  8
0
 62
7
370
9
  6
ByLayer
 10
50.0
 20
-10.0
 30
0.0
 11
90.0
 21
-10.0
 31
0.0
  0
LINE
  5
40
100
AcDbEntity
100
AcDbLine
  8
0
 62
7
370
13
  6
ByLayer
 10
50.0
 20
-20.0
 30
0.0
 11
90.0
 21
-20.0
 31
0.0
  0
LINE
  5
41
100
AcDbEntity
100
AcDbLine
  8
0
 62
7
370
13
  6
ByLayer
 10
50.0
 20
-30.0
 30
0.0
 11
90.0
 21
-30.0
 31
0.0
  0
LINE
  5
42
100
AcDbEntity
100
AcDbLine
  8
0
 62
7
370
13
  6
ByLayer
 10
50.0
 20
-40.0
 30
0.0
 11
90.0
 21
-40.0
 31
0.0
  0
LINE
  5
43
100
AcDbEntity
100
AcDbLine
  8
0
 62
7
370
15
  6
ByLayer
 10
50.0
 20
-50.0
 30
0.0
 11
90.0
 21
-50.0
 31
0.0
  0
LINE
  5
44
100
AcDbEntity
100
AcDbLine
  8
0
 62
7
370
15
  6
ByLayer
 10
50.0
 20
-60.0
 30
0.0
 11
90.0
 21
-60.0
 31
0.0
  0
LINE
  5
45
100
AcDbEntity
100
AcDbLine
  8
0
 62
7
370
20
  6
ByLayer
 10
50.0
 20
-70.0
 30
0.0
 11
90.0
 21
-70.0
 31
0.0
  0
LINE
  5
46
100
AcDbEntity
100
AcDbLine
  8
0
 62
7
370
-3
  6
CONTINUOUS
 10
100.0
 20
0.0
 30
0.0
 11
140.0
 21
0.0
 31
0.0
  0
LINE
  5
47
100
AcDbEntity
100
AcDbLine
  8
0
 62
7
370
-3
  6
ACAD_ISO03W100
 10
100.0
 20
-10.0
 30
0.0
 11
140.0
 21
-10.0
 31
0.0
  0
LINE
  5
48
100
AcDbEntity
100
AcDbLine
  8
0
 62
7
370
-3
  6
ACAD_ISO02W100
 10
100.0
 20
-20.0
 30
0.0
 11
140.0
 21
-20.0
 31
0.0
  0
LINE
  5
49
100
AcDbEntity
100
AcDbLine
  8
0
 62
7
370
-3
  6
ACAD_ISO04W100
 10
100.0
 20
-30.0
 30
0.0
 11
140.0
 21
-30.0
 31
0.0
  0
LINE
  5
4A
100
AcDbEntity
100
AcDbLine
  8
0
 62
7
370
-3
  6
ACAD_ISO05W100
 10
100.0
 20
-40.0
 30
0.0
 11
140.0
 21
-40.0
 31
0.0
  0
POINT
  5
4B
100
AcDbEntity
100
AcDbPoint
  8
0
 62
7
370
-3
  6
ACAD_ISO05W100
 10
0.0
 20
20.0
 30
0.0
  0
POINT
  5
4C
100
AcDbEntity
100
AcDbPoint
  8
0
 62
7
370
-3
  6
ACAD_ISO05W100
 10
10.0
 20
20.0
 30
0.0
  0
POINT
  5
4D
100
AcDbEntity
100
AcDbPoint
  8
0
 62
7
370
-3
  6
ACAD_ISO05W100
 10
20.0
 20
20.0
 30
0.0
  0
POINT
  5
4E
100
AcDbEntity
100
AcDbPoint
  8
0
 62
7
370
-3
  6
ACAD_ISO05W100
 10
30.0
 20
20.0
 30
0.0
  0
POINT
  5
4F
100
AcDbEntity
100
AcDbPoint
  8
0
 62
7
370
-3
  6
ACAD_ISO05W100
 10
40.0
 20
20.0
 30
0.0
  0
ARC
  5
50
100
AcDbEntity
  8
0
 62
7
370
-3
  6
CONTINUOUS
100
AcDbCircle
 10
10.0
 20
40.0
 30
0.0
 40
10.0
100
AcDbArc
 50
0.0
 51
45.0000000000000071
  0
ARC
  5
51
100
AcDbEntity
  8
0
 62
7
370
-3
  6
CONTINUOUS
100
AcDbCircle
 10
10.0
 20
40.0
 30
0.0
 40
10.0
100
AcDbArc
 50
90.0
 51
135.0
  0
ARC
  5
52
100
AcDbEntity
  8
0
 62
7
370
-3
  6
CONTINUOUS
100
AcDbCircle
 10
10.0
 20
40.0
 30
0.0
 40
10.0
100
AcDbArc
 50
180.0
 51
225.0
  0
ARC
  5
53
100
AcDbEntity
  8
0
 62
7
370
-3
  6
CONTINUOUS
100
AcDbCircle
 10
10.0
 20
40.0
 30
0.0
 40
10.0
100
AcDbArc
 50
270.0
 51
315.0
  0
ARC
  5
54
100
AcDbEntity
  8
0
 62
7
370
-3
  6
CONTINUOUS
100
AcDbCircle
 10
50.0
 20
30.0
 30
0.0
 40
20.0
100
AcDbArc
 50
0.0
 51
180.0
  0
ARC
  5
55
100
AcDbEntity
  8
0
 62
7
370
-3
  6
CONTINUOUS
100
AcDbCircle
 10
70.0
 20
30.0
 30
0.0
 40
20.0
100
AcDbArc
 50
180.0
 51
0.0
  0
ARC
  5
56
100
AcDbEntity
  8
0
 62
7
370
-3
  6
CONTINUOUS
100
AcDbCircle
 10
70.0
 20
-179.9999999999992042
 30
0.0
 40
249.9999999999992326
100
AcDbArc
 50
73.7397952916879973
 51
106.2602047083120027
  0
CIRCLE
  5
57
100
AcDbEntity
100
AcDbCircle
  8
0
 62
7
370
-3
  6
CONTINUOUS
 10
120.0
 20
40.0
 30
0.0
 40
10.0
  0
CIRCLE
  5
58
100
AcDbEntity
100
AcDbCircle
  8
0
 62
7
370
-3
  6
CONTINUOUS
 10
120.0
 20
40.0
 30
0.0
 40
20.0
  0
ELLIPSE
  5
59
100
AcDbEntity
100
AcDbEllipse
  8
0
 62
7
370
-3
  6
CONTINUOUS
 10
20.0
 20
80.0
 30
0.0
 11
20.0
 21
0.0
 31
0.0
 40
0.5
 41
0.0
 42
6.2831853071795862
  0
ELLIPSE
  5
5A
100
AcDbEntity
100
AcDbEllipse
  8
0
 62
7
370
-3
  6
CONTINUOUS
 10
20.0
 20
80.0
 30
0.0
 11
10.0
 21
0.0
 31
0.0
 40
0.3
 41
0.0
 42
6.2831853071795862
  0
ELLIPSE
  5
5B
100
AcDbEntity
100
AcDbEllipse
  8
0
 62
7
370
-3
  6
CONTINUOUS
 10
120.0
 20
80.0
 30
0.0
 11
20.0
 21
-10.0
 31
0.0
 40
0.4
 41
0.0
 42
4.7123889803846897
  0
LINE
  5
5C
100
AcDbEntity
100
AcDbLine
  8
0
 62
7
370
-3
  6
CONTINUOUS
 10
190.0
 20
10.0
 30
0.0
 11
190.0
 21
-40.0
 31
0.0
  0
LINE
  5
5D
100
AcDbEntity
100
AcDbLine
  8
0
 62
7
370
-3
  6
CONTINUOUS
 10
190.0
 20
-40.0
 30
0.0
 11
240.0
 21
-40.0
 31
0.0
  0
LINE
  5
5E
100
AcDbEntity
100
AcDbLine
  8
0
 62
7
370
-3
  6
CONTINUOUS
 10
240.0
 20
-40.0
 30
0.0
 11
240.0
 21
0.0
 31
0.0
  0
LINE
  5
5F
100
AcDbEntity
100
AcDbLine
  8
0
 62
7
370
-3
  6
CONTINUOUS
 10
240.0
 20
0.0
 30
0.0
 11
230.0
 21
10.0
 31
0.0
  0
LINE
  5
60
100
AcDbEntity
100
AcDbLine
  8
0
 62
7
370
-3
  6
CONTINUOUS
 10
230.0
 20
10.0
 30
0.0
 11
210.0
 21
10.0
 31
0.0
  0
LINE
  5
61
100
AcDbEntity
100
AcDbLine
  8
0
 62
7
370
-3
  6
CONTINUOUS
 10
210.0
 20
10.0
 30
0.0
 11
210.0
 21
-10.0
 31
0.0
  0
LINE
  5
62
100
AcDbEntity
100
AcDbLine
  8
0
 62
7
370
-3
  6
CONTINUOUS
 10
210.0
 20
-10.0
 30
0.0
 11
200.0
 21
-10.0
 31
0.0
  0
LINE
  5
63
100
AcDbEntity
100
AcDbLine
  8
0
 62
7
370
-3
  6
CONTINUOUS
 10
200.0
 20
-10.0
 30
0.0
 11
200.0
 21
10.0
 31
0.0
  0
LINE
  5
64
100
AcDbEntity
100
AcDbLine
  8
0
 62
7
370
-3
  6
CONTINUOUS
 10
200.0
 20
10.0
 30
0.0
 11
190.0
 21
10.0
 31
0.0
  0
DIMENSION
  5
65
100
AcDbEntity
  8
0
 62
7
370
-3
  6
CONTINUOUS
100
AcDbDimension
 10
260.0
 20
20.0
 30
0.0
 11
0.0
 21
0.0
 31
0.0
 70
1
 71
5
 72
1
 41
1.0
 42
0.0
  1

  3
Standard
100
AcDbAlignedDimension
 13
230.0
 23
10.0
 33
0.0
 14
240.0
 24
0.0
 34
0.0
  0
DIMENSION
  5
66
100
AcDbEntity
  8
0
 62
256
370
-1
  6
ByLayer
100
AcDbDimension
 10
240.4419417382415816
 20
29.9999999999999964
 30
0.0
 11
0.0
 21
0.0
 31
0.0
 70
0
 71
5
 72
0
 41
1.0
 42
0.0
  1

  3
Standard
100
AcDbAlignedDimension
 13
190.0
 23
10.0
 33
0.0
 14
240.4419417382415816
 24
0.4419417382415922
 34
0.0
 50
0.0
100
AcDbRotatedDimension
  0
DIMENSION
  5
67
100
AcDbEntity
  8
0
 62
256
370
-1
  6
ByLayer
100
AcDbDimension
 10
180.0
 20
-40.0
 30
0.0
 11
0.0
 21
0.0
 31
0.0
 70
0
 71
5
 72
0
 41
1.0
 42
0.0
  1

  3
Standard
100
AcDbAlignedDimension
 13
190.0
 23
10.0
 33
0.0
 14
190.0
 24
-40.0
 34
0.0
 50
90.0
100
AcDbRotatedDimension
  0
DIMENSION
  5
68
100
AcDbEntity
  8
0
 62
256
370
-1
  6
ByLayer
100
AcDbDimension
 10
265.0
 20
-25.0000000000000036
 30
0.0
 11
0.0
 21
0.0
 31
0.0
 70
0
 71
5
 72
0
 41
1.0
 42
0.0
  1

  3
Standard
100
AcDbAlignedDimension
 13
240.0
 23
-40.0
 33
0.0
 14
240.0
 24
0.0
 34
0.0
 50
45.0
100
AcDbRotatedDimension
  0
CIRCLE
  5
69
100
AcDbEntity
100
AcDbCircle
  8
0
 62
256
370
-1
  6
ByLayer
 10
223.0
 20
-25.0
 30
0.0
 40
10.0
  0
DIMENSION
  5
6A
100
AcDbEntity
  8
0
 62
256
370
-1
  6
ByLayer
100
AcDbDimension
 10
223.0
 20
-25.0
 30
0.0
 11
0.0
 21
0.0
 31
0.0
 70
4
 71
5
 72
1
 41
1.0
 42
0.0
  1

  3
Standard
100
AcDbRadialDimension
 15
215.9289321881345245
 25
-17.9289321881345245
 35
0.0
 40
0.0
  0
DIMENSION
  5
6B
100
AcDbEntity
  8
0
 62
256
370
-1
  6
ByLayer
100
AcDbDimension
 10
233.0
 20
-25.0000000000000036
 30
0.0
 11
0.0
 21
0.0
 31
0.0
 70
3
 71
5
 72
1
 41
1.0
 42
0.0
  1

  3
Standard
100
AcDbDiametricDimension
 15
213.0
 25
-25.0
 35
0.0
 40
0.0
  0
DIMENSION
  5
6C
100
AcDbEntity
  8
0
 62
256
370
-1
  6
ByLayer
100
AcDbDimension
 10
240.0
 20
-40.0
 30
0.0
 11
0.0
 21
0.0
 31
0.0
 70
2
 71
5
 72
1
 41
1.0
 42
0.0
  1

  3
Standard
100
AcDb2LineAngularDimension
 13
240.0
 23
0.0
 33
0.0
 14
230.0
 24
10.0
 34
0.0
 15
240.0
 25
0.0
 35
0.0
 16
230.0
 26
0.0
 36
0.0
  0
ENDSEC
  0
SECTION
  2
OBJECTS
  0
DICTIONARY
  5
C
100
AcDbDictionary
280
0
281
1
  3
ACAD_GROUP
350
D
  3
ACAD_LAYOUT
350
1A
  3
ACAD_MLINESTYLE
350
17
  3
ACAD_PLOTSETTINGS
350
19
  3
ACAD_PLOTSTYLENAME
350
E
  3
AcDbVariableDictionary
350
6D
  0
DICTIONARY
  5
D
100
AcDbDictionary
280
0
281
1
  0
ACDBDICTIONARYWDFLT
  5
E
100
AcDbDictionary
281
1
  3
Normal
350
F
100
AcDbDictionaryWithDefault
340
F
  0
ACDBPLACEHOLDER
  5
F
  0
DICTIONARY
  5
17
100
AcDbDictionary
280
0
281
1
  3
Standard
350
18
  0
MLINESTYLE
  5
18
100
AcDbMlineStyle
  2
STANDARD
 70
0
  3

 62
256
 51
90.0
 52
90.0
 71
2
 49
0.5
 62
256
  6
BYLAYER
 49
-0.5
 62
256
  6
BYLAYER
  0
DICTIONARY
  5
19
100
AcDbDictionary
280
0
281
1
  0
DICTIONARY
  5
1A
100
AcDbDictionary
281
1
  3
Layout1
350
1E
  3
Layout2
350
26
  3
Model
350
22
  0
LAYOUT
  5
1E
100
AcDbPlotSettings
  1

  2
C:\Program Files\AutoCAD 2002\plotters\DWF ePlot (optimized for plotting).pc3
  4

  6

 40
0.0
 41
0.0
 42
0.0
 43
0.0
 44
0.0
 45
0.0
 46
0.0
 47
0.0
 48
0.0
 49
0.0
140
0.0
141
0.0
142
1.0
143
1.0
 70
688
 72
0
 73
0
 74
5
  7

 75
16
147
1.0
148
0.0
149
0.0
100
AcDbLayout
  1
Layout1
 70
1
 71
1
 10
0.0
 20
0.0
 11
420.0
 21
297.0
 12
0.0
 22
0.0
 32
0.0
 14
100000000000000000000.0
 24
100000000000000000000.0
 34
100000000000000000000.0
 15
-100000000000000000000.0
 25
-100000000000000000000.0
 35
-100000000000000000000.0
146
0.0
 13
0.0
 23
0.0
 33
0.0
 16
1.0
 26
0.0
 36
0.0
 17
0.0
 27
1.0
 37
0.0
 76
0
330
1B
  0
LAYOUT
  5
22
100
AcDbPlotSettings
  1

  2
D:\Program Files\AutoCAD 2002 Deu\plotters\DWF ePlot (optimized for plotting).pc3
  4

  6

 40
0.0
 41
0.0
 42
0.0
 43
0.0
 44
0.0
 45
0.0
 46
0.0
 47
0.0
 48
0.0
 49
0.0
140
0.0
141
0.0
142
1.0
143
1.0
 70
1712
 72
0
 73
0
 74
0
  7

 75
0
147
1.0
148
0.0
149
0.0
100
AcDbLayout
  1
Model
 70
1
 71
0
 10
0.0
 20
0.0
 11
12.0
 21
9.0
 12
0.0
 22
0.0
 32
0.0
 14
0.0
 24
0.0
 34
0.0
 15
0.0
 25
0.0
 35
0.0
146
0.0
 13
0.0
 23
0.0
 33
0.0
 16
1.0
 26
0.0
 36
0.0
 17
0.0
 27
1.0
 37
0.0
 76
0
330
1F
  0
LAYOUT
  5
26
100
AcDbPlotSettings
  1

  2
D:\Program Files\AutoCAD 2002 Deu\plotters\DWF ePlot (optimized for plotting).pc3
  4

  6

 40
0.0
 41
0.0
 42
0.0
 43
0.0
 44
0.0
 45
0.0
 46
0.0
 47
0.0
 48
0.0
 49
0.0
140
0.0
141
0.0
142
1.0
143
1.0
 70
688
 72
0
 73
0
 74
5
  7

 75
16
147
1.0
148
0.0
149
0.0
100
AcDbLayout
  1
Layout2
 70
1
 71
2
 10
0.0
 20
0.0
 11
12.0
 21
9.0
 12
0.0
 22
0.0
 32
0.0
 14
0.0
 24
0.0
 34
0.0
 15
0.0
 25
0.0
 35
0.0
146
0.0
 13
0.0
 23
0.0
 33
0.0
 16
1.0
 26
0.0
 36
0.0
 17
0.0
 27
1.0
 37
0.0
 76
0
330
23
  0
DICTIONARY
  5
6D
100
AcDbDictionary
281
1
  3
DIMASSOC
350
6F
  3
HIDETEXT
350
6E
  0
DICTIONARYVAR
  5
6E
100
DictionaryVariables
280
0
  1
2
  0
DICTIONARYVAR
  5
6F
100
DictionaryVariables
280
0
  1
1
  0
ENDSEC
  0
EOF
